<?xml version="1.0" encoding="UTF-8" standalone="no"?>
<!-- Created with Inkscape (http://www.inkscape.org/) -->

<svg
   xmlns:dc="http://purl.org/dc/elements/1.1/"
   xmlns:cc="http://creativecommons.org/ns#"
   xmlns:rdf="http://www.w3.org/1999/02/22-rdf-syntax-ns#"
   xmlns:svg="http://www.w3.org/2000/svg"
   xmlns="http://www.w3.org/2000/svg"
   xmlns:sodipodi="http://sodipodi.sourceforge.net/DTD/sodipodi-0.dtd"
   xmlns:inkscape="http://www.inkscape.org/namespaces/inkscape"
   width="836.22046"
   height="113.38583"
   id="svg2"
   version="1.1"
   inkscape:version="0.48.4 r9939"
   sodipodi:docname="New document 1">
  <defs
     id="defs4" />
  <sodipodi:namedview
     id="base"
     pagecolor="#ffffff"
     bordercolor="#666666"
     borderopacity="1.0"
     inkscape:pageopacity="0.0"
     inkscape:pageshadow="2"
     inkscape:zoom="0.7"
     inkscape:cx="239.11421"
     inkscape:cy="36.651943"
     inkscape:document-units="mm"
     inkscape:current-layer="layer1"
     showgrid="false"
     units="mm"
     inkscape:window-width="1366"
     inkscape:window-height="705"
     inkscape:window-x="-8"
     inkscape:window-y="-8"
     inkscape:window-maximized="1" />
  <metadata
     id="metadata7">
    <rdf:RDF>
      <cc:Work
         rdf:about="">
        <dc:format>image/svg+xml</dc:format>
        <dc:type
           rdf:resource="http://purl.org/dc/dcmitype/StillImage" />
        <dc:title></dc:title>
      </cc:Work>
    </rdf:RDF>
  </metadata>
  <g
     inkscape:label="Layer 1"
     inkscape:groupmode="layer"
     id="layer1"
     transform="translate(0,-938.97638)">
    <path
       sodipodi:type="arc"
       style="fill:none;stroke:#ff0000;stroke-width:0.03604714000000000;stroke-linejoin:miter;stroke-miterlimit:4;stroke-opacity:1;stroke-dasharray:none;stroke-dashoffset:0"
       id="path2985-0-45"
       sodipodi:cx="27.02158"
       sodipodi:cy="25.378183"
       sodipodi:rx="4.1668792"
       sodipodi:ry="4.0406103"
       d="m 31.188459,25.378183 a 4.1668792,4.0406103 0 1 1 -8.333758,0 4.1668792,4.0406103 0 1 1 8.333758,0 z"
       transform="matrix(1.7385002,1.7385002,-1.7928284,1.7928284,35.173664,883.14344)" />
    <path
       sodipodi:type="arc"
       style="fill:none;stroke:#ff0000;stroke-width:0.03604714000000000;stroke-linejoin:miter;stroke-miterlimit:4;stroke-opacity:1;stroke-dasharray:none;stroke-dashoffset:0"
       id="path2985-4-8-1"
       sodipodi:cx="27.02158"
       sodipodi:cy="25.378183"
       sodipodi:rx="4.1668792"
       sodipodi:ry="4.0406103"
       d="m 31.188459,25.378183 a 4.1668792,4.0406103 0 1 1 -8.333758,0 4.1668792,4.0406103 0 1 1 8.333758,0 z"
       transform="matrix(-1.7385002,1.7385002,-1.7928284,-1.7928284,129.12773,1014.2288)" />
    <path
       sodipodi:type="arc"
       style="fill:none;stroke:#ff0000;stroke-width:0.03604714000000000;stroke-linejoin:miter;stroke-miterlimit:4;stroke-opacity:1;stroke-dasharray:none;stroke-dashoffset:0"
       id="path2985-0-9"
       sodipodi:cx="27.02158"
       sodipodi:cy="25.378183"
       sodipodi:rx="4.1668792"
       sodipodi:ry="4.0406103"
       d="m 31.188459,25.378183 a 4.1668792,4.0406103 0 1 1 -8.333758,0 4.1668792,4.0406103 0 1 1 8.333758,0 z"
       transform="matrix(2.4586107,0,0,2.5354423,75.299753,931.31823)" />
    <path
       sodipodi:type="arc"
       style="fill:none;stroke:#ff0000;stroke-width:0.03604714000000000;stroke-linejoin:miter;stroke-miterlimit:4;stroke-opacity:1;stroke-dasharray:none;stroke-dashoffset:0"
       id="path2985-4-4"
       sodipodi:cx="27.02158"
       sodipodi:cy="25.378183"
       sodipodi:rx="4.1668792"
       sodipodi:ry="4.0406103"
       d="m 31.188459,25.378183 a 4.1668792,4.0406103 0 1 1 -8.333758,0 4.1668792,4.0406103 0 1 1 8.333758,0 z"
       transform="matrix(2.4586107,0,0,2.5354423,131.99267,931.31823)" />
    <path
       sodipodi:type="arc"
       style="fill:none;stroke:#ff0000;stroke-width:0.03604714000000000;stroke-linejoin:miter;stroke-miterlimit:4;stroke-opacity:1;stroke-dasharray:none;stroke-dashoffset:0"
       id="path2985-4-5-1-5"
       sodipodi:cx="27.02158"
       sodipodi:cy="25.378183"
       sodipodi:rx="4.1668792"
       sodipodi:ry="4.0406103"
       d="m 31.188459,25.378183 a 4.1668792,4.0406103 0 1 1 -8.333758,0 4.1668792,4.0406103 0 1 1 8.333758,0 z"
       transform="matrix(1.7385002,1.7385002,-1.7928284,1.7928284,302.03325,923.23138)" />
    <path
       sodipodi:type="arc"
       style="fill:none;stroke:#ff0000;stroke-width:0.03604714000000000;stroke-linejoin:miter;stroke-miterlimit:4;stroke-opacity:1;stroke-dasharray:none;stroke-dashoffset:0"
       id="path2985-0-4-7-1-6"
       sodipodi:cx="27.02158"
       sodipodi:cy="25.378183"
       sodipodi:rx="4.1668792"
       sodipodi:ry="4.0406103"
       d="m 31.188459,25.378183 a 4.1668792,4.0406103 0 1 1 -8.333758,0 4.1668792,4.0406103 0 1 1 8.333758,0 z"
       transform="matrix(-1.7385002,1.7385002,-1.7928284,-1.7928284,395.98734,974.14091)" />
    <rect
       style="fill:none;stroke:#ff0000;stroke-width:0.09000000000000000;stroke-linejoin:miter;stroke-miterlimit:4;stroke-opacity:1;stroke-dasharray:none;stroke-dashoffset:0"
       id="rect3173"
       width="835.99335"
       height="97.059578"
       x="0.11356423"
       y="955.2146"
       ry="14.1347" />
    <path
       sodipodi:type="arc"
       style="fill:none;stroke:#ff0000;stroke-width:0.03650928000000000;stroke-linejoin:miter;stroke-miterlimit:4;stroke-opacity:1;stroke-dasharray:none;stroke-dashoffset:0"
       id="path2985-0"
       sodipodi:cx="27.02158"
       sodipodi:cy="25.378183"
       sodipodi:rx="4.1668792"
       sodipodi:ry="4.0406103"
       d="m 31.188459,25.378183 a 4.1668792,4.0406103 0 1 1 -8.333758,0 4.1668792,4.0406103 0 1 1 8.333758,0 z"
       transform="matrix(2.427489,0,0,2.5033481,643.0653,932.1404)" />
  </g>
</svg>
