<?xml version="1.0" encoding="UTF-8" standalone="no"?>
<!-- Created with Inkscape (http://www.inkscape.org/) -->

<svg
   xmlns:dc="http://purl.org/dc/elements/1.1/"
   xmlns:cc="http://creativecommons.org/ns#"
   xmlns:rdf="http://www.w3.org/1999/02/22-rdf-syntax-ns#"
   xmlns:svg="http://www.w3.org/2000/svg"
   xmlns="http://www.w3.org/2000/svg"
   xmlns:sodipodi="http://sodipodi.sourceforge.net/DTD/sodipodi-0.dtd"
   xmlns:inkscape="http://www.inkscape.org/namespaces/inkscape"
   width="744.09448819"
   height="1052.3622047"
   id="svg2"
   version="1.1"
   inkscape:version="0.48.4 r9939"
   sodipodi:docname="Pull-Up Hook.svg">
  <defs
     id="defs4" />
  <sodipodi:namedview
     id="base"
     pagecolor="#ffffff"
     bordercolor="#666666"
     borderopacity="1.0"
     inkscape:pageopacity="0.0"
     inkscape:pageshadow="2"
     inkscape:zoom="1.4"
     inkscape:cx="184.24392"
     inkscape:cy="46.114378"
     inkscape:document-units="in"
     inkscape:current-layer="layer1"
     showgrid="false"
     inkscape:window-width="1366"
     inkscape:window-height="705"
     inkscape:window-x="-8"
     inkscape:window-y="-8"
     inkscape:window-maximized="1" />
  <metadata
     id="metadata7">
    <rdf:RDF>
      <cc:Work
         rdf:about="">
        <dc:format>image/svg+xml</dc:format>
        <dc:type
           rdf:resource="http://purl.org/dc/dcmitype/StillImage" />
        <dc:title></dc:title>
      </cc:Work>
    </rdf:RDF>
  </metadata>
  <g
     inkscape:label="Layer 1"
     inkscape:groupmode="layer"
     id="layer1">
    <path
       style="fill:none;stroke:#ff0000;stroke-width:0.18401715;stroke-linejoin:miter;stroke-miterlimit:4;stroke-opacity:1;stroke-dasharray:none;stroke-dashoffset:0"
       d="m 322.22169,692.50672 c -57.50245,0.78876 -113.76782,28.43504 -148.93888,79.35739 -22.11424,32.01807 -32.66738,68.61501 -32.58637,104.78754 l -140.56865032,0 0,175.51915 156.92573032,0 52.71325,0 10.28707,0 0,0.063 46.51544,0 0,-1.2779 c 0.12738,0.043 0.25587,0.086 0.38337,0.1288 -0.13249,-0.1431 -0.25126,-0.3036 -0.38337,-0.4473 l 0,-1.5973 -1.40568,0 c -22.72549,-25.458 -40.13574,-62.93714 -47.21829,-107.47128 -14.94046,-93.94396 21.67413,-183.36448 81.7215,-199.67138 60.04739,-16.30692 120.77219,46.62471 135.71265,140.56865 6.96977,43.82538 2.70043,86.64656 -9.9037,121.52801 l 10.98991,18.3377 c 14.84638,-11.3741 28.21976,-25.18291 39.42312,-41.40382 57.71659,-83.56482 36.79388,-198.11827 -46.77103,-255.83488 -32.64253,-22.54556 -70.03551,-33.09199 -106.89607,-32.58637 z"
       id="path2985"
       inkscape:connector-curvature="0" />
  </g>
</svg>
