<?xml version="1.0" encoding="UTF-8" standalone="no"?>
<!-- Created with Inkscape (http://www.inkscape.org/) -->

<svg
   xmlns:dc="http://purl.org/dc/elements/1.1/"
   xmlns:cc="http://creativecommons.org/ns#"
   xmlns:rdf="http://www.w3.org/1999/02/22-rdf-syntax-ns#"
   xmlns:svg="http://www.w3.org/2000/svg"
   xmlns="http://www.w3.org/2000/svg"
   xmlns:sodipodi="http://sodipodi.sourceforge.net/DTD/sodipodi-0.dtd"
   xmlns:inkscape="http://www.inkscape.org/namespaces/inkscape"
   width="16in"
   height="16in"
   viewBox="0 0 1440 1440"
   id="svg2"
   version="1.1"
   inkscape:version="0.48.4 r9939"
   sodipodi:docname="Pull-Up Grabby Arm Bottom Piece.svg">
  <defs
     id="defs4" />
  <sodipodi:namedview
     id="base"
     pagecolor="#ffffff"
     bordercolor="#666666"
     borderopacity="1.0"
     inkscape:pageopacity="0.0"
     inkscape:pageshadow="2"
     inkscape:zoom="0.7"
     inkscape:cx="778.50088"
     inkscape:cy="1266.3905"
     inkscape:document-units="in"
     inkscape:current-layer="layer1"
     showgrid="false"
     units="in"
     showguides="false"
     inkscape:window-width="1366"
     inkscape:window-height="705"
     inkscape:window-x="-8"
     inkscape:window-y="-8"
     inkscape:window-maximized="1" />
  <metadata
     id="metadata7">
    <rdf:RDF>
      <cc:Work
         rdf:about="">
        <dc:format>image/svg+xml</dc:format>
        <dc:type
           rdf:resource="http://purl.org/dc/dcmitype/StillImage" />
        <dc:title />
      </cc:Work>
    </rdf:RDF>
  </metadata>
  <g
     inkscape:label="Layer 1"
     inkscape:groupmode="layer"
     id="layer1"
     transform="translate(0,387.63786)">
    <g
       id="g3002"
       transform="translate(-132,0)">
      <ellipse
         ry="10.806951"
         rx="10.549734"
         transform="matrix(-1,0,0,1,22.5,-1327.5)"
         cy="1007.8901"
         cx="-1321.9861"
         id="path3336"
         style="fill:none;stroke:#ff0000;stroke-width:0.09127102;stroke-linecap:butt;stroke-linejoin:miter;stroke-miterlimit:4;stroke-opacity:1;stroke-dasharray:none"
         d="m -1311.4363,1007.8901 c 0,5.9685 -4.7233,10.8069 -10.5498,10.8069 -5.8264,0 -10.5497,-4.8384 -10.5497,-10.8069 0,-5.9685 4.7233,-10.80697 10.5497,-10.80697 5.8265,0 10.5498,4.83847 10.5498,10.80697 z"
         sodipodi:cx="-1321.9861"
         sodipodi:cy="1007.8901"
         sodipodi:rx="10.549734"
         sodipodi:ry="10.806951" />
      <ellipse
         ry="10.806951"
         rx="10.549734"
         cy="1007.8901"
         cx="32.702568"
         id="path3336-1"
         style="fill:none;stroke:#ff0000;stroke-width:0.09127102;stroke-linecap:butt;stroke-linejoin:miter;stroke-miterlimit:4;stroke-opacity:1;stroke-dasharray:none"
         d="m 43.252302,1007.8901 c 0,5.9685 -4.723277,10.8069 -10.549734,10.8069 -5.826457,0 -10.549734,-4.8384 -10.549734,-10.8069 0,-5.9685 4.723277,-10.80697 10.549734,-10.80697 5.826457,0 10.549734,4.83847 10.549734,10.80697 z"
         sodipodi:cx="32.702568"
         sodipodi:cy="1007.8901"
         sodipodi:rx="10.549734"
         sodipodi:ry="10.806951"
         transform="translate(157.45967,-1327.5)" />
      <ellipse
         ry="10.806951"
         rx="10.549734"
         cy="1007.8901"
         cx="1125.0007"
         id="path3336-3"
         style="fill:none;stroke:#ff0000;stroke-width:0.09127102;stroke-linecap:butt;stroke-linejoin:miter;stroke-miterlimit:4;stroke-opacity:1;stroke-dasharray:none"
         d="m 1135.5505,1007.8901 c 0,5.9685 -4.7233,10.8069 -10.5498,10.8069 -5.8264,0 -10.5497,-4.8384 -10.5497,-10.8069 0,-5.9685 4.7233,-10.80697 10.5497,-10.80697 5.8265,0 10.5498,4.83847 10.5498,10.80697 z"
         sodipodi:cx="1125.0007"
         sodipodi:cy="1007.8901"
         sodipodi:rx="10.549734"
         sodipodi:ry="10.806951"
         transform="translate(22.5,-1327.5)" />
      <rect
         ry="20.00104"
         y="-364.03937"
         x="157.55835"
         height="88.85881"
         width="1213.8879"
         id="rect3344"
         style="fill:none;stroke:#ff0000;stroke-width:0.08538087;stroke-linecap:butt;stroke-linejoin:miter;stroke-miterlimit:4;stroke-opacity:1;stroke-dasharray:none" />
    </g>
  </g>
</svg>
