<?xml version="1.0" encoding="UTF-8" standalone="no"?>
<!-- Created with Inkscape (http://www.inkscape.org/) -->

<svg
   xmlns:dc="http://purl.org/dc/elements/1.1/"
   xmlns:cc="http://creativecommons.org/ns#"
   xmlns:rdf="http://www.w3.org/1999/02/22-rdf-syntax-ns#"
   xmlns:svg="http://www.w3.org/2000/svg"
   xmlns="http://www.w3.org/2000/svg"
   xmlns:xlink="http://www.w3.org/1999/xlink"
   xmlns:sodipodi="http://sodipodi.sourceforge.net/DTD/sodipodi-0.dtd"
   xmlns:inkscape="http://www.inkscape.org/namespaces/inkscape"
   width="720"
   height="1012.5"
   id="svg2"
   version="1.1"
   inkscape:version="0.48.4 r9939"
   sodipodi:docname="Circuit Board Level 3.svg">
  <defs
     id="defs4" />
  <sodipodi:namedview
     id="base"
     pagecolor="#ffffff"
     bordercolor="#666666"
     borderopacity="1.0"
     inkscape:pageopacity="0.0"
     inkscape:pageshadow="2"
     inkscape:zoom="1.4"
     inkscape:cx="347.73369"
     inkscape:cy="734.44924"
     inkscape:document-units="cm"
     inkscape:current-layer="layer1"
     showgrid="false"
     units="in"
     inkscape:window-width="1366"
     inkscape:window-height="705"
     inkscape:window-x="-8"
     inkscape:window-y="-8"
     inkscape:window-maximized="1" />
  <metadata
     id="metadata7">
    <rdf:RDF>
      <cc:Work
         rdf:about="">
        <dc:format>image/svg+xml</dc:format>
        <dc:type
           rdf:resource="http://purl.org/dc/dcmitype/StillImage" />
        <dc:title />
      </cc:Work>
    </rdf:RDF>
  </metadata>
  <g
     inkscape:label="Layer 1"
     inkscape:groupmode="layer"
     id="layer1"
     transform="translate(0,-39.85975)">
    <path
       sodipodi:type="arc"
       style="fill:none;stroke:#ff0000;stroke-width:0.13575274;stroke-linejoin:miter;stroke-miterlimit:4;stroke-opacity:1;stroke-dasharray:none;stroke-dashoffset:0"
       id="path2985"
       sodipodi:cx="361.42856"
       sodipodi:cy="493.92856"
       sodipodi:rx="127.14286"
       sodipodi:ry="81.428574"
       d="m 488.57142,493.92856 c 0,44.97176 -56.9238,81.42857 -127.14286,81.42857 -70.21906,0 -127.14286,-36.45681 -127.14286,-81.42857 0,-44.97176 56.9238,-81.42858 127.14286,-81.42858 70.21906,0 127.14286,36.45682 127.14286,81.42858 z"
       transform="matrix(0.53057431,0,0,0.82840292,168.23529,136.93789)" />
    <path
       sodipodi:type="arc"
       style="fill:none;stroke:#ff0000;stroke-width:0.09155396;stroke-linejoin:miter;stroke-miterlimit:4;stroke-opacity:1;stroke-dasharray:none;stroke-dashoffset:0"
       id="path2987"
       sodipodi:cx="585.71429"
       sodipodi:cy="946.78571"
       sodipodi:rx="45.714287"
       sodipodi:ry="45.714287"
       d="m 631.42858,946.78571 a 45.714287,45.714287 0 1 1 -91.42857,0 45.714287,45.714287 0 1 1 91.42857,0 z"
       transform="matrix(0.98288557,0,0,1.2952557,25.818811,-302.04977)" />
    <rect
       style="fill:none;stroke:#ff0000;stroke-width:0.09;stroke-linejoin:miter;stroke-miterlimit:4;stroke-opacity:1;stroke-dasharray:none;stroke-dashoffset:0"
       id="rect2989"
       width="719.8858"
       height="1012.3776"
       x="0.057102606"
       y="39.923611"
       ry="27.774817" />
    <g
       id="g3036"
       transform="translate(-1.3452572,-935.00329)"
       inkscape:tile-cx="20.500427"
       inkscape:tile-cy="31.996748"
       inkscape:tile-w="8.8758621"
       inkscape:tile-h="44.881576"
       inkscape:tile-x0="16.062496"
       inkscape:tile-y0="9.5559604">
      <rect
         ry="0"
         y="1023.4158"
         x="24.0625"
         height="8.8815145"
         width="8.8758583"
         id="rect2993"
         style="fill:none;stroke:#ff0000;stroke-width:0.05160245;stroke-linejoin:miter;stroke-miterlimit:4;stroke-opacity:1;stroke-dasharray:none;stroke-dashoffset:0" />
      <rect
         ry="0"
         y="987.41571"
         x="24.062496"
         height="8.8815174"
         width="8.8750095"
         id="rect2993-1"
         style="fill:none;stroke:#ff0000;stroke-width:0.05159999;stroke-linejoin:miter;stroke-miterlimit:4;stroke-opacity:1;stroke-dasharray:none;stroke-dashoffset:0" />
    </g>
    <use
       x="0"
       y="0"
       inkscape:tiled-clone-of="#g3036"
       xlink:href="#g3036"
       transform="translate(0,134.64473)"
       id="use5330"
       width="720"
       height="1012.5" />
    <use
       x="0"
       y="0"
       inkscape:tiled-clone-of="#g3036"
       xlink:href="#g3036"
       transform="translate(0,269.28945)"
       id="use5332"
       width="720"
       height="1012.5" />
    <use
       x="0"
       y="0"
       inkscape:tiled-clone-of="#g3036"
       xlink:href="#g3036"
       transform="translate(0,403.93418)"
       id="use5334"
       width="720"
       height="1012.5" />
    <use
       x="0"
       y="0"
       inkscape:tiled-clone-of="#g3036"
       xlink:href="#g3036"
       transform="translate(0,538.57891)"
       id="use5336"
       width="720"
       height="1012.5" />
    <use
       x="0"
       y="0"
       inkscape:tiled-clone-of="#g3036"
       xlink:href="#g3036"
       transform="translate(0,673.22363)"
       id="use5338"
       width="720"
       height="1012.5" />
    <use
       x="0"
       y="0"
       inkscape:tiled-clone-of="#g3036"
       xlink:href="#g3036"
       transform="translate(0,807.86836)"
       id="use5340"
       width="720"
       height="1012.5" />
    <use
       x="0"
       y="0"
       inkscape:tiled-clone-of="#g3036"
       xlink:href="#g3036"
       transform="translate(0,942.51309)"
       id="use5342"
       width="720"
       height="1012.5" />
    <use
       x="0"
       y="0"
       inkscape:tiled-clone-of="#g3036"
       xlink:href="#g3036"
       transform="translate(26.627586,0)"
       id="use5348"
       width="720"
       height="1012.5" />
    <use
       x="0"
       y="0"
       inkscape:tiled-clone-of="#g3036"
       xlink:href="#g3036"
       transform="translate(26.627586,134.64473)"
       id="use5350"
       width="720"
       height="1012.5" />
    <use
       x="0"
       y="0"
       inkscape:tiled-clone-of="#g3036"
       xlink:href="#g3036"
       transform="translate(26.627586,269.28945)"
       id="use5352"
       width="720"
       height="1012.5" />
    <use
       x="0"
       y="0"
       inkscape:tiled-clone-of="#g3036"
       xlink:href="#g3036"
       transform="translate(26.627586,403.93418)"
       id="use5354"
       width="720"
       height="1012.5" />
    <use
       x="0"
       y="0"
       inkscape:tiled-clone-of="#g3036"
       xlink:href="#g3036"
       transform="translate(26.627586,538.57891)"
       id="use5356"
       width="720"
       height="1012.5" />
    <use
       x="0"
       y="0"
       inkscape:tiled-clone-of="#g3036"
       xlink:href="#g3036"
       transform="translate(26.627586,673.22363)"
       id="use5358"
       width="720"
       height="1012.5" />
    <use
       x="0"
       y="0"
       inkscape:tiled-clone-of="#g3036"
       xlink:href="#g3036"
       transform="translate(26.627586,807.86836)"
       id="use5360"
       width="720"
       height="1012.5" />
    <use
       x="0"
       y="0"
       inkscape:tiled-clone-of="#g3036"
       xlink:href="#g3036"
       transform="translate(26.627586,942.51309)"
       id="use5362"
       width="720"
       height="1012.5" />
    <use
       x="0"
       y="0"
       inkscape:tiled-clone-of="#g3036"
       xlink:href="#g3036"
       transform="translate(53.255173,0)"
       id="use5368"
       width="720"
       height="1012.5" />
    <use
       x="0"
       y="0"
       inkscape:tiled-clone-of="#g3036"
       xlink:href="#g3036"
       transform="translate(53.255173,134.64473)"
       id="use5370"
       width="720"
       height="1012.5" />
    <use
       x="0"
       y="0"
       inkscape:tiled-clone-of="#g3036"
       xlink:href="#g3036"
       transform="translate(53.255173,269.28945)"
       id="use5372"
       width="720"
       height="1012.5" />
    <use
       x="0"
       y="0"
       inkscape:tiled-clone-of="#g3036"
       xlink:href="#g3036"
       transform="translate(53.255173,403.93418)"
       id="use5374"
       width="720"
       height="1012.5" />
    <use
       x="0"
       y="0"
       inkscape:tiled-clone-of="#g3036"
       xlink:href="#g3036"
       transform="translate(53.255173,538.57891)"
       id="use5376"
       width="720"
       height="1012.5" />
    <use
       x="0"
       y="0"
       inkscape:tiled-clone-of="#g3036"
       xlink:href="#g3036"
       transform="translate(53.255173,673.22363)"
       id="use5378"
       width="720"
       height="1012.5" />
    <use
       x="0"
       y="0"
       inkscape:tiled-clone-of="#g3036"
       xlink:href="#g3036"
       transform="translate(53.255173,807.86836)"
       id="use5380"
       width="720"
       height="1012.5" />
    <use
       x="0"
       y="0"
       inkscape:tiled-clone-of="#g3036"
       xlink:href="#g3036"
       transform="translate(53.255173,942.51309)"
       id="use5382"
       width="720"
       height="1012.5" />
    <use
       x="0"
       y="0"
       inkscape:tiled-clone-of="#g3036"
       xlink:href="#g3036"
       transform="translate(79.882759,0)"
       id="use5388"
       width="720"
       height="1012.5" />
    <use
       x="0"
       y="0"
       inkscape:tiled-clone-of="#g3036"
       xlink:href="#g3036"
       transform="translate(79.882759,134.64473)"
       id="use5390"
       width="720"
       height="1012.5" />
    <use
       x="0"
       y="0"
       inkscape:tiled-clone-of="#g3036"
       xlink:href="#g3036"
       transform="translate(79.882759,269.28945)"
       id="use5392"
       width="720"
       height="1012.5" />
    <use
       x="0"
       y="0"
       inkscape:tiled-clone-of="#g3036"
       xlink:href="#g3036"
       transform="translate(79.882759,403.93418)"
       id="use5394"
       width="720"
       height="1012.5" />
    <use
       x="0"
       y="0"
       inkscape:tiled-clone-of="#g3036"
       xlink:href="#g3036"
       transform="translate(79.882759,538.57891)"
       id="use5396"
       width="720"
       height="1012.5" />
    <use
       x="0"
       y="0"
       inkscape:tiled-clone-of="#g3036"
       xlink:href="#g3036"
       transform="translate(79.882759,673.22363)"
       id="use5398"
       width="720"
       height="1012.5" />
    <use
       x="0"
       y="0"
       inkscape:tiled-clone-of="#g3036"
       xlink:href="#g3036"
       transform="translate(79.882759,807.86836)"
       id="use5400"
       width="720"
       height="1012.5" />
    <use
       x="0"
       y="0"
       inkscape:tiled-clone-of="#g3036"
       xlink:href="#g3036"
       transform="translate(79.882759,942.51309)"
       id="use5402"
       width="720"
       height="1012.5" />
    <use
       x="0"
       y="0"
       inkscape:tiled-clone-of="#g3036"
       xlink:href="#g3036"
       transform="translate(106.51035,0)"
       id="use5408"
       width="720"
       height="1012.5" />
    <use
       x="0"
       y="0"
       inkscape:tiled-clone-of="#g3036"
       xlink:href="#g3036"
       transform="translate(106.51035,134.64473)"
       id="use5410"
       width="720"
       height="1012.5" />
    <use
       x="0"
       y="0"
       inkscape:tiled-clone-of="#g3036"
       xlink:href="#g3036"
       transform="translate(106.51035,269.28945)"
       id="use5412"
       width="720"
       height="1012.5" />
    <use
       x="0"
       y="0"
       inkscape:tiled-clone-of="#g3036"
       xlink:href="#g3036"
       transform="translate(106.51035,403.93418)"
       id="use5414"
       width="720"
       height="1012.5" />
    <use
       x="0"
       y="0"
       inkscape:tiled-clone-of="#g3036"
       xlink:href="#g3036"
       transform="translate(106.51035,538.57891)"
       id="use5416"
       width="720"
       height="1012.5" />
    <use
       x="0"
       y="0"
       inkscape:tiled-clone-of="#g3036"
       xlink:href="#g3036"
       transform="translate(106.51035,673.22363)"
       id="use5418"
       width="720"
       height="1012.5" />
    <use
       x="0"
       y="0"
       inkscape:tiled-clone-of="#g3036"
       xlink:href="#g3036"
       transform="translate(106.51035,807.86836)"
       id="use5420"
       width="720"
       height="1012.5" />
    <use
       x="0"
       y="0"
       inkscape:tiled-clone-of="#g3036"
       xlink:href="#g3036"
       transform="translate(106.51035,942.51309)"
       id="use5422"
       width="720"
       height="1012.5" />
    <use
       x="0"
       y="0"
       inkscape:tiled-clone-of="#g3036"
       xlink:href="#g3036"
       transform="translate(133.13793,0)"
       id="use5428"
       width="720"
       height="1012.5" />
    <use
       x="0"
       y="0"
       inkscape:tiled-clone-of="#g3036"
       xlink:href="#g3036"
       transform="translate(133.13793,134.64473)"
       id="use5430"
       width="720"
       height="1012.5" />
    <use
       x="0"
       y="0"
       inkscape:tiled-clone-of="#g3036"
       xlink:href="#g3036"
       transform="translate(133.13793,269.28945)"
       id="use5432"
       width="720"
       height="1012.5" />
    <use
       x="0"
       y="0"
       inkscape:tiled-clone-of="#g3036"
       xlink:href="#g3036"
       transform="translate(133.13793,403.93418)"
       id="use5434"
       width="720"
       height="1012.5" />
    <use
       x="0"
       y="0"
       inkscape:tiled-clone-of="#g3036"
       xlink:href="#g3036"
       transform="translate(133.13793,538.57891)"
       id="use5436"
       width="720"
       height="1012.5" />
    <use
       x="0"
       y="0"
       inkscape:tiled-clone-of="#g3036"
       xlink:href="#g3036"
       transform="translate(133.13793,673.22363)"
       id="use5438"
       width="720"
       height="1012.5" />
    <use
       x="0"
       y="0"
       inkscape:tiled-clone-of="#g3036"
       xlink:href="#g3036"
       transform="translate(133.13793,807.86836)"
       id="use5440"
       width="720"
       height="1012.5" />
    <use
       x="0"
       y="0"
       inkscape:tiled-clone-of="#g3036"
       xlink:href="#g3036"
       transform="translate(133.13793,942.51309)"
       id="use5442"
       width="720"
       height="1012.5" />
    <use
       x="0"
       y="0"
       inkscape:tiled-clone-of="#g3036"
       xlink:href="#g3036"
       transform="translate(159.76552,0)"
       id="use5448"
       width="720"
       height="1012.5" />
    <use
       x="0"
       y="0"
       inkscape:tiled-clone-of="#g3036"
       xlink:href="#g3036"
       transform="translate(159.76552,134.64473)"
       id="use5450"
       width="720"
       height="1012.5" />
    <use
       x="0"
       y="0"
       inkscape:tiled-clone-of="#g3036"
       xlink:href="#g3036"
       transform="translate(159.76552,269.28945)"
       id="use5452"
       width="720"
       height="1012.5" />
    <use
       x="0"
       y="0"
       inkscape:tiled-clone-of="#g3036"
       xlink:href="#g3036"
       transform="translate(159.76552,403.93418)"
       id="use5454"
       width="720"
       height="1012.5" />
    <use
       x="0"
       y="0"
       inkscape:tiled-clone-of="#g3036"
       xlink:href="#g3036"
       transform="translate(159.76552,538.57891)"
       id="use5456"
       width="720"
       height="1012.5" />
    <use
       x="0"
       y="0"
       inkscape:tiled-clone-of="#g3036"
       xlink:href="#g3036"
       transform="translate(159.76552,673.22363)"
       id="use5458"
       width="720"
       height="1012.5" />
    <use
       x="0"
       y="0"
       inkscape:tiled-clone-of="#g3036"
       xlink:href="#g3036"
       transform="translate(159.76552,807.86836)"
       id="use5460"
       width="720"
       height="1012.5" />
    <use
       x="0"
       y="0"
       inkscape:tiled-clone-of="#g3036"
       xlink:href="#g3036"
       transform="translate(159.76552,942.51309)"
       id="use5462"
       width="720"
       height="1012.5" />
    <use
       x="0"
       y="0"
       inkscape:tiled-clone-of="#g3036"
       xlink:href="#g3036"
       transform="translate(186.3931,0)"
       id="use5468"
       width="720"
       height="1012.5" />
    <use
       x="0"
       y="0"
       inkscape:tiled-clone-of="#g3036"
       xlink:href="#g3036"
       transform="translate(186.3931,134.64473)"
       id="use5470"
       width="720"
       height="1012.5" />
    <use
       x="0"
       y="0"
       inkscape:tiled-clone-of="#g3036"
       xlink:href="#g3036"
       transform="translate(186.3931,269.28945)"
       id="use5472"
       width="720"
       height="1012.5" />
    <use
       x="0"
       y="0"
       inkscape:tiled-clone-of="#g3036"
       xlink:href="#g3036"
       transform="translate(186.3931,403.93418)"
       id="use5474"
       width="720"
       height="1012.5" />
    <use
       x="0"
       y="0"
       inkscape:tiled-clone-of="#g3036"
       xlink:href="#g3036"
       transform="translate(186.3931,538.57891)"
       id="use5476"
       width="720"
       height="1012.5" />
    <use
       x="0"
       y="0"
       inkscape:tiled-clone-of="#g3036"
       xlink:href="#g3036"
       transform="translate(186.3931,673.22363)"
       id="use5478"
       width="720"
       height="1012.5" />
    <use
       x="0"
       y="0"
       inkscape:tiled-clone-of="#g3036"
       xlink:href="#g3036"
       transform="translate(186.3931,807.86836)"
       id="use5480"
       width="720"
       height="1012.5" />
    <use
       x="0"
       y="0"
       inkscape:tiled-clone-of="#g3036"
       xlink:href="#g3036"
       transform="translate(186.3931,942.51309)"
       id="use5482"
       width="720"
       height="1012.5" />
    <use
       x="0"
       y="0"
       inkscape:tiled-clone-of="#g3036"
       xlink:href="#g3036"
       transform="translate(213.02069,0)"
       id="use5488"
       width="720"
       height="1012.5" />
    <use
       x="0"
       y="0"
       inkscape:tiled-clone-of="#g3036"
       xlink:href="#g3036"
       transform="translate(213.02069,134.64473)"
       id="use5490"
       width="720"
       height="1012.5" />
    <use
       x="0"
       y="0"
       inkscape:tiled-clone-of="#g3036"
       xlink:href="#g3036"
       transform="translate(213.02069,269.28945)"
       id="use5492"
       width="720"
       height="1012.5" />
    <use
       x="0"
       y="0"
       inkscape:tiled-clone-of="#g3036"
       xlink:href="#g3036"
       transform="translate(213.02069,403.93418)"
       id="use5494"
       width="720"
       height="1012.5" />
    <use
       x="0"
       y="0"
       inkscape:tiled-clone-of="#g3036"
       xlink:href="#g3036"
       transform="translate(213.02069,538.57891)"
       id="use5496"
       width="720"
       height="1012.5" />
    <use
       x="0"
       y="0"
       inkscape:tiled-clone-of="#g3036"
       xlink:href="#g3036"
       transform="translate(213.02069,673.22363)"
       id="use5498"
       width="720"
       height="1012.5" />
    <use
       x="0"
       y="0"
       inkscape:tiled-clone-of="#g3036"
       xlink:href="#g3036"
       transform="translate(213.02069,807.86836)"
       id="use5500"
       width="720"
       height="1012.5" />
    <use
       x="0"
       y="0"
       inkscape:tiled-clone-of="#g3036"
       xlink:href="#g3036"
       transform="translate(213.02069,942.51309)"
       id="use5502"
       width="720"
       height="1012.5" />
    <use
       x="0"
       y="0"
       inkscape:tiled-clone-of="#g3036"
       xlink:href="#g3036"
       transform="translate(239.64828,0)"
       id="use5508"
       width="720"
       height="1012.5" />
    <use
       x="0"
       y="0"
       inkscape:tiled-clone-of="#g3036"
       xlink:href="#g3036"
       transform="translate(239.64828,134.64473)"
       id="use5510"
       width="720"
       height="1012.5" />
    <use
       x="0"
       y="0"
       inkscape:tiled-clone-of="#g3036"
       xlink:href="#g3036"
       transform="translate(239.64828,269.28945)"
       id="use5512"
       width="720"
       height="1012.5" />
    <use
       x="0"
       y="0"
       inkscape:tiled-clone-of="#g3036"
       xlink:href="#g3036"
       transform="translate(239.64828,403.93418)"
       id="use5514"
       width="720"
       height="1012.5" />
    <use
       x="0"
       y="0"
       inkscape:tiled-clone-of="#g3036"
       xlink:href="#g3036"
       transform="translate(239.64828,538.57891)"
       id="use5516"
       width="720"
       height="1012.5" />
    <use
       x="0"
       y="0"
       inkscape:tiled-clone-of="#g3036"
       xlink:href="#g3036"
       transform="translate(239.64828,673.22363)"
       id="use5518"
       width="720"
       height="1012.5" />
    <use
       x="0"
       y="0"
       inkscape:tiled-clone-of="#g3036"
       xlink:href="#g3036"
       transform="translate(239.64828,807.86836)"
       id="use5520"
       width="720"
       height="1012.5" />
    <use
       x="0"
       y="0"
       inkscape:tiled-clone-of="#g3036"
       xlink:href="#g3036"
       transform="translate(239.64828,942.51309)"
       id="use5522"
       width="720"
       height="1012.5" />
    <use
       x="0"
       y="0"
       inkscape:tiled-clone-of="#g3036"
       xlink:href="#g3036"
       transform="translate(266.27586,134.64473)"
       id="use5530"
       width="720"
       height="1012.5" />
    <use
       x="0"
       y="0"
       inkscape:tiled-clone-of="#g3036"
       xlink:href="#g3036"
       transform="translate(266.27586,269.28945)"
       id="use5532"
       width="720"
       height="1012.5" />
    <use
       x="0"
       y="0"
       inkscape:tiled-clone-of="#g3036"
       xlink:href="#g3036"
       transform="translate(266.27586,403.93418)"
       id="use5534"
       width="720"
       height="1012.5" />
    <use
       x="0"
       y="0"
       inkscape:tiled-clone-of="#g3036"
       xlink:href="#g3036"
       transform="translate(266.27586,538.57891)"
       id="use5536"
       width="720"
       height="1012.5" />
    <use
       x="0"
       y="0"
       inkscape:tiled-clone-of="#g3036"
       xlink:href="#g3036"
       transform="translate(266.27586,673.22363)"
       id="use5538"
       width="720"
       height="1012.5" />
    <use
       x="0"
       y="0"
       inkscape:tiled-clone-of="#g3036"
       xlink:href="#g3036"
       transform="translate(266.27586,807.86836)"
       id="use5540"
       width="720"
       height="1012.5" />
    <use
       x="0"
       y="0"
       inkscape:tiled-clone-of="#g3036"
       xlink:href="#g3036"
       transform="translate(292.90345,134.64473)"
       id="use5550"
       width="720"
       height="1012.5" />
    <use
       x="0"
       y="0"
       inkscape:tiled-clone-of="#g3036"
       xlink:href="#g3036"
       transform="translate(292.90345,269.28945)"
       id="use5552"
       width="720"
       height="1012.5" />
    <rect
       ry="0"
       y="456.34659"
       x="315.6207"
       height="8.8815174"
       width="8.8750095"
       id="rect6318"
       style="fill:none;stroke:#ff0000;stroke-width:0.05159999;stroke-linejoin:miter;stroke-miterlimit:4;stroke-opacity:1;stroke-dasharray:none;stroke-dashoffset:0" />
    <rect
       ry="0"
       y="626.99139"
       x="-324.49655"
       height="8.8815145"
       width="8.8758583"
       id="rect6274"
       style="fill:none;stroke:#ff0000;stroke-width:0.05160245;stroke-linejoin:miter;stroke-miterlimit:4;stroke-opacity:1;stroke-dasharray:none;stroke-dashoffset:0"
       transform="scale(-1,1)" />
    <use
       x="0"
       y="0"
       inkscape:tiled-clone-of="#g3036"
       xlink:href="#g3036"
       transform="translate(292.90345,673.22363)"
       id="use5558"
       width="720"
       height="1012.5" />
    <use
       x="0"
       y="0"
       inkscape:tiled-clone-of="#g3036"
       xlink:href="#g3036"
       transform="translate(292.90345,807.86836)"
       id="use5560"
       width="720"
       height="1012.5" />
    <use
       x="0"
       y="0"
       inkscape:tiled-clone-of="#g3036"
       xlink:href="#g3036"
       transform="translate(319.53104,134.64473)"
       id="use5570"
       width="720"
       height="1012.5" />
    <use
       x="0"
       y="0"
       inkscape:tiled-clone-of="#g3036"
       xlink:href="#g3036"
       transform="translate(319.53104,269.28945)"
       id="use5572"
       width="720"
       height="1012.5" />
    <rect
       ry="0"
       y="456.34659"
       x="342.24829"
       height="8.8815174"
       width="8.8750095"
       id="rect6312"
       style="fill:none;stroke:#ff0000;stroke-width:0.05159999;stroke-linejoin:miter;stroke-miterlimit:4;stroke-opacity:1;stroke-dasharray:none;stroke-dashoffset:0" />
    <rect
       ry="0"
       y="626.99139"
       x="342.24829"
       height="8.8815145"
       width="8.8758583"
       id="rect6280"
       style="fill:none;stroke:#ff0000;stroke-width:0.05160245;stroke-linejoin:miter;stroke-miterlimit:4;stroke-opacity:1;stroke-dasharray:none;stroke-dashoffset:0" />
    <use
       x="0"
       y="0"
       inkscape:tiled-clone-of="#g3036"
       xlink:href="#g3036"
       transform="translate(319.53104,673.22363)"
       id="use5578"
       width="720"
       height="1012.5" />
    <use
       x="0"
       y="0"
       inkscape:tiled-clone-of="#g3036"
       xlink:href="#g3036"
       transform="translate(319.53104,807.86836)"
       id="use5580"
       width="720"
       height="1012.5" />
    <use
       x="0"
       y="0"
       inkscape:tiled-clone-of="#g3036"
       xlink:href="#g3036"
       transform="translate(346.15862,134.64473)"
       id="use5590"
       width="720"
       height="1012.5" />
    <use
       x="0"
       y="0"
       inkscape:tiled-clone-of="#g3036"
       xlink:href="#g3036"
       transform="translate(346.15862,269.28945)"
       id="use5592"
       width="720"
       height="1012.5" />
    <rect
       ry="0"
       y="456.34659"
       x="368.87585"
       height="8.8815174"
       width="8.8750095"
       id="rect6306"
       style="fill:none;stroke:#ff0000;stroke-width:0.05159999;stroke-linejoin:miter;stroke-miterlimit:4;stroke-opacity:1;stroke-dasharray:none;stroke-dashoffset:0" />
    <rect
       ry="0"
       y="626.99139"
       x="368.87585"
       height="8.8815145"
       width="8.8758583"
       id="rect6286"
       style="fill:none;stroke:#ff0000;stroke-width:0.05160245;stroke-linejoin:miter;stroke-miterlimit:4;stroke-opacity:1;stroke-dasharray:none;stroke-dashoffset:0" />
    <use
       x="0"
       y="0"
       inkscape:tiled-clone-of="#g3036"
       xlink:href="#g3036"
       transform="translate(346.15862,673.22363)"
       id="use5598"
       width="720"
       height="1012.5" />
    <use
       x="0"
       y="0"
       inkscape:tiled-clone-of="#g3036"
       xlink:href="#g3036"
       transform="translate(346.15862,807.86836)"
       id="use5600"
       width="720"
       height="1012.5" />
    <use
       x="0"
       y="0"
       inkscape:tiled-clone-of="#g3036"
       xlink:href="#g3036"
       transform="translate(372.78621,134.64473)"
       id="use5610"
       width="720"
       height="1012.5" />
    <use
       x="0"
       y="0"
       inkscape:tiled-clone-of="#g3036"
       xlink:href="#g3036"
       transform="translate(372.78621,269.28945)"
       id="use5612"
       width="720"
       height="1012.5" />
    <rect
       ry="0"
       y="456.34659"
       x="395.50345"
       height="8.8815174"
       width="8.8750095"
       id="rect6300"
       style="fill:none;stroke:#ff0000;stroke-width:0.05159999;stroke-linejoin:miter;stroke-miterlimit:4;stroke-opacity:1;stroke-dasharray:none;stroke-dashoffset:0" />
    <rect
       ry="0"
       y="626.99139"
       x="395.50345"
       height="8.8815145"
       width="8.8758583"
       id="rect6292"
       style="fill:none;stroke:#ff0000;stroke-width:0.05160245;stroke-linejoin:miter;stroke-miterlimit:4;stroke-opacity:1;stroke-dasharray:none;stroke-dashoffset:0" />
    <use
       x="0"
       y="0"
       inkscape:tiled-clone-of="#g3036"
       xlink:href="#g3036"
       transform="translate(372.78621,673.22363)"
       id="use5618"
       width="720"
       height="1012.5" />
    <use
       x="0"
       y="0"
       inkscape:tiled-clone-of="#g3036"
       xlink:href="#g3036"
       transform="translate(372.78621,807.86836)"
       id="use5620"
       width="720"
       height="1012.5" />
    <use
       x="0"
       y="0"
       inkscape:tiled-clone-of="#g3036"
       xlink:href="#g3036"
       transform="translate(399.4138,134.64473)"
       id="use5630"
       width="720"
       height="1012.5" />
    <use
       x="0"
       y="0"
       inkscape:tiled-clone-of="#g3036"
       xlink:href="#g3036"
       transform="translate(399.4138,269.28945)"
       id="use5632"
       width="720"
       height="1012.5" />
    <use
       x="0"
       y="0"
       inkscape:tiled-clone-of="#g3036"
       xlink:href="#g3036"
       transform="translate(399.4138,403.93418)"
       id="use5634"
       width="720"
       height="1012.5" />
    <use
       x="0"
       y="0"
       inkscape:tiled-clone-of="#g3036"
       xlink:href="#g3036"
       transform="translate(399.4138,538.57891)"
       id="use5636"
       width="720"
       height="1012.5" />
    <use
       x="0"
       y="0"
       inkscape:tiled-clone-of="#g3036"
       xlink:href="#g3036"
       transform="translate(399.4138,673.22363)"
       id="use5638"
       width="720"
       height="1012.5" />
    <use
       x="0"
       y="0"
       inkscape:tiled-clone-of="#g3036"
       xlink:href="#g3036"
       transform="translate(399.4138,807.86836)"
       id="use5640"
       width="720"
       height="1012.5" />
    <use
       x="0"
       y="0"
       inkscape:tiled-clone-of="#g3036"
       xlink:href="#g3036"
       transform="translate(426.04138,0)"
       id="use5648"
       width="720"
       height="1012.5" />
    <use
       x="0"
       y="0"
       inkscape:tiled-clone-of="#g3036"
       xlink:href="#g3036"
       transform="translate(426.04138,134.64473)"
       id="use5650"
       width="720"
       height="1012.5" />
    <use
       x="0"
       y="0"
       inkscape:tiled-clone-of="#g3036"
       xlink:href="#g3036"
       transform="translate(426.04138,269.28945)"
       id="use5652"
       width="720"
       height="1012.5" />
    <use
       x="0"
       y="0"
       inkscape:tiled-clone-of="#g3036"
       xlink:href="#g3036"
       transform="translate(426.04138,403.93418)"
       id="use5654"
       width="720"
       height="1012.5" />
    <use
       x="0"
       y="0"
       inkscape:tiled-clone-of="#g3036"
       xlink:href="#g3036"
       transform="translate(426.04138,538.57891)"
       id="use5656"
       width="720"
       height="1012.5" />
    <use
       x="0"
       y="0"
       inkscape:tiled-clone-of="#g3036"
       xlink:href="#g3036"
       transform="translate(426.04138,673.22363)"
       id="use5658"
       width="720"
       height="1012.5" />
    <use
       x="0"
       y="0"
       inkscape:tiled-clone-of="#g3036"
       xlink:href="#g3036"
       transform="translate(426.04138,807.86836)"
       id="use5660"
       width="720"
       height="1012.5" />
    <use
       x="0"
       y="0"
       inkscape:tiled-clone-of="#g3036"
       xlink:href="#g3036"
       transform="translate(426.04138,942.51309)"
       id="use5662"
       width="720"
       height="1012.5" />
    <use
       x="0"
       y="0"
       inkscape:tiled-clone-of="#g3036"
       xlink:href="#g3036"
       transform="translate(452.66897,0)"
       id="use5668"
       width="720"
       height="1012.5" />
    <use
       x="0"
       y="0"
       inkscape:tiled-clone-of="#g3036"
       xlink:href="#g3036"
       transform="translate(452.66897,134.64473)"
       id="use5670"
       width="720"
       height="1012.5" />
    <use
       x="0"
       y="0"
       inkscape:tiled-clone-of="#g3036"
       xlink:href="#g3036"
       transform="translate(452.66897,269.28945)"
       id="use5672"
       width="720"
       height="1012.5" />
    <use
       x="0"
       y="0"
       inkscape:tiled-clone-of="#g3036"
       xlink:href="#g3036"
       transform="translate(452.66897,403.93418)"
       id="use5674"
       width="720"
       height="1012.5" />
    <use
       x="0"
       y="0"
       inkscape:tiled-clone-of="#g3036"
       xlink:href="#g3036"
       transform="translate(452.66897,538.57891)"
       id="use5676"
       width="720"
       height="1012.5" />
    <use
       x="0"
       y="0"
       inkscape:tiled-clone-of="#g3036"
       xlink:href="#g3036"
       transform="translate(452.66897,673.22363)"
       id="use5678"
       width="720"
       height="1012.5" />
    <use
       x="0"
       y="0"
       inkscape:tiled-clone-of="#g3036"
       xlink:href="#g3036"
       transform="translate(452.66897,807.86836)"
       id="use5680"
       width="720"
       height="1012.5" />
    <use
       x="0"
       y="0"
       inkscape:tiled-clone-of="#g3036"
       xlink:href="#g3036"
       transform="translate(452.66897,942.51309)"
       id="use5682"
       width="720"
       height="1012.5" />
    <use
       x="0"
       y="0"
       inkscape:tiled-clone-of="#g3036"
       xlink:href="#g3036"
       transform="translate(479.29655,0)"
       id="use5688"
       width="720"
       height="1012.5" />
    <use
       x="0"
       y="0"
       inkscape:tiled-clone-of="#g3036"
       xlink:href="#g3036"
       transform="translate(479.29655,134.64473)"
       id="use5690"
       width="720"
       height="1012.5" />
    <use
       x="0"
       y="0"
       inkscape:tiled-clone-of="#g3036"
       xlink:href="#g3036"
       transform="translate(479.29655,269.28945)"
       id="use5692"
       width="720"
       height="1012.5" />
    <use
       x="0"
       y="0"
       inkscape:tiled-clone-of="#g3036"
       xlink:href="#g3036"
       transform="translate(479.29655,403.93418)"
       id="use5694"
       width="720"
       height="1012.5" />
    <use
       x="0"
       y="0"
       inkscape:tiled-clone-of="#g3036"
       xlink:href="#g3036"
       transform="translate(479.29655,538.57891)"
       id="use5696"
       width="720"
       height="1012.5" />
    <use
       x="0"
       y="0"
       inkscape:tiled-clone-of="#g3036"
       xlink:href="#g3036"
       transform="translate(479.29655,673.22363)"
       id="use5698"
       width="720"
       height="1012.5" />
    <use
       x="0"
       y="0"
       inkscape:tiled-clone-of="#g3036"
       xlink:href="#g3036"
       transform="translate(479.29655,807.86836)"
       id="use5700"
       width="720"
       height="1012.5" />
    <use
       x="0"
       y="0"
       inkscape:tiled-clone-of="#g3036"
       xlink:href="#g3036"
       transform="translate(479.29655,942.51309)"
       id="use5702"
       width="720"
       height="1012.5" />
    <use
       x="0"
       y="0"
       inkscape:tiled-clone-of="#g3036"
       xlink:href="#g3036"
       transform="translate(505.92414,0)"
       id="use5708"
       width="720"
       height="1012.5" />
    <use
       x="0"
       y="0"
       inkscape:tiled-clone-of="#g3036"
       xlink:href="#g3036"
       transform="translate(505.92414,134.64473)"
       id="use5710"
       width="720"
       height="1012.5" />
    <use
       x="0"
       y="0"
       inkscape:tiled-clone-of="#g3036"
       xlink:href="#g3036"
       transform="translate(505.92414,269.28945)"
       id="use5712"
       width="720"
       height="1012.5" />
    <use
       x="0"
       y="0"
       inkscape:tiled-clone-of="#g3036"
       xlink:href="#g3036"
       transform="translate(505.92414,403.93418)"
       id="use5714"
       width="720"
       height="1012.5" />
    <use
       x="0"
       y="0"
       inkscape:tiled-clone-of="#g3036"
       xlink:href="#g3036"
       transform="translate(505.92414,538.57891)"
       id="use5716"
       width="720"
       height="1012.5" />
    <use
       x="0"
       y="0"
       inkscape:tiled-clone-of="#g3036"
       xlink:href="#g3036"
       transform="translate(505.92414,673.22363)"
       id="use5718"
       width="720"
       height="1012.5" />
    <use
       x="0"
       y="0"
       inkscape:tiled-clone-of="#g3036"
       xlink:href="#g3036"
       transform="translate(505.92414,807.86836)"
       id="use5720"
       width="720"
       height="1012.5" />
    <use
       x="0"
       y="0"
       inkscape:tiled-clone-of="#g3036"
       xlink:href="#g3036"
       transform="translate(505.92414,942.51309)"
       id="use5722"
       width="720"
       height="1012.5" />
    <use
       x="0"
       y="0"
       inkscape:tiled-clone-of="#g3036"
       xlink:href="#g3036"
       transform="translate(532.55173,0)"
       id="use5728"
       width="720"
       height="1012.5" />
    <use
       x="0"
       y="0"
       inkscape:tiled-clone-of="#g3036"
       xlink:href="#g3036"
       transform="translate(532.55173,134.64473)"
       id="use5730"
       width="720"
       height="1012.5" />
    <use
       x="0"
       y="0"
       inkscape:tiled-clone-of="#g3036"
       xlink:href="#g3036"
       transform="translate(532.55173,269.28945)"
       id="use5732"
       width="720"
       height="1012.5" />
    <use
       x="0"
       y="0"
       inkscape:tiled-clone-of="#g3036"
       xlink:href="#g3036"
       transform="translate(532.55173,403.93418)"
       id="use5734"
       width="720"
       height="1012.5" />
    <use
       x="0"
       y="0"
       inkscape:tiled-clone-of="#g3036"
       xlink:href="#g3036"
       transform="translate(532.55173,538.57891)"
       id="use5736"
       width="720"
       height="1012.5" />
    <use
       x="0"
       y="0"
       inkscape:tiled-clone-of="#g3036"
       xlink:href="#g3036"
       transform="translate(532.55173,673.22363)"
       id="use5738"
       width="720"
       height="1012.5" />
    <rect
       ry="0"
       y="860.28076"
       x="555.26898"
       height="8.8815174"
       width="8.8750095"
       id="rect6360"
       style="fill:none;stroke:#ff0000;stroke-width:0.05159999;stroke-linejoin:miter;stroke-miterlimit:4;stroke-opacity:1;stroke-dasharray:none;stroke-dashoffset:0" />
    <use
       x="0"
       y="0"
       inkscape:tiled-clone-of="#g3036"
       xlink:href="#g3036"
       transform="translate(532.55173,942.51309)"
       id="use5742"
       width="720"
       height="1012.5" />
    <use
       x="0"
       y="0"
       inkscape:tiled-clone-of="#g3036"
       xlink:href="#g3036"
       transform="translate(559.17931,0)"
       id="use5748"
       width="720"
       height="1012.5" />
    <use
       x="0"
       y="0"
       inkscape:tiled-clone-of="#g3036"
       xlink:href="#g3036"
       transform="translate(559.17931,134.64473)"
       id="use5750"
       width="720"
       height="1012.5" />
    <use
       x="0"
       y="0"
       inkscape:tiled-clone-of="#g3036"
       xlink:href="#g3036"
       transform="translate(559.17931,269.28945)"
       id="use5752"
       width="720"
       height="1012.5" />
    <use
       x="0"
       y="0"
       inkscape:tiled-clone-of="#g3036"
       xlink:href="#g3036"
       transform="translate(559.17931,403.93418)"
       id="use5754"
       width="720"
       height="1012.5" />
    <use
       x="0"
       y="0"
       inkscape:tiled-clone-of="#g3036"
       xlink:href="#g3036"
       transform="translate(559.17931,538.57891)"
       id="use5756"
       width="720"
       height="1012.5" />
    <use
       x="0"
       y="0"
       inkscape:tiled-clone-of="#g3036"
       xlink:href="#g3036"
       transform="translate(559.17931,673.22363)"
       id="use5758"
       width="720"
       height="1012.5" />
    <use
       x="0"
       y="0"
       inkscape:tiled-clone-of="#g3036"
       xlink:href="#g3036"
       transform="translate(559.17931,942.51309)"
       id="use5762"
       width="720"
       height="1012.5" />
    <use
       x="0"
       y="0"
       inkscape:tiled-clone-of="#g3036"
       xlink:href="#g3036"
       transform="translate(585.8069,0)"
       id="use5768"
       width="720"
       height="1012.5" />
    <use
       x="0"
       y="0"
       inkscape:tiled-clone-of="#g3036"
       xlink:href="#g3036"
       transform="translate(585.8069,134.64473)"
       id="use5770"
       width="720"
       height="1012.5" />
    <use
       x="0"
       y="0"
       inkscape:tiled-clone-of="#g3036"
       xlink:href="#g3036"
       transform="translate(585.8069,269.28945)"
       id="use5772"
       width="720"
       height="1012.5" />
    <use
       x="0"
       y="0"
       inkscape:tiled-clone-of="#g3036"
       xlink:href="#g3036"
       transform="translate(585.8069,403.93418)"
       id="use5774"
       width="720"
       height="1012.5" />
    <use
       x="0"
       y="0"
       inkscape:tiled-clone-of="#g3036"
       xlink:href="#g3036"
       transform="translate(585.8069,538.57891)"
       id="use5776"
       width="720"
       height="1012.5" />
    <use
       x="0"
       y="0"
       inkscape:tiled-clone-of="#g3036"
       xlink:href="#g3036"
       transform="translate(585.8069,673.22363)"
       id="use5778"
       width="720"
       height="1012.5" />
    <use
       x="0"
       y="0"
       inkscape:tiled-clone-of="#g3036"
       xlink:href="#g3036"
       transform="translate(585.8069,942.51309)"
       id="use5782"
       width="720"
       height="1012.5" />
    <use
       x="0"
       y="0"
       inkscape:tiled-clone-of="#g3036"
       xlink:href="#g3036"
       transform="translate(612.43449,0)"
       id="use5788"
       width="720"
       height="1012.5" />
    <use
       x="0"
       y="0"
       inkscape:tiled-clone-of="#g3036"
       xlink:href="#g3036"
       transform="translate(612.43449,134.64473)"
       id="use5790"
       width="720"
       height="1012.5" />
    <use
       x="0"
       y="0"
       inkscape:tiled-clone-of="#g3036"
       xlink:href="#g3036"
       transform="translate(612.43449,269.28945)"
       id="use5792"
       width="720"
       height="1012.5" />
    <use
       x="0"
       y="0"
       inkscape:tiled-clone-of="#g3036"
       xlink:href="#g3036"
       transform="translate(612.43449,403.93418)"
       id="use5794"
       width="720"
       height="1012.5" />
    <use
       x="0"
       y="0"
       inkscape:tiled-clone-of="#g3036"
       xlink:href="#g3036"
       transform="translate(612.43449,538.57891)"
       id="use5796"
       width="720"
       height="1012.5" />
    <use
       x="0"
       y="0"
       inkscape:tiled-clone-of="#g3036"
       xlink:href="#g3036"
       transform="translate(612.43449,673.22363)"
       id="use5798"
       width="720"
       height="1012.5" />
    <rect
       ry="0"
       y="860.28076"
       x="635.15173"
       height="8.8815174"
       width="8.8750095"
       id="rect6342"
       style="fill:none;stroke:#ff0000;stroke-width:0.05159999;stroke-linejoin:miter;stroke-miterlimit:4;stroke-opacity:1;stroke-dasharray:none;stroke-dashoffset:0" />
    <use
       x="0"
       y="0"
       inkscape:tiled-clone-of="#g3036"
       xlink:href="#g3036"
       transform="translate(612.43449,942.51309)"
       id="use5802"
       width="720"
       height="1012.5" />
    <use
       x="0"
       y="0"
       inkscape:tiled-clone-of="#g3036"
       xlink:href="#g3036"
       transform="translate(639.06207,0)"
       id="use5808"
       width="720"
       height="1012.5" />
    <use
       x="0"
       y="0"
       inkscape:tiled-clone-of="#g3036"
       xlink:href="#g3036"
       transform="translate(639.06207,134.64473)"
       id="use5810"
       width="720"
       height="1012.5" />
    <use
       x="0"
       y="0"
       inkscape:tiled-clone-of="#g3036"
       xlink:href="#g3036"
       transform="translate(639.06207,269.28945)"
       id="use5812"
       width="720"
       height="1012.5" />
    <use
       x="0"
       y="0"
       inkscape:tiled-clone-of="#g3036"
       xlink:href="#g3036"
       transform="translate(639.06207,403.93418)"
       id="use5814"
       width="720"
       height="1012.5" />
    <use
       x="0"
       y="0"
       inkscape:tiled-clone-of="#g3036"
       xlink:href="#g3036"
       transform="translate(639.06207,538.57891)"
       id="use5816"
       width="720"
       height="1012.5" />
    <use
       x="0"
       y="0"
       inkscape:tiled-clone-of="#g3036"
       xlink:href="#g3036"
       transform="translate(639.06207,673.22363)"
       id="use5818"
       width="720"
       height="1012.5" />
    <use
       x="0"
       y="0"
       inkscape:tiled-clone-of="#g3036"
       xlink:href="#g3036"
       transform="translate(639.06207,807.86836)"
       id="use5820"
       width="720"
       height="1012.5" />
    <use
       x="0"
       y="0"
       inkscape:tiled-clone-of="#g3036"
       xlink:href="#g3036"
       transform="translate(639.06207,942.51309)"
       id="use5822"
       width="720"
       height="1012.5" />
    <use
       x="0"
       y="0"
       inkscape:tiled-clone-of="#g3036"
       xlink:href="#g3036"
       transform="translate(665.68966,0)"
       id="use5828"
       width="720"
       height="1012.5" />
    <use
       x="0"
       y="0"
       inkscape:tiled-clone-of="#g3036"
       xlink:href="#g3036"
       transform="translate(665.68966,134.64473)"
       id="use5830"
       width="720"
       height="1012.5" />
    <use
       x="0"
       y="0"
       inkscape:tiled-clone-of="#g3036"
       xlink:href="#g3036"
       transform="translate(665.68966,269.28945)"
       id="use5832"
       width="720"
       height="1012.5" />
    <use
       x="0"
       y="0"
       inkscape:tiled-clone-of="#g3036"
       xlink:href="#g3036"
       transform="translate(665.68966,403.93418)"
       id="use5834"
       width="720"
       height="1012.5" />
    <use
       x="0"
       y="0"
       inkscape:tiled-clone-of="#g3036"
       xlink:href="#g3036"
       transform="translate(665.68966,538.57891)"
       id="use5836"
       width="720"
       height="1012.5" />
    <use
       x="0"
       y="0"
       inkscape:tiled-clone-of="#g3036"
       xlink:href="#g3036"
       transform="translate(665.68966,673.22363)"
       id="use5838"
       width="720"
       height="1012.5" />
    <use
       x="0"
       y="0"
       inkscape:tiled-clone-of="#g3036"
       xlink:href="#g3036"
       transform="translate(665.68966,807.86836)"
       id="use5840"
       width="720"
       height="1012.5" />
    <use
       x="0"
       y="0"
       inkscape:tiled-clone-of="#g3036"
       xlink:href="#g3036"
       transform="translate(665.68966,942.51309)"
       id="use5842"
       width="720"
       height="1012.5" />
  </g>
</svg>
