<?xml version="1.0" encoding="UTF-8" standalone="no"?>
<!-- Created with Inkscape (http://www.inkscape.org/) -->

<svg
   xmlns:dc="http://purl.org/dc/elements/1.1/"
   xmlns:cc="http://creativecommons.org/ns#"
   xmlns:rdf="http://www.w3.org/1999/02/22-rdf-syntax-ns#"
   xmlns:svg="http://www.w3.org/2000/svg"
   xmlns="http://www.w3.org/2000/svg"
   xmlns:sodipodi="http://sodipodi.sourceforge.net/DTD/sodipodi-0.dtd"
   xmlns:inkscape="http://www.inkscape.org/namespaces/inkscape"
   width="1440"
   height="1440"
   id="svg2"
   version="1.1"
   inkscape:version="0.48.4 r9939"
   sodipodi:docname="Cow Catcher.svg">
  <defs
     id="defs4" />
  <sodipodi:namedview
     id="base"
     pagecolor="#ffffff"
     bordercolor="#666666"
     borderopacity="1.0"
     inkscape:pageopacity="0.0"
     inkscape:pageshadow="2"
     inkscape:zoom="0.7"
     inkscape:cx="509.87459"
     inkscape:cy="1183.0751"
     inkscape:document-units="mm"
     inkscape:current-layer="g6631"
     showgrid="false"
     inkscape:window-width="1366"
     inkscape:window-height="705"
     inkscape:window-x="-8"
     inkscape:window-y="-8"
     inkscape:window-maximized="1"
     units="in"
     showguides="true"
     inkscape:guide-bbox="true" />
  <metadata
     id="metadata7">
    <rdf:RDF>
      <cc:Work
         rdf:about="">
        <dc:format>image/svg+xml</dc:format>
        <dc:type
           rdf:resource="http://purl.org/dc/dcmitype/StillImage" />
        <dc:title></dc:title>
      </cc:Work>
    </rdf:RDF>
  </metadata>
  <g
     inkscape:label="Layer 1"
     inkscape:groupmode="layer"
     id="layer1"
     transform="translate(0,387.64025)">
    <g
       id="g6631"
       transform="matrix(1.0158281,0,0,1,10.08122,-895.5739)">
      <g
         id="g6735"
         transform="translate(-1.4063122,-279.14286)">
        <path
           inkscape:connector-curvature="0"
           style="fill:none;stroke:#ff0000;stroke-width:0.06450265;stroke-linejoin:miter;stroke-miterlimit:4;stroke-opacity:1;stroke-dashoffset:0"
           d="m 503.09375,797.23475 0,0.4062 -503.03125,113 0,28.25 0.0625,0 0,113.40625 113.25,0 0,-119.74995 390.65625,-21.8437 390.65625,21.8437 0,119.74995 113.25,0 0,-113.40625 0.062,0 0,-28.25 -503.03125,-113 0,-0.4062 -0.9375,0.2188 -0.9375,-0.2188 z"
           id="rect2985" />
        <path
           inkscape:connector-curvature="0"
           style="fill:none;stroke:#ff0000;stroke-width:0.09;stroke-linecap:butt;stroke-linejoin:miter;stroke-miterlimit:4;stroke-opacity:1;stroke-dasharray:none"
           d="m 70.85935,995.66457 c 0,7.79523 -6.307,14.10233 -14.10217,14.10233 -7.79516,0 -14.10216,-6.3071 -14.10216,-14.10233 0,-7.79528 6.307,-14.10237 14.10216,-14.10237 7.79517,0 14.10217,6.30709 14.10217,14.10237 z"
           id="path3811-8" />
        <path
           inkscape:connector-curvature="0"
           style="fill:none;stroke:#ff0000;stroke-width:0.09;stroke-linecap:butt;stroke-linejoin:miter;stroke-miterlimit:4;stroke-opacity:1;stroke-dasharray:none"
           d="m 34.89529,995.66457 c 0,3.57874 -2.90547,6.48423 -6.48416,6.48423 -3.57869,0 -6.48416,-2.90549 -6.48416,-6.48423 0,-3.57874 2.90547,-6.48425 6.48416,-6.48425 3.57869,0 6.48416,2.90551 6.48416,6.48425 z"
           id="path3813-3" />
        <path
           inkscape:connector-curvature="0"
           style="fill:none;stroke:#ff0000;stroke-width:0.09;stroke-linecap:butt;stroke-linejoin:miter;stroke-miterlimit:4;stroke-opacity:1;stroke-dasharray:none"
           d="m 91.5874,995.66457 c 0,3.57874 -2.90547,6.48423 -6.48416,6.48423 -3.57869,0 -6.48416,-2.90549 -6.48416,-6.48423 0,-3.57874 2.90547,-6.48425 6.48416,-6.48425 3.57869,0 6.48416,2.90551 6.48416,6.48425 z"
           id="path3815-6" />
        <path
           inkscape:connector-curvature="0"
           style="fill:none;stroke:#ff0000;stroke-width:0.09;stroke-linecap:butt;stroke-linejoin:miter;stroke-miterlimit:4;stroke-opacity:1;stroke-dasharray:none"
           d="m 56.75718,973.80236 c -3.57869,0 -6.48416,-2.90551 -6.48416,-6.48425 0,-3.57874 2.90547,-6.48425 6.48416,-6.48425 3.57869,0 6.48416,2.90551 6.48416,6.48425 0,3.57874 -2.90547,6.48425 -6.48416,6.48425 z"
           id="path3817-4" />
        <path
           inkscape:connector-curvature="0"
           style="fill:none;stroke:#ff0000;stroke-width:0.09;stroke-linecap:butt;stroke-linejoin:miter;stroke-miterlimit:4;stroke-opacity:1;stroke-dasharray:none"
           d="m 56.75718,1030.4953 c -3.57869,0 -6.48416,-2.9055 -6.48416,-6.4843 0,-3.5787 2.90547,-6.4842 6.48416,-6.4842 3.57869,0 6.48416,2.9055 6.48416,6.4842 0,3.5788 -2.90547,6.4843 -6.48416,6.4843 z"
           id="path3819-54" />
        <path
           inkscape:connector-curvature="0"
           id="use6300"
           d="m 1.7973802,920.67982 16.9636178,-2.34459 4.213402,9.39898 -16.963617,2.34458 z"
           style="fill:none;stroke:#ff0000;stroke-width:0.05153874;stroke-linejoin:miter;stroke-miterlimit:4;stroke-opacity:1;stroke-dashoffset:0" />
        <path
           inkscape:connector-curvature="0"
           id="use6302"
           d="m 26.979017,915.00288 16.963627,-2.34459 4.213402,9.39898 -16.963627,2.34459 z"
           style="fill:none;stroke:#ff0000;stroke-width:0.05153875;stroke-linejoin:miter;stroke-miterlimit:4;stroke-opacity:1;stroke-dashoffset:0" />
        <path
           inkscape:connector-curvature="0"
           id="use6304"
           d="m 52.160663,909.32594 16.963627,-2.34458 4.213402,9.39897 -16.963627,2.34459 z"
           style="fill:none;stroke:#ff0000;stroke-width:0.05153874;stroke-linejoin:miter;stroke-miterlimit:4;stroke-opacity:1;stroke-dashoffset:0" />
        <path
           inkscape:connector-curvature="0"
           id="use6306"
           d="m 77.343782,902.5077 16.961228,-2.62839 4.212807,10.5367 -16.961228,2.62839 z"
           style="fill:none;stroke:#ff0000;stroke-width:0.05456514;stroke-linejoin:miter;stroke-miterlimit:4;stroke-opacity:1;stroke-dashoffset:0" />
        <path
           inkscape:connector-curvature="0"
           id="use6308"
           d="m 101.78152,897.97374 18.15303,-2.34342 4.50884,9.39434 -18.15303,2.34342 z"
           style="fill:none;stroke:#ff0000;stroke-width:0.05330183;stroke-linejoin:miter;stroke-miterlimit:4;stroke-opacity:1;stroke-dashoffset:0" />
        <path
           inkscape:connector-curvature="0"
           id="use6310"
           d="m 127.70559,892.29507 16.96362,-2.34459 4.2134,9.39898 -16.96362,2.34458 z"
           style="fill:none;stroke:#ff0000;stroke-width:0.05153874;stroke-linejoin:miter;stroke-miterlimit:4;stroke-opacity:1;stroke-dashoffset:0" />
        <path
           inkscape:connector-curvature="0"
           id="use6312"
           d="m 152.88564,887.75932 16.96617,-2.06082 4.21403,8.2614 -16.96617,2.06081 z"
           style="fill:none;stroke:#ff0000;stroke-width:0.04832289;stroke-linejoin:miter;stroke-miterlimit:4;stroke-opacity:1;stroke-dashoffset:0" />
        <path
           inkscape:connector-curvature="0"
           id="use6314"
           d="m 178.06728,882.08238 16.96617,-2.06082 4.21404,8.2614 -16.96617,2.06082 z"
           style="fill:none;stroke:#ff0000;stroke-width:0.0483229;stroke-linejoin:miter;stroke-miterlimit:4;stroke-opacity:1;stroke-dashoffset:0" />
        <path
           inkscape:connector-curvature="0"
           id="use6316"
           d="m 203.2505,875.26419 16.96362,-2.34458 4.2134,9.39897 -16.96362,2.34459 z"
           style="fill:none;stroke:#ff0000;stroke-width:0.05153874;stroke-linejoin:miter;stroke-miterlimit:4;stroke-opacity:1;stroke-dashoffset:0" />
        <path
           inkscape:connector-curvature="0"
           id="use6318"
           d="m 228.43056,870.72844 16.96617,-2.06081 4.21403,8.26139 -16.96617,2.06082 z"
           style="fill:none;stroke:#ff0000;stroke-width:0.04832289;stroke-linejoin:miter;stroke-miterlimit:4;stroke-opacity:1;stroke-dashoffset:0" />
        <path
           inkscape:connector-curvature="0"
           id="use6320"
           d="m 253.6122,865.05151 16.96618,-2.06082 4.21403,8.2614 -16.96617,2.06081 z"
           style="fill:none;stroke:#ff0000;stroke-width:0.04832289;stroke-linejoin:miter;stroke-miterlimit:4;stroke-opacity:1;stroke-dashoffset:0" />
        <path
           inkscape:connector-curvature="0"
           id="use6322"
           d="m 278.79544,858.23338 16.96362,-2.34459 4.2134,9.39899 -16.96362,2.34458 z"
           style="fill:none;stroke:#ff0000;stroke-width:0.05153875;stroke-linejoin:miter;stroke-miterlimit:4;stroke-opacity:1;stroke-dashoffset:0" />
        <path
           inkscape:connector-curvature="0"
           id="use6324"
           d="m 303.97855,851.41977 16.96126,-2.62533 4.21283,10.52448 -16.96126,2.62535 z"
           style="fill:none;stroke:#ff0000;stroke-width:0.05453354;stroke-linejoin:miter;stroke-miterlimit:4;stroke-opacity:1;stroke-dashoffset:0" />
        <path
           inkscape:connector-curvature="0"
           id="use6326"
           d="m 329.16021,845.73825 16.96124,-2.62839 4.21281,10.53671 -16.96123,2.6284 z"
           style="fill:none;stroke:#ff0000;stroke-width:0.05456516;stroke-linejoin:miter;stroke-miterlimit:4;stroke-opacity:1;stroke-dashoffset:0" />
        <path
           inkscape:connector-curvature="0"
           id="use6328"
           d="m 354.34036,841.2025 16.96362,-2.34458 4.2134,9.39898 -16.96362,2.34459 z"
           style="fill:none;stroke:#ff0000;stroke-width:0.05153875;stroke-linejoin:miter;stroke-miterlimit:4;stroke-opacity:1;stroke-dashoffset:0" />
        <path
           inkscape:connector-curvature="0"
           id="use6330"
           d="m 379.52042,836.66675 16.96617,-2.06082 4.21404,8.26141 -16.96617,2.06082 z"
           style="fill:none;stroke:#ff0000;stroke-width:0.04832291;stroke-linejoin:miter;stroke-miterlimit:4;stroke-opacity:1;stroke-dashoffset:0" />
        <path
           inkscape:connector-curvature="0"
           id="use6332"
           d="m 404.70206,830.98981 16.96617,-2.06081 4.21403,8.2614 -16.96617,2.06082 z"
           style="fill:none;stroke:#ff0000;stroke-width:0.0483229;stroke-linejoin:miter;stroke-miterlimit:4;stroke-opacity:1;stroke-dashoffset:0" />
        <path
           inkscape:connector-curvature="0"
           id="use6334"
           d="m 429.8837,825.31081 16.96617,-2.06219 4.21404,8.26692 -16.96616,2.06219 z"
           style="fill:none;stroke:#ff0000;stroke-width:0.04833901;stroke-linejoin:miter;stroke-miterlimit:4;stroke-opacity:1;stroke-dashoffset:0" />
        <path
           inkscape:connector-curvature="0"
           id="use6336"
           d="m 455.06535,819.63594 16.96616,-2.06082 4.21404,8.26141 -16.96616,2.06081 z"
           style="fill:none;stroke:#ff0000;stroke-width:0.0483229;stroke-linejoin:miter;stroke-miterlimit:4;stroke-opacity:1;stroke-dashoffset:0" />
        <path
           inkscape:connector-curvature="0"
           id="use6338"
           d="m 480.24695,813.95848 16.96618,-2.06112 4.21405,8.26262 -16.96618,2.06112 z"
           style="fill:none;stroke:#ff0000;stroke-width:0.04832647;stroke-linejoin:miter;stroke-miterlimit:4;stroke-opacity:1;stroke-dashoffset:0" />
        <path
           id="path6415"
           d="m 937.20287,995.66457 c 0,7.79523 6.307,14.10233 14.10217,14.10233 7.79515,0 14.10215,-6.3071 14.10215,-14.10233 0,-7.79528 -6.307,-14.10237 -14.10215,-14.10237 -7.79517,0 -14.10217,6.30709 -14.10217,14.10237 z"
           style="fill:none;stroke:#ff0000;stroke-width:0.08999999;stroke-linecap:butt;stroke-linejoin:miter;stroke-miterlimit:4;stroke-opacity:1;stroke-dasharray:none"
           inkscape:connector-curvature="0" />
        <path
           id="path6417"
           d="m 973.16692,995.66457 c 0,3.57874 2.90547,6.48423 6.48416,6.48423 3.57869,0 6.48416,-2.90549 6.48416,-6.48423 0,-3.57874 -2.90547,-6.48425 -6.48416,-6.48425 -3.57869,0 -6.48416,2.90551 -6.48416,6.48425 z"
           style="fill:none;stroke:#ff0000;stroke-width:0.08999999;stroke-linecap:butt;stroke-linejoin:miter;stroke-miterlimit:4;stroke-opacity:1;stroke-dasharray:none"
           inkscape:connector-curvature="0" />
        <path
           id="path6419"
           d="m 916.47483,995.66457 c 0,3.57874 2.90547,6.48423 6.48415,6.48423 3.57869,0 6.48416,-2.90549 6.48416,-6.48423 0,-3.57874 -2.90547,-6.48425 -6.48416,-6.48425 -3.57868,0 -6.48415,2.90551 -6.48415,6.48425 z"
           style="fill:none;stroke:#ff0000;stroke-width:0.08999999;stroke-linecap:butt;stroke-linejoin:miter;stroke-miterlimit:4;stroke-opacity:1;stroke-dasharray:none"
           inkscape:connector-curvature="0" />
        <path
           id="path6421"
           d="m 951.30504,973.80236 c 3.57869,0 6.48415,-2.90551 6.48415,-6.48425 0,-3.57874 -2.90546,-6.48425 -6.48415,-6.48425 -3.57869,0 -6.48416,2.90551 -6.48416,6.48425 0,3.57874 2.90547,6.48425 6.48416,6.48425 z"
           style="fill:none;stroke:#ff0000;stroke-width:0.08999999;stroke-linecap:butt;stroke-linejoin:miter;stroke-miterlimit:4;stroke-opacity:1;stroke-dasharray:none"
           inkscape:connector-curvature="0" />
        <path
           id="path6423"
           d="m 951.30504,1030.4953 c 3.57869,0 6.48415,-2.9055 6.48415,-6.4843 0,-3.5787 -2.90546,-6.4842 -6.48415,-6.4842 -3.57869,0 -6.48416,2.9055 -6.48416,6.4842 0,3.5788 2.90547,6.4843 6.48416,6.4843 z"
           style="fill:none;stroke:#ff0000;stroke-width:0.08999999;stroke-linecap:butt;stroke-linejoin:miter;stroke-miterlimit:4;stroke-opacity:1;stroke-dasharray:none"
           inkscape:connector-curvature="0" />
        <path
           inkscape:connector-curvature="0"
           id="rect6425"
           d="m 1006.2681,922.95893 -16.96887,-1.77921 -4.21471,7.13251 16.96888,1.77922 z"
           style="fill:none;stroke:#ff0000;stroke-width:0.04490371;stroke-linejoin:miter;stroke-miterlimit:4;stroke-opacity:1;stroke-dashoffset:0" />
        <path
           inkscape:connector-curvature="0"
           id="rect6427"
           d="m 981.08647,917.2823 -16.96888,-1.77902 -4.2147,7.13172 16.96887,1.77902 z"
           style="fill:none;stroke:#ff0000;stroke-width:0.04490119;stroke-linejoin:miter;stroke-miterlimit:4;stroke-opacity:1;stroke-dashoffset:0" />
        <path
           inkscape:connector-curvature="0"
           id="rect6429"
           d="m 955.90313,910.46568 -16.96615,-2.06177 -4.21403,8.26525 16.96615,2.06178 z"
           style="fill:none;stroke:#ff0000;stroke-width:0.04833414;stroke-linejoin:miter;stroke-miterlimit:4;stroke-opacity:1;stroke-dashoffset:0" />
        <path
           inkscape:connector-curvature="0"
           id="rect6431"
           d="m 930.72322,905.92932 -16.96888,-1.77839 -4.21471,7.12918 16.96888,1.77838 z"
           style="fill:none;stroke:#ff0000;stroke-width:0.04489318;stroke-linejoin:miter;stroke-miterlimit:4;stroke-opacity:1;stroke-dashoffset:0" />
        <path
           inkscape:connector-curvature="0"
           id="rect6433"
           d="m 905.53987,899.11319 -16.96616,-2.06081 -4.21403,8.2614 16.96616,2.06081 z"
           style="fill:none;stroke:#ff0000;stroke-width:0.04832288;stroke-linejoin:miter;stroke-miterlimit:4;stroke-opacity:1;stroke-dashoffset:0" />
        <path
           inkscape:connector-curvature="0"
           id="rect6435"
           d="m 880.35837,894.89369 -16.96638,-2.04162 -4.21408,8.18448 16.96637,2.04162 z"
           style="fill:none;stroke:#ff0000;stroke-width:0.04809767;stroke-linejoin:miter;stroke-miterlimit:4;stroke-opacity:1;stroke-dashoffset:0" />
        <path
           inkscape:connector-curvature="0"
           id="rect6437"
           d="m 855.17836,888.91269 -16.96899,-1.76895 -4.21473,7.09135 16.96899,1.76895 z"
           style="fill:none;stroke:#ff0000;stroke-width:0.04477407;stroke-linejoin:miter;stroke-miterlimit:4;stroke-opacity:1;stroke-dashoffset:0" />
        <path
           inkscape:connector-curvature="0"
           id="rect6439"
           d="m 829.9985,884.36019 -16.97182,-1.49631 -4.21544,5.99841 16.97182,1.49631 z"
           style="fill:none;stroke:#ff0000;stroke-width:0.04118286;stroke-linejoin:miter;stroke-miterlimit:4;stroke-opacity:1;stroke-dashoffset:0" />
        <path
           inkscape:connector-curvature="0"
           id="rect6441"
           d="m 804.8151,877.55382 -16.96897,-1.77221 -4.21473,7.10448 16.96897,1.77222 z"
           style="fill:none;stroke:#ff0000;stroke-width:0.04481549;stroke-linejoin:miter;stroke-miterlimit:4;stroke-opacity:1;stroke-dashoffset:0" />
        <path
           inkscape:connector-curvature="0"
           id="rect6443"
           d="m 779.63343,871.87398 -16.96892,-1.77414 -4.21474,7.11222 16.96893,1.77415 z"
           style="fill:none;stroke:#ff0000;stroke-width:0.04483986;stroke-linejoin:miter;stroke-miterlimit:4;stroke-opacity:1;stroke-dashoffset:0" />
        <path
           inkscape:connector-curvature="0"
           id="rect6445"
           d="m 754.45007,865.04922 -16.96617,-2.06234 -4.21403,8.2675 16.96617,2.06232 z"
           style="fill:none;stroke:#ff0000;stroke-width:0.0483407;stroke-linejoin:miter;stroke-miterlimit:4;stroke-opacity:1;stroke-dashoffset:0" />
        <path
           inkscape:connector-curvature="0"
           id="rect6447"
           d="m 729.26684,858.23185 -16.96362,-2.3456 -4.2134,9.40305 16.96362,2.34559 z"
           style="fill:none;stroke:#ff0000;stroke-width:0.05154987;stroke-linejoin:miter;stroke-miterlimit:4;stroke-opacity:1;stroke-dashoffset:0" />
        <path
           inkscape:connector-curvature="0"
           id="rect6449"
           d="m 704.08679,853.6955 -16.96615,-2.06223 -4.21405,8.26708 16.96616,2.06223 z"
           style="fill:none;stroke:#ff0000;stroke-width:0.04833948;stroke-linejoin:miter;stroke-miterlimit:4;stroke-opacity:1;stroke-dashoffset:0" />
        <path
           inkscape:connector-curvature="0"
           id="rect6451"
           d="m 678.90686,849.15861 -16.96889,-1.77921 -4.21471,7.13253 16.96888,1.77922 z"
           style="fill:none;stroke:#ff0000;stroke-width:0.04490375;stroke-linejoin:miter;stroke-miterlimit:4;stroke-opacity:1;stroke-dashoffset:0" />
        <path
           inkscape:connector-curvature="0"
           id="rect6453"
           d="m 653.72353,842.34157 -16.96615,-2.06223 -4.21405,8.26708 16.96616,2.06223 z"
           style="fill:none;stroke:#ff0000;stroke-width:0.04833948;stroke-linejoin:miter;stroke-miterlimit:4;stroke-opacity:1;stroke-dashoffset:0" />
        <path
           inkscape:connector-curvature="0"
           id="rect6455"
           d="m 628.54358,837.80345 -16.96888,-1.78003 -4.2147,7.13579 16.96887,1.78002 z"
           style="fill:none;stroke:#ff0000;stroke-width:0.04491396;stroke-linejoin:miter;stroke-miterlimit:4;stroke-opacity:1;stroke-dashoffset:0" />
        <path
           inkscape:connector-curvature="0"
           id="rect6457"
           d="m 603.36026,830.98769 -16.96616,-2.06223 -4.21404,8.26708 16.96615,2.06223 z"
           style="fill:none;stroke:#ff0000;stroke-width:0.04833948;stroke-linejoin:miter;stroke-miterlimit:4;stroke-opacity:1;stroke-dashoffset:0" />
        <path
           inkscape:connector-curvature="0"
           id="rect6459"
           d="m 578.17862,825.31075 -16.96616,-2.06223 -4.21404,8.26708 16.96615,2.06223 z"
           style="fill:none;stroke:#ff0000;stroke-width:0.04833948;stroke-linejoin:miter;stroke-miterlimit:4;stroke-opacity:1;stroke-dashoffset:0" />
        <path
           inkscape:connector-curvature="0"
           id="rect6461"
           d="m 552.99698,819.63381 -16.96615,-2.06223 -4.21404,8.26708 16.96614,2.06223 z"
           style="fill:none;stroke:#ff0000;stroke-width:0.04833948;stroke-linejoin:miter;stroke-miterlimit:4;stroke-opacity:1;stroke-dashoffset:0" />
        <path
           inkscape:connector-curvature="0"
           id="rect6463"
           d="m 527.81536,813.95597 -16.96614,-2.06279 -4.21404,8.26933 16.96615,2.06278 z"
           style="fill:none;stroke:#ff0000;stroke-width:0.04834601;stroke-linejoin:miter;stroke-miterlimit:4;stroke-opacity:1;stroke-dashoffset:0" />
      </g>
    </g>
  </g>
</svg>
