<?xml version="1.0" encoding="UTF-8" standalone="no"?>
<!-- Created with Inkscape (http://www.inkscape.org/) -->

<svg
   xmlns:dc="http://purl.org/dc/elements/1.1/"
   xmlns:cc="http://creativecommons.org/ns#"
   xmlns:rdf="http://www.w3.org/1999/02/22-rdf-syntax-ns#"
   xmlns:svg="http://www.w3.org/2000/svg"
   xmlns="http://www.w3.org/2000/svg"
   xmlns:sodipodi="http://sodipodi.sourceforge.net/DTD/sodipodi-0.dtd"
   xmlns:inkscape="http://www.inkscape.org/namespaces/inkscape"
   width="1350"
   height="1080"
   id="svg2"
   version="1.1"
   inkscape:version="0.48.4 r9939"
   sodipodi:docname="New document 1">
  <defs
     id="defs4" />
  <sodipodi:namedview
     id="base"
     pagecolor="#ffffff"
     bordercolor="#666666"
     borderopacity="1.0"
     inkscape:pageopacity="0.0"
     inkscape:pageshadow="2"
     inkscape:zoom="0.35"
     inkscape:cx="375"
     inkscape:cy="399.45246"
     inkscape:document-units="px"
     inkscape:current-layer="layer1"
     showgrid="false"
     units="in"
     inkscape:window-width="1366"
     inkscape:window-height="705"
     inkscape:window-x="-8"
     inkscape:window-y="-8"
     inkscape:window-maximized="1" />
  <metadata
     id="metadata7">
    <rdf:RDF>
      <cc:Work
         rdf:about="">
        <dc:format>image/svg+xml</dc:format>
        <dc:type
           rdf:resource="http://purl.org/dc/dcmitype/StillImage" />
        <dc:title></dc:title>
      </cc:Work>
    </rdf:RDF>
  </metadata>
  <g
     inkscape:label="Layer 1"
     inkscape:groupmode="layer"
     id="layer1"
     transform="translate(0,27.64025)">
    <g
       id="g2990"
       transform="translate(17.142857,-605.71429)"
       style="stroke:#000000;stroke-opacity:1;stroke-width:0.09;stroke-miterlimit:4;stroke-dasharray:none">
      <path
         sodipodi:nodetypes="sssssssssssss"
         inkscape:connector-curvature="0"
         id="rect2985"
         d="m 0.06332439,827.37378 c 0,0 17.21814961,5.31065 22.52667561,0 53.025712,-53.04693 -53.115712,-171.9671 -0.09,-225.01403 10.60448,-10.60872 34.392786,-10.60599 45,0 53.03938,53.03326 -53.013406,171.98077 0.02597,225.01403 5.300672,5.30006 22.487549,0 22.487549,0 4.57e-4,0 8.24e-4,3.7e-4 8.24e-4,8.2e-4 0,74.97393 0,224.9218 0,224.9218 0,5e-4 -3.67e-4,9e-4 -8.24e-4,9e-4 l -89.95019461,0 c -4.5671e-4,0 -8.2439e-4,-4e-4 -8.2439e-4,-9e-4 0,0 0,-149.94787 0,-224.9218 0,-4.5e-4 3.6768e-4,-8.2e-4 8.2439e-4,-8.2e-4 z"
         style="fill:none;stroke:#000000;stroke-width:0.09;stroke-miterlimit:4;stroke-opacity:1;stroke-dashoffset:0;stroke-dasharray:none" />
      <path
         transform="matrix(0.47614826,0,0,0.34151217,-37.609738,343.63935)"
         d="m 197.14285,852.85712 c 0,18.1465 -10.55328,32.85714 -23.57142,32.85714 -13.01814,0 -23.57143,-14.71064 -23.57143,-32.85714 0,-18.1465 10.55329,-32.85715 23.57143,-32.85715 13.01814,0 23.57142,14.71065 23.57142,32.85715 z"
         sodipodi:ry="32.857143"
         sodipodi:rx="23.571428"
         sodipodi:cy="852.85712"
         sodipodi:cx="173.57143"
         id="path2988"
         style="fill:none;stroke:#000000;stroke-width:0.2231867;stroke-miterlimit:4;stroke-opacity:1;stroke-dasharray:none;stroke-dashoffset:0"
         sodipodi:type="arc" />
    </g>
  </g>
</svg>
