<?xml version="1.0" encoding="UTF-8" standalone="no"?>
<!-- Created with Inkscape (http://www.inkscape.org/) -->

<svg
   xmlns:dc="http://purl.org/dc/elements/1.1/"
   xmlns:cc="http://creativecommons.org/ns#"
   xmlns:rdf="http://www.w3.org/1999/02/22-rdf-syntax-ns#"
   xmlns:svg="http://www.w3.org/2000/svg"
   xmlns="http://www.w3.org/2000/svg"
   xmlns:sodipodi="http://sodipodi.sourceforge.net/DTD/sodipodi-0.dtd"
   xmlns:inkscape="http://www.inkscape.org/namespaces/inkscape"
   width="744.09448819"
   height="1052.3622047"
   id="svg2"
   version="1.1"
   inkscape:version="0.48.4 r9939"
   sodipodi:docname="Servo Holder Piece 2.svg">
  <defs
     id="defs4" />
  <sodipodi:namedview
     id="base"
     pagecolor="#ffffff"
     bordercolor="#666666"
     borderopacity="1.0"
     inkscape:pageopacity="0.0"
     inkscape:pageshadow="2"
     inkscape:zoom="1.224638"
     inkscape:cx="-18.676052"
     inkscape:cy="972.66405"
     inkscape:document-units="px"
     inkscape:current-layer="layer1"
     showgrid="false"
     inkscape:window-width="1366"
     inkscape:window-height="705"
     inkscape:window-x="-8"
     inkscape:window-y="-8"
     inkscape:window-maximized="1" />
  <metadata
     id="metadata7">
    <rdf:RDF>
      <cc:Work
         rdf:about="">
        <dc:format>image/svg+xml</dc:format>
        <dc:type
           rdf:resource="http://purl.org/dc/dcmitype/StillImage" />
        <dc:title />
      </cc:Work>
    </rdf:RDF>
  </metadata>
  <g
     inkscape:label="Layer 1"
     inkscape:groupmode="layer"
     id="layer1">
    <g
       id="g3003">
      <path
         sodipodi:nodetypes="ccccccccc"
         inkscape:connector-curvature="0"
         id="rect2985"
         d="m 8.0625,7.58964 0,78.03 107.1,0 0,238.68004 92.52,0 0,-243.14758 0,-73.56246 -80.82,0 z"
         style="fill:none;stroke:#000000;stroke-width:0.09;stroke-miterlimit:4;stroke-opacity:1;stroke-dasharray:none;stroke-dashoffset:0" />
      <g
         transform="matrix(1.0005143,0,0,-1,12.471221,90.31629)"
         id="g3898"
         style="stroke:#000000;stroke-width:0.08997687;stroke-miterlimit:4;stroke-opacity:1;stroke-dasharray:none">
        <path
           sodipodi:type="arc"
           style="fill:none;stroke:#000000;stroke-width:0.86141163;stroke-miterlimit:4;stroke-opacity:1;stroke-dasharray:none;stroke-dashoffset:0"
           id="path2985"
           sodipodi:cx="174.75639"
           sodipodi:cy="504.8595"
           sodipodi:rx="59.598999"
           sodipodi:ry="68.690376"
           d="m 234.35539,504.8595 c 0,37.93664 -26.68338,68.69037 -59.599,68.69037 -32.91561,0 -59.599,-30.75373 -59.599,-68.69037 0,-37.93665 26.68339,-68.69038 59.599,-68.69038 32.91562,0 59.599,30.75373 59.599,68.69038 z"
           transform="matrix(-0.11213583,0,0,0.0972962,54.135014,22.18279)" />
        <path
           sodipodi:type="arc"
           style="fill:none;stroke:#000000;stroke-width:0.86147833;stroke-miterlimit:4;stroke-opacity:1;stroke-dasharray:none;stroke-dashoffset:0"
           id="path2985-1"
           sodipodi:cx="174.75639"
           sodipodi:cy="504.8595"
           sodipodi:rx="59.598999"
           sodipodi:ry="68.690376"
           d="m 234.35539,504.8595 c 0,37.93664 -26.68338,68.69037 -59.599,68.69037 -32.91561,0 -59.599,-30.75373 -59.599,-68.69037 0,-37.93665 26.68339,-68.69038 59.599,-68.69038 32.91562,0 59.599,30.75373 59.599,68.69038 z"
           transform="matrix(-0.1121359,0,0,0.09728107,81.90901,-5.51971)" />
        <path
           sodipodi:type="arc"
           style="fill:none;stroke:#000000;stroke-width:0.86147833;stroke-miterlimit:4;stroke-opacity:1;stroke-dasharray:none;stroke-dashoffset:0"
           id="path2985-1-7"
           sodipodi:cx="174.75639"
           sodipodi:cy="504.8595"
           sodipodi:rx="59.598999"
           sodipodi:ry="68.690376"
           d="m 234.35539,504.8595 c 0,37.93664 -26.68338,68.69037 -59.599,68.69037 -32.91561,0 -59.599,-30.75373 -59.599,-68.69037 0,-37.93665 26.68339,-68.69038 59.599,-68.69038 32.91562,0 59.599,30.75373 59.599,68.69038 z"
           transform="matrix(-0.1121359,0,0,0.09728107,26.495821,-5.55649)" />
        <path
           sodipodi:type="arc"
           style="fill:none;stroke:#000000;stroke-width:0.86147833;stroke-miterlimit:4;stroke-opacity:1;stroke-dasharray:none;stroke-dashoffset:0"
           id="path2985-4"
           sodipodi:cx="174.75639"
           sodipodi:cy="504.8595"
           sodipodi:rx="59.598999"
           sodipodi:ry="68.690376"
           d="m 234.35539,504.8595 c 0,37.93664 -26.68338,68.69037 -59.599,68.69037 -32.91561,0 -59.599,-30.75373 -59.599,-68.69037 0,-37.93665 26.68339,-68.69038 59.599,-68.69038 32.91562,0 59.599,30.75373 59.599,68.69038 z"
           transform="matrix(-0.1121359,0,0,0.09728107,54.143656,-33.18649)" />
      </g>
      <g
         transform="translate(8,-724.49997)"
         id="g3015">
        <g
           style="stroke:#000000;stroke-width:0.09;stroke-miterlimit:4;stroke-opacity:1;stroke-dasharray:none"
           transform="translate(129.0325,-34.650034)"
           id="g3004">
          <path
             transform="matrix(0.24088771,0,0,0.32179839,-20.787824,768.30743)"
             d="m 142.08281,861.6936 c 0,11.49994 -12.43005,20.82248 -27.76331,20.82248 -15.333248,0 -27.763304,-9.32254 -27.763304,-20.82248 0,-11.49994 12.430056,-20.82248 27.763304,-20.82248 15.33326,0 27.76331,9.32254 27.76331,20.82248 z"
             sodipodi:ry="20.822481"
             sodipodi:rx="27.763308"
             sodipodi:cy="861.6936"
             sodipodi:cx="114.3195"
             id="path2987-17"
             style="fill:none;stroke:#000000;stroke-width:0.32325351;stroke-miterlimit:4;stroke-opacity:1;stroke-dasharray:none;stroke-dashoffset:0"
             sodipodi:type="arc" />
          <path
             transform="matrix(0.24088771,0,0,0.32179839,-20.787485,595.0574)"
             d="m 142.08281,861.6936 c 0,11.49994 -12.43005,20.82248 -27.76331,20.82248 -15.333248,0 -27.763304,-9.32254 -27.763304,-20.82248 0,-11.49994 12.430056,-20.82248 27.763304,-20.82248 15.33326,0 27.76331,9.32254 27.76331,20.82248 z"
             sodipodi:ry="20.822481"
             sodipodi:rx="27.763308"
             sodipodi:cy="861.6936"
             sodipodi:cx="114.3195"
             id="path2987-1-40"
             style="fill:none;stroke:#000000;stroke-width:0.32325351;stroke-miterlimit:4;stroke-opacity:1;stroke-dasharray:none;stroke-dashoffset:0"
             sodipodi:type="arc" />
          <path
             transform="matrix(0.24088771,0,0,0.32179839,14.312176,768.3074)"
             d="m 142.08281,861.6936 c 0,11.49994 -12.43005,20.82248 -27.76331,20.82248 -15.333248,0 -27.763304,-9.32254 -27.763304,-20.82248 0,-11.49994 12.430056,-20.82248 27.763304,-20.82248 15.33326,0 27.76331,9.32254 27.76331,20.82248 z"
             sodipodi:ry="20.822481"
             sodipodi:rx="27.763308"
             sodipodi:cy="861.6936"
             sodipodi:cx="114.3195"
             id="path2987-7-9"
             style="fill:none;stroke:#000000;stroke-width:0.32325351;stroke-miterlimit:4;stroke-opacity:1;stroke-dasharray:none;stroke-dashoffset:0"
             sodipodi:type="arc" />
          <path
             transform="matrix(0.24088771,0,0,0.32179839,14.312176,595.05738)"
             d="m 142.08281,861.6936 c 0,11.49994 -12.43005,20.82248 -27.76331,20.82248 -15.333248,0 -27.763304,-9.32254 -27.763304,-20.82248 0,-11.49994 12.430056,-20.82248 27.763304,-20.82248 15.33326,0 27.76331,9.32254 27.76331,20.82248 z"
             sodipodi:ry="20.822481"
             sodipodi:rx="27.763308"
             sodipodi:cy="861.6936"
             sodipodi:cx="114.3195"
             id="path2987-1-4-4"
             style="fill:none;stroke:#000000;stroke-width:0.32325351;stroke-miterlimit:4;stroke-opacity:1;stroke-dasharray:none;stroke-dashoffset:0"
             sodipodi:type="arc" />
        </g>
        <rect
           style="fill:none;stroke:#000000;stroke-width:0.09;stroke-miterlimit:4;stroke-opacity:1;stroke-dasharray:none;stroke-dashoffset:0"
           id="rect3104"
           width="71.838593"
           height="152.86823"
           x="117.4132"
           y="847.67169" />
      </g>
    </g>
  </g>
</svg>
