<?xml version="1.0" encoding="UTF-8" standalone="no"?>
<!-- Created with Inkscape (http://www.inkscape.org/) -->

<svg
   xmlns:dc="http://purl.org/dc/elements/1.1/"
   xmlns:cc="http://creativecommons.org/ns#"
   xmlns:rdf="http://www.w3.org/1999/02/22-rdf-syntax-ns#"
   xmlns:svg="http://www.w3.org/2000/svg"
   xmlns="http://www.w3.org/2000/svg"
   xmlns:sodipodi="http://sodipodi.sourceforge.net/DTD/sodipodi-0.dtd"
   xmlns:inkscape="http://www.inkscape.org/namespaces/inkscape"
   id="svg2985"
   version="1.1"
   inkscape:version="0.48.4 r9939"
   width="810"
   height="810"
   xml:space="preserve"
   sodipodi:docname="Servo Holder Piece Standard.svg"><metadata
     id="metadata2991"><rdf:RDF><cc:Work
         rdf:about=""><dc:format>image/svg+xml</dc:format><dc:type
           rdf:resource="http://purl.org/dc/dcmitype/StillImage" /><dc:title /></cc:Work></rdf:RDF></metadata><defs
     id="defs2989" /><sodipodi:namedview
     pagecolor="#ffffff"
     bordercolor="#666666"
     borderopacity="1"
     objecttolerance="10"
     gridtolerance="10"
     guidetolerance="10"
     inkscape:pageopacity="0"
     inkscape:pageshadow="2"
     inkscape:window-width="1366"
     inkscape:window-height="705"
     id="namedview2987"
     showgrid="false"
     inkscape:zoom="0.76740741"
     inkscape:cx="405"
     inkscape:cy="337.5"
     inkscape:window-x="-8"
     inkscape:window-y="-8"
     inkscape:window-maximized="1"
     inkscape:current-layer="g2993"
     units="in" /><g
     id="g2993"
     inkscape:groupmode="layer"
     inkscape:label="Servo Holder Piece 2 Print Ready V1"
     transform="matrix(1.25,0,0,-1.25,0,810)"><g
       id="g3010"
       transform="translate(7.189,-10.75)"><g
         id="g2997"
         transform="matrix(1,0,0,-1,-18.001,431.999)"><path
           sodipodi:nodetypes="ccccccc"
           d="m 18.062,196.594 0,62.426 121.702,0 -0.011,154.979 74.016,0 0.011,-217.405 z"
           style="fill:none;stroke:#000000;stroke-width:0.072;stroke-linecap:butt;stroke-linejoin:miter;stroke-miterlimit:4;stroke-opacity:1;stroke-dasharray:none"
           id="path2999"
           inkscape:connector-curvature="0" /></g><g
         id="g3001"
         transform="matrix(-1,0,0,0.867218,-18.001,414.03317)"><path
           d="m -43.871,-216.461 c 0,3.405 -2.399,6.162 -5.352,6.162 -2.953,0 -5.347,-2.757 -5.347,-6.162 0,-3.405 2.394,-6.166 5.347,-6.166 2.953,0 5.352,2.761 5.352,6.166 z"
           style="fill:none;stroke:#000000;stroke-width:0.0773158;stroke-linecap:butt;stroke-linejoin:miter;stroke-miterlimit:4;stroke-opacity:1;stroke-dasharray:none"
           id="path3003"
           inkscape:connector-curvature="0" /></g><g
         id="g3005"
         transform="matrix(-1,0,0,0.867082,-18.001,414.03317)"><path
           d="m -66.102,-242.061 c 0,3.401 -2.398,6.163 -5.351,6.163 -2.953,0 -5.348,-2.762 -5.348,-6.163 0,-3.406 2.395,-6.167 5.348,-6.167 2.953,0 5.351,2.761 5.351,6.167 z"
           style="fill:none;stroke:#000000;stroke-width:0.0773219;stroke-linecap:butt;stroke-linejoin:miter;stroke-miterlimit:4;stroke-opacity:1;stroke-dasharray:none"
           id="path3007"
           inkscape:connector-curvature="0" /></g><g
         id="g3009"
         transform="matrix(-1,0,0,0.867082,-18.001,414.03317)"><path
           d="m -21.75,-242.097 c 0,3.406 -2.395,6.168 -5.348,6.168 -2.957,0 -5.351,-2.762 -5.351,-6.168 0,-3.406 2.394,-6.167 5.351,-6.167 2.953,0 5.348,2.761 5.348,6.167 z"
           style="fill:none;stroke:#000000;stroke-width:0.0773219;stroke-linecap:butt;stroke-linejoin:miter;stroke-miterlimit:4;stroke-opacity:1;stroke-dasharray:none"
           id="path3011"
           inkscape:connector-curvature="0" /></g><g
         id="g3013"
         transform="matrix(-1,0,0,0.867082,-18.001,414.03317)"><path
           d="m -43.879,-267.591 c 0,3.406 -2.394,6.167 -5.351,6.167 -2.954,0 -5.348,-2.761 -5.348,-6.167 0,-3.401 2.394,-6.163 5.348,-6.163 2.957,0 5.351,2.762 5.351,6.163 z"
           style="fill:none;stroke:#000000;stroke-width:0.0773219;stroke-linecap:butt;stroke-linejoin:miter;stroke-miterlimit:4;stroke-opacity:1;stroke-dasharray:none"
           id="path3015"
           inkscape:connector-curvature="0" /></g><g
         id="g3017"
         transform="matrix(0.748567,0,0,-1,18.008,431.999)"><path
           d="m 176.306,401.668 c 0,2.961 -3.199,5.363 -7.15,5.363 -3.945,0 -7.143,-2.402 -7.143,-5.363 0,-2.961 3.198,-5.359 7.143,-5.359 3.951,0 7.15,2.398 7.15,5.359 z"
           style="fill:none;stroke:#000000;stroke-width:0.083218;stroke-linecap:butt;stroke-linejoin:miter;stroke-miterlimit:4;stroke-opacity:1;stroke-dasharray:none"
           id="path3019"
           inkscape:connector-curvature="0" /></g><g
         id="g3021"
         transform="matrix(0.748567,0,0,-1,18.008,431.999)"><path
           d="m 176.306,263.07 c 0,2.961 -3.199,5.36 -7.15,5.36 -3.945,0 -7.143,-2.399 -7.143,-5.36 0,-2.961 3.198,-5.363 7.143,-5.363 3.951,0 7.15,2.402 7.15,5.363 z"
           style="fill:none;stroke:#000000;stroke-width:0.083218;stroke-linecap:butt;stroke-linejoin:miter;stroke-miterlimit:4;stroke-opacity:1;stroke-dasharray:none"
           id="path3023"
           inkscape:connector-curvature="0" /></g><g
         id="g3025"
         transform="matrix(0.748567,0,0,-1,18.008,431.999)"><path
           d="m 213.815,401.668 c 0,2.961 -3.199,5.363 -7.144,5.363 -3.95,0 -7.149,-2.402 -7.149,-5.363 0,-2.961 3.199,-5.359 7.149,-5.359 3.945,0 7.144,2.398 7.144,5.359 z"
           style="fill:none;stroke:#000000;stroke-width:0.083218;stroke-linecap:butt;stroke-linejoin:miter;stroke-miterlimit:4;stroke-opacity:1;stroke-dasharray:none"
           id="path3027"
           inkscape:connector-curvature="0" /></g><g
         id="g3029"
         transform="matrix(0.748567,0,0,-1,18.008,431.999)"><path
           d="m 213.815,263.07 c 0,2.961 -3.199,5.36 -7.144,5.36 -3.95,0 -7.149,-2.399 -7.149,-5.36 0,-2.961 3.199,-5.363 7.149,-5.363 3.945,0 7.144,2.402 7.144,5.363 z"
           style="fill:none;stroke:#000000;stroke-width:0.083218;stroke-linecap:butt;stroke-linejoin:miter;stroke-miterlimit:4;stroke-opacity:1;stroke-dasharray:none"
           id="path3031"
           inkscape:connector-curvature="0" /></g><g
         id="g3033"
         transform="matrix(1,0,0,-1,18.008,431.999)"><path
           d="m 111.93,271.047 57.473,0 0,122.297 -57.473,0 0,-122.297 z"
           style="fill:none;stroke:#000000;stroke-width:0.072;stroke-linecap:butt;stroke-linejoin:miter;stroke-miterlimit:4;stroke-opacity:1;stroke-dasharray:none"
           id="path3035"
           inkscape:connector-curvature="0" /></g></g></g></svg>