<?xml version="1.0" encoding="UTF-8" standalone="no"?>
<!-- Created with Inkscape (http://www.inkscape.org/) -->

<svg
   xmlns:dc="http://purl.org/dc/elements/1.1/"
   xmlns:cc="http://creativecommons.org/ns#"
   xmlns:rdf="http://www.w3.org/1999/02/22-rdf-syntax-ns#"
   xmlns:svg="http://www.w3.org/2000/svg"
   xmlns="http://www.w3.org/2000/svg"
   xmlns:sodipodi="http://sodipodi.sourceforge.net/DTD/sodipodi-0.dtd"
   xmlns:inkscape="http://www.inkscape.org/namespaces/inkscape"
   width="180"
   height="180"
   id="svg3177"
   version="1.1"
   inkscape:version="0.48.4 r9939"
   sodipodi:docname="New document 4">
  <defs
     id="defs3179" />
  <sodipodi:namedview
     id="base"
     pagecolor="#ffffff"
     bordercolor="#666666"
     borderopacity="1.0"
     inkscape:pageopacity="0.0"
     inkscape:pageshadow="2"
     inkscape:zoom="0.35"
     inkscape:cx="352.14286"
     inkscape:cy="545.71429"
     inkscape:document-units="in"
     inkscape:current-layer="layer1"
     showgrid="false"
     units="in"
     inkscape:window-width="1366"
     inkscape:window-height="705"
     inkscape:window-x="-8"
     inkscape:window-y="-8"
     inkscape:window-maximized="1" />
  <metadata
     id="metadata3182">
    <rdf:RDF>
      <cc:Work
         rdf:about="">
        <dc:format>image/svg+xml</dc:format>
        <dc:type
           rdf:resource="http://purl.org/dc/dcmitype/StillImage" />
        <dc:title></dc:title>
      </cc:Work>
    </rdf:RDF>
  </metadata>
  <g
     inkscape:label="Layer 1"
     inkscape:groupmode="layer"
     id="layer1"
     transform="translate(0,-872.35975)">
    <g
       id="g3227"
       transform="translate(-182.67348,442.70784)">
      <g
         id="g3001"
         transform="matrix(1.25,0,0,1.0840225,278.73723,837.55826)">
        <path
           d="m -43.871,-216.461 c 0,3.405 -2.399,6.162 -5.352,6.162 -2.953,0 -5.347,-2.757 -5.347,-6.162 0,-3.405 2.394,-6.166 5.347,-6.166 2.953,0 5.352,2.761 5.352,6.166 z"
           style="fill:none;stroke:#000000;stroke-width:0.0773158;stroke-linecap:butt;stroke-linejoin:miter;stroke-miterlimit:4;stroke-opacity:1;stroke-dasharray:none"
           id="path3003"
           inkscape:connector-curvature="0" />
      </g>
      <g
         id="g3005"
         transform="matrix(1.25,0,0,1.0838525,278.73723,837.55826)">
        <path
           d="m -66.102,-242.061 c 0,3.401 -2.398,6.163 -5.351,6.163 -2.953,0 -5.348,-2.762 -5.348,-6.163 0,-3.406 2.395,-6.167 5.348,-6.167 2.953,0 5.351,2.761 5.351,6.167 z"
           style="fill:none;stroke:#000000;stroke-width:0.0773219;stroke-linecap:butt;stroke-linejoin:miter;stroke-miterlimit:4;stroke-opacity:1;stroke-dasharray:none"
           id="path3007"
           inkscape:connector-curvature="0" />
      </g>
      <g
         id="g3009"
         transform="matrix(1.25,0,0,1.0838525,278.73723,837.55826)">
        <path
           d="m -21.75,-242.097 c 0,3.406 -2.395,6.168 -5.348,6.168 -2.957,0 -5.351,-2.762 -5.351,-6.168 0,-3.406 2.394,-6.167 5.351,-6.167 2.953,0 5.348,2.761 5.348,6.167 z"
           style="fill:none;stroke:#000000;stroke-width:0.0773219;stroke-linecap:butt;stroke-linejoin:miter;stroke-miterlimit:4;stroke-opacity:1;stroke-dasharray:none"
           id="path3011"
           inkscape:connector-curvature="0" />
      </g>
      <g
         id="g3013"
         transform="matrix(1.25,0,0,1.0838525,278.73723,837.55826)">
        <path
           d="m -43.879,-267.591 c 0,3.406 -2.394,6.167 -5.351,6.167 -2.954,0 -5.348,-2.761 -5.348,-6.167 0,-3.401 2.394,-6.163 5.348,-6.163 2.957,0 5.351,2.762 5.351,6.163 z"
           style="fill:none;stroke:#000000;stroke-width:0.0773219;stroke-linecap:butt;stroke-linejoin:miter;stroke-miterlimit:4;stroke-opacity:1;stroke-dasharray:none"
           id="path3015"
           inkscape:connector-curvature="0" />
      </g>
    </g>
  </g>
</svg>
