<?xml version="1.0" encoding="UTF-8" standalone="no"?>
<!-- Created with Inkscape (http://www.inkscape.org/) -->

<svg
   xmlns:dc="http://purl.org/dc/elements/1.1/"
   xmlns:cc="http://creativecommons.org/ns#"
   xmlns:rdf="http://www.w3.org/1999/02/22-rdf-syntax-ns#"
   xmlns:svg="http://www.w3.org/2000/svg"
   xmlns="http://www.w3.org/2000/svg"
   xmlns:sodipodi="http://sodipodi.sourceforge.net/DTD/sodipodi-0.dtd"
   xmlns:inkscape="http://www.inkscape.org/namespaces/inkscape"
   width="453.5433"
   height="226.77165"
   id="svg2"
   version="1.1"
   inkscape:version="0.48.4 r9939"
   sodipodi:docname="Two Long Flat 3x.svg">
  <defs
     id="defs4" />
  <sodipodi:namedview
     id="base"
     pagecolor="#ffffff"
     bordercolor="#666666"
     borderopacity="1.0"
     inkscape:pageopacity="0.0"
     inkscape:pageshadow="2"
     inkscape:zoom="1.6207619"
     inkscape:cx="38.227174"
     inkscape:cy="155.10668"
     inkscape:document-units="mm"
     inkscape:current-layer="layer1"
     showgrid="false"
     units="mm"
     inkscape:window-width="1366"
     inkscape:window-height="705"
     inkscape:window-x="-8"
     inkscape:window-y="-8"
     inkscape:window-maximized="1" />
  <metadata
     id="metadata7">
    <rdf:RDF>
      <cc:Work
         rdf:about="">
        <dc:format>image/svg+xml</dc:format>
        <dc:type
           rdf:resource="http://purl.org/dc/dcmitype/StillImage" />
      </cc:Work>
    </rdf:RDF>
  </metadata>
  <g
     inkscape:label="Layer 1"
     inkscape:groupmode="layer"
     id="layer1"
     transform="translate(0,-825.5905)">
    <rect
       ry="45.995201"
       height="91.990402"
       width="198.2998"
       y="949.67401"
       x="14.236176"
       id="rect3121"
       style="fill:none;stroke:#ff0000;stroke-width:0.0758683;stroke-linejoin:miter;stroke-miterlimit:4;stroke-opacity:1;stroke-dasharray:none;stroke-dashoffset:0" />
    <path
       id="path3123"
       d="m 70.810687,995.66285 c 0,7.79975 -6.310825,14.11065 -14.110722,14.11065 -7.799897,0 -14.110722,-6.3109 -14.110722,-14.11065 0,-7.79989 6.310825,-14.11071 14.110722,-14.11071 7.799897,0 14.110722,6.31082 14.110722,14.11071 z"
       style="fill:none;stroke:#ff0000;stroke-width:0.0900001;stroke-linecap:butt;stroke-linejoin:miter;stroke-miterlimit:4;stroke-opacity:1;stroke-dasharray:none"
       inkscape:connector-curvature="0" />
    <path
       id="path3125"
       d="m 34.829455,995.67122 c 0,3.57875 -2.905477,6.48418 -6.484175,6.48418 -3.578697,0 -6.484175,-2.90543 -6.484175,-6.48418 0,-3.57874 2.905477,-6.48425 6.484175,-6.48425 3.578698,0 6.484175,2.90551 6.484175,6.48425 z"
       style="fill:none;stroke:#ff0000;stroke-width:0.0900001;stroke-linecap:butt;stroke-linejoin:miter;stroke-miterlimit:4;stroke-opacity:1;stroke-dasharray:none"
       inkscape:connector-curvature="0" />
    <path
       id="path3127"
       d="m 91.521693,995.67122 c 0,3.57875 -2.905476,6.48418 -6.484174,6.48418 -3.578697,0 -6.484175,-2.90543 -6.484175,-6.48418 0,-3.57874 2.905478,-6.48425 6.484175,-6.48425 3.578698,0 6.484174,2.90551 6.484174,6.48425 z"
       style="fill:none;stroke:#ff0000;stroke-width:0.0900001;stroke-linecap:butt;stroke-linejoin:miter;stroke-miterlimit:4;stroke-opacity:1;stroke-dasharray:none"
       inkscape:connector-curvature="0" />
    <path
       id="path3129"
       d="m 56.6914,973.80901 c -3.578698,0 -6.484175,-2.90551 -6.484175,-6.48425 0,-3.57874 2.905477,-6.48425 6.484175,-6.48425 3.578697,0 6.484175,2.90551 6.484175,6.48425 0,3.57874 -2.905478,6.48425 -6.484175,6.48425 z"
       style="fill:none;stroke:#ff0000;stroke-width:0.0900001;stroke-linecap:butt;stroke-linejoin:miter;stroke-miterlimit:4;stroke-opacity:1;stroke-dasharray:none"
       inkscape:connector-curvature="0" />
    <path
       id="path3131"
       d="m 56.6914,1030.5019 c -3.578698,0 -6.484175,-2.9056 -6.484175,-6.4843 0,-3.5787 2.905477,-6.4842 6.484175,-6.4842 3.578697,0 6.484175,2.9055 6.484175,6.4842 0,3.5787 -2.905478,6.4843 -6.484175,6.4843 z"
       style="fill:none;stroke:#ff0000;stroke-width:0.0900001;stroke-linecap:butt;stroke-linejoin:miter;stroke-miterlimit:4;stroke-opacity:1;stroke-dasharray:none"
       inkscape:connector-curvature="0" />
    <path
       id="path3133"
       d="m 184.19677,995.66279 c 0,7.79981 -6.31083,14.11071 -14.11073,14.11071 -7.79989,0 -14.11072,-6.3109 -14.11072,-14.11071 0,-7.79989 6.31083,-14.11071 14.11072,-14.11071 7.7999,0 14.11073,6.31082 14.11073,14.11071 z"
       style="fill:none;stroke:#ff0000;stroke-width:0.0900001;stroke-linecap:butt;stroke-linejoin:miter;stroke-miterlimit:4;stroke-opacity:1;stroke-dasharray:none"
       inkscape:connector-curvature="0" />
    <path
       id="path3135"
       d="m 148.21554,995.67116 c 0,3.57875 -2.90548,6.48424 -6.48418,6.48424 -3.5787,0 -6.48417,-2.90549 -6.48417,-6.48424 0,-3.57874 2.90547,-6.48425 6.48417,-6.48425 3.5787,0 6.48418,2.90551 6.48418,6.48425 z"
       style="fill:none;stroke:#ff0000;stroke-width:0.0900001;stroke-linecap:butt;stroke-linejoin:miter;stroke-miterlimit:4;stroke-opacity:1;stroke-dasharray:none"
       inkscape:connector-curvature="0" />
    <path
       id="path3137"
       d="m 204.90777,995.67116 c 0,3.57875 -2.90548,6.48424 -6.48417,6.48424 -3.5787,0 -6.48418,-2.90549 -6.48418,-6.48424 0,-3.57874 2.90548,-6.48425 6.48418,-6.48425 3.57869,0 6.48417,2.90551 6.48417,6.48425 z"
       style="fill:none;stroke:#ff0000;stroke-width:0.0900001;stroke-linecap:butt;stroke-linejoin:miter;stroke-miterlimit:4;stroke-opacity:1;stroke-dasharray:none"
       inkscape:connector-curvature="0" />
    <path
       id="path3139"
       d="m 170.07747,973.80895 c -3.57869,0 -6.48417,-2.90551 -6.48417,-6.48425 0,-3.57874 2.90548,-6.48425 6.48417,-6.48425 3.5787,0 6.48419,2.90551 6.48419,6.48425 0,3.57874 -2.90549,6.48425 -6.48419,6.48425 z"
       style="fill:none;stroke:#ff0000;stroke-width:0.0900001;stroke-linecap:butt;stroke-linejoin:miter;stroke-miterlimit:4;stroke-opacity:1;stroke-dasharray:none"
       inkscape:connector-curvature="0" />
    <path
       id="path3141"
       d="m 170.07747,1030.5019 c -3.57869,0 -6.48417,-2.9056 -6.48417,-6.4843 0,-3.5787 2.90548,-6.4842 6.48417,-6.4842 3.5787,0 6.48419,2.9055 6.48419,6.4842 0,3.5787 -2.90549,6.4843 -6.48419,6.4843 z"
       style="fill:none;stroke:#ff0000;stroke-width:0.0900001;stroke-linecap:butt;stroke-linejoin:miter;stroke-miterlimit:4;stroke-opacity:1;stroke-dasharray:none"
       inkscape:connector-curvature="0" />
    <path
       id="path3143"
       d="m 127.49516,995.67132 c 0,7.79968 -6.31082,14.11058 -14.11072,14.11058 -7.7999,0 -14.110721,-6.3109 -14.110721,-14.11058 0,-7.7999 6.310821,-14.1108 14.110721,-14.1108 7.7999,0 14.11072,6.3109 14.11072,14.1108 z"
       style="fill:none;stroke:#ff0000;stroke-width:0.0900001;stroke-linecap:butt;stroke-linejoin:miter;stroke-miterlimit:4;stroke-opacity:1;stroke-dasharray:none"
       inkscape:connector-curvature="0" />
    <path
       inkscape:connector-curvature="0"
       style="fill:none;stroke:#ff0000;stroke-width:0.0900001;stroke-linecap:butt;stroke-linejoin:miter;stroke-miterlimit:4;stroke-opacity:1;stroke-dasharray:none"
       d="m 41.23267,1011.1299 c 2.530563,2.5305 2.530563,6.6395 4.3e-5,9.17 -2.530522,2.5305 -6.639487,2.5305 -9.170051,0 -2.530558,-2.5306 -2.530586,-6.6396 -6.3e-5,-9.1701 2.530521,-2.5305 6.639514,-2.5305 9.170071,10e-5 z"
       id="path3145" />
    <path
       inkscape:connector-curvature="0"
       style="fill:none;stroke:#ff0000;stroke-width:0.0900001;stroke-linecap:butt;stroke-linejoin:miter;stroke-miterlimit:4;stroke-opacity:1;stroke-dasharray:none"
       d="m 81.320135,971.04253 c 2.530564,2.53056 2.530564,6.63952 4.4e-5,9.17003 -2.530523,2.53052 -6.639487,2.53052 -9.17005,-4e-5 -2.530558,-2.53055 -2.530585,-6.63954 -6.3e-5,-9.17005 2.530521,-2.53052 6.639513,-2.53049 9.17007,6e-5 z"
       id="path3147" />
    <path
       inkscape:connector-curvature="0"
       style="fill:none;stroke:#ff0000;stroke-width:0.0900001;stroke-linecap:butt;stroke-linejoin:miter;stroke-miterlimit:4;stroke-opacity:1;stroke-dasharray:none"
       d="m 41.232449,980.2123 c -2.530522,2.53051 -6.639515,2.53049 -9.170072,-7e-5 -2.530557,-2.53055 -2.530585,-6.63953 -6.4e-5,-9.17005 2.530521,-2.53051 6.639516,-2.53048 9.170072,7e-5 2.530556,2.53055 2.530583,6.63953 6.3e-5,9.17005 z"
       id="path3149" />
    <path
       inkscape:connector-curvature="0"
       style="fill:none;stroke:#ff0000;stroke-width:0.0900001;stroke-linecap:butt;stroke-linejoin:miter;stroke-miterlimit:4;stroke-opacity:1;stroke-dasharray:none"
       d="m 81.320491,1020.3002 c -2.530522,2.5305 -6.639578,2.5304 -9.170106,-10e-5 -2.530529,-2.5305 -2.53055,-6.6395 -2.8e-5,-9.17 2.53052,-2.5305 6.639507,-2.5305 9.170036,0 2.530529,2.5305 2.530619,6.6396 9.8e-5,9.1701 z"
       id="path3151" />
    <g
       style="stroke:#ff0000;stroke-width:0.09;stroke-miterlimit:4;stroke-opacity:1;stroke-dasharray:none"
       transform="matrix(0.70710834,-0.70710678,0.70710834,0.70710678,-654.23265,411.89055)"
       id="g3153">
      <path
         id="path3155"
         d="m 148.21685,995.66922 c 0,3.57875 -2.90547,6.48428 -6.48416,6.48428 -3.57869,0 -6.48416,-2.90553 -6.48416,-6.48428 0,-3.57874 2.90547,-6.48425 6.48416,-6.48425 3.57869,0 6.48416,2.90551 6.48416,6.48425 z"
         style="fill:none;stroke:#ff0000;stroke-width:0.09;stroke-linecap:butt;stroke-linejoin:miter;stroke-miterlimit:4;stroke-opacity:1;stroke-dasharray:none"
         inkscape:connector-curvature="0" />
      <path
         id="path3157"
         d="m 204.90896,995.66922 c 0,3.57875 -2.90547,6.48428 -6.48416,6.48428 -3.57869,0 -6.48416,-2.90553 -6.48416,-6.48428 0,-3.57874 2.90547,-6.48425 6.48416,-6.48425 3.57869,0 6.48416,2.90551 6.48416,6.48425 z"
         style="fill:none;stroke:#ff0000;stroke-width:0.09;stroke-linecap:butt;stroke-linejoin:miter;stroke-miterlimit:4;stroke-opacity:1;stroke-dasharray:none"
         inkscape:connector-curvature="0" />
      <path
         id="path3159"
         d="m 170.07874,973.80701 c -3.57869,0 -6.48416,-2.90551 -6.48416,-6.48425 0,-3.57874 2.90547,-6.48425 6.48416,-6.48425 3.57869,0 6.48417,2.90551 6.48417,6.48425 0,3.57874 -2.90548,6.48425 -6.48417,6.48425 z"
         style="fill:none;stroke:#ff0000;stroke-width:0.09;stroke-linecap:butt;stroke-linejoin:miter;stroke-miterlimit:4;stroke-opacity:1;stroke-dasharray:none"
         inkscape:connector-curvature="0" />
      <path
         id="path3161"
         d="m 170.07874,1030.5 c -3.57869,0 -6.48416,-2.9056 -6.48416,-6.4843 0,-3.5787 2.90547,-6.4842 6.48416,-6.4842 3.57869,0 6.48417,2.9055 6.48417,6.4842 0,3.5787 -2.90548,6.4843 -6.48417,6.4843 z"
         style="fill:none;stroke:#ff0000;stroke-width:0.09;stroke-linecap:butt;stroke-linejoin:miter;stroke-miterlimit:4;stroke-opacity:1;stroke-dasharray:none"
         inkscape:connector-curvature="0" />
    </g>
    <rect
       ry="45.765224"
       height="91.530449"
       width="198.2998"
       y="832.51526"
       x="240.88333"
       id="rect3167"
       style="fill:none;stroke:#ff0000;stroke-width:0.07567839;stroke-linejoin:miter;stroke-miterlimit:4;stroke-opacity:1;stroke-dasharray:none;stroke-dashoffset:0" />
    <path
       id="path3169"
       d="m 297.45784,878.27412 c 0,7.76077 -6.31083,14.04011 -14.11073,14.04011 -7.79989,0 -14.11072,-6.27934 -14.11072,-14.04011 0,-7.76089 6.31083,-14.04016 14.11072,-14.04016 7.7999,0 14.11073,6.27927 14.11073,14.04016 z"
       style="fill:none;stroke:#ff0000;stroke-width:0.08977482;stroke-linecap:butt;stroke-linejoin:miter;stroke-miterlimit:4;stroke-opacity:1;stroke-dasharray:none"
       inkscape:connector-curvature="0" />
    <path
       id="path3171"
       d="m 261.4766,878.28244 c 0,3.56086 -2.90547,6.45178 -6.48417,6.45178 -3.5787,0 -6.48417,-2.89092 -6.48417,-6.45178 0,-3.56084 2.90547,-6.45182 6.48417,-6.45182 3.5787,0 6.48417,2.89098 6.48417,6.45182 z"
       style="fill:none;stroke:#ff0000;stroke-width:0.08977482;stroke-linecap:butt;stroke-linejoin:miter;stroke-miterlimit:4;stroke-opacity:1;stroke-dasharray:none"
       inkscape:connector-curvature="0" />
    <path
       id="path3173"
       d="m 318.16884,878.28244 c 0,3.56086 -2.90547,6.45178 -6.48417,6.45178 -3.5787,0 -6.48418,-2.89092 -6.48418,-6.45178 0,-3.56084 2.90548,-6.45182 6.48418,-6.45182 3.5787,0 6.48417,2.89098 6.48417,6.45182 z"
       style="fill:none;stroke:#ff0000;stroke-width:0.08977482;stroke-linecap:butt;stroke-linejoin:miter;stroke-miterlimit:4;stroke-opacity:1;stroke-dasharray:none"
       inkscape:connector-curvature="0" />
    <path
       id="path3175"
       d="m 283.33855,856.52955 c -3.5787,0 -6.48417,-2.89099 -6.48417,-6.45183 0,-3.56085 2.90547,-6.45183 6.48417,-6.45183 3.5787,0 6.48417,2.89098 6.48417,6.45183 0,3.56084 -2.90547,6.45183 -6.48417,6.45183 z"
       style="fill:none;stroke:#ff0000;stroke-width:0.08977482;stroke-linecap:butt;stroke-linejoin:miter;stroke-miterlimit:4;stroke-opacity:1;stroke-dasharray:none"
       inkscape:connector-curvature="0" />
    <path
       id="path3177"
       d="m 283.33855,912.93899 c -3.5787,0 -6.48417,-2.89107 -6.48417,-6.45188 0,-3.5608 2.90547,-6.45178 6.48417,-6.45178 3.5787,0 6.48417,2.89098 6.48417,6.45178 0,3.56081 -2.90547,6.45188 -6.48417,6.45188 z"
       style="fill:none;stroke:#ff0000;stroke-width:0.08977482;stroke-linecap:butt;stroke-linejoin:miter;stroke-miterlimit:4;stroke-opacity:1;stroke-dasharray:none"
       inkscape:connector-curvature="0" />
    <path
       id="path3179"
       d="m 410.84392,878.27406 c 0,7.76083 -6.31083,14.04017 -14.11073,14.04017 -7.79989,0 -14.11072,-6.27934 -14.11072,-14.04017 0,-7.76089 6.31083,-14.04016 14.11072,-14.04016 7.7999,0 14.11073,6.27927 14.11073,14.04016 z"
       style="fill:none;stroke:#ff0000;stroke-width:0.08977482;stroke-linecap:butt;stroke-linejoin:miter;stroke-miterlimit:4;stroke-opacity:1;stroke-dasharray:none"
       inkscape:connector-curvature="0" />
    <path
       id="path3181"
       d="m 374.86269,878.28238 c 0,3.56086 -2.90548,6.45184 -6.48418,6.45184 -3.5787,0 -6.48417,-2.89098 -6.48417,-6.45184 0,-3.56084 2.90547,-6.45182 6.48417,-6.45182 3.5787,0 6.48418,2.89098 6.48418,6.45182 z"
       style="fill:none;stroke:#ff0000;stroke-width:0.08977482;stroke-linecap:butt;stroke-linejoin:miter;stroke-miterlimit:4;stroke-opacity:1;stroke-dasharray:none"
       inkscape:connector-curvature="0" />
    <path
       id="path3183"
       d="m 431.55492,878.28238 c 0,3.56086 -2.90548,6.45184 -6.48417,6.45184 -3.5787,0 -6.48418,-2.89098 -6.48418,-6.45184 0,-3.56084 2.90548,-6.45182 6.48418,-6.45182 3.57869,0 6.48417,2.89098 6.48417,6.45182 z"
       style="fill:none;stroke:#ff0000;stroke-width:0.08977482;stroke-linecap:butt;stroke-linejoin:miter;stroke-miterlimit:4;stroke-opacity:1;stroke-dasharray:none"
       inkscape:connector-curvature="0" />
    <path
       id="path3185"
       d="m 396.72462,856.52949 c -3.57869,0 -6.48417,-2.89099 -6.48417,-6.45183 0,-3.56085 2.90548,-6.45183 6.48417,-6.45183 3.5787,0 6.48419,2.89098 6.48419,6.45183 0,3.56084 -2.90549,6.45183 -6.48419,6.45183 z"
       style="fill:none;stroke:#ff0000;stroke-width:0.08977482;stroke-linecap:butt;stroke-linejoin:miter;stroke-miterlimit:4;stroke-opacity:1;stroke-dasharray:none"
       inkscape:connector-curvature="0" />
    <path
       id="path3187"
       d="m 396.72462,912.93899 c -3.57869,0 -6.48417,-2.89107 -6.48417,-6.45188 0,-3.5608 2.90548,-6.45178 6.48417,-6.45178 3.5787,0 6.48419,2.89098 6.48419,6.45178 0,3.56081 -2.90549,6.45188 -6.48419,6.45188 z"
       style="fill:none;stroke:#ff0000;stroke-width:0.08977482;stroke-linecap:butt;stroke-linejoin:miter;stroke-miterlimit:4;stroke-opacity:1;stroke-dasharray:none"
       inkscape:connector-curvature="0" />
    <path
       id="path3189"
       d="m 354.14231,878.28254 c 0,7.7607 -6.31082,14.04005 -14.11072,14.04005 -7.7999,0 -14.11072,-6.27935 -14.11072,-14.04005 0,-7.7609 6.31082,-14.04024 14.11072,-14.04024 7.7999,0 14.11072,6.27934 14.11072,14.04024 z"
       style="fill:none;stroke:#ff0000;stroke-width:0.08977482;stroke-linecap:butt;stroke-linejoin:miter;stroke-miterlimit:4;stroke-opacity:1;stroke-dasharray:none"
       inkscape:connector-curvature="0" />
    <path
       inkscape:connector-curvature="0"
       style="fill:none;stroke:#ff0000;stroke-width:0.08977482;stroke-linecap:butt;stroke-linejoin:miter;stroke-miterlimit:4;stroke-opacity:1;stroke-dasharray:none"
       d="m 267.87982,893.66385 c 2.53056,2.51785 2.53056,6.6063 4e-5,9.12415 -2.53052,2.51785 -6.63948,2.51785 -9.17005,0 -2.53056,-2.51795 -2.53058,-6.6064 -6e-5,-9.12425 2.53052,-2.51785 6.63951,-2.51785 9.17007,10e-5 z"
       id="path3191" />
    <path
       inkscape:connector-curvature="0"
       style="fill:none;stroke:#ff0000;stroke-width:0.08977482;stroke-linecap:butt;stroke-linejoin:miter;stroke-miterlimit:4;stroke-opacity:1;stroke-dasharray:none"
       d="m 307.96728,853.7769 c 2.53057,2.5179 2.53057,6.60632 5e-5,9.12418 -2.53052,2.51786 -6.63949,2.51786 -9.17005,-4e-5 -2.53056,-2.5179 -2.53059,-6.60634 -6e-5,-9.1242 2.53052,-2.51787 6.63951,-2.51784 9.17007,6e-5 z"
       id="path3193" />
    <path
       inkscape:connector-curvature="0"
       style="fill:none;stroke:#ff0000;stroke-width:0.08977482;stroke-linecap:butt;stroke-linejoin:miter;stroke-miterlimit:4;stroke-opacity:1;stroke-dasharray:none"
       d="m 267.8796,862.90082 c -2.53052,2.51786 -6.63952,2.51784 -9.17007,-7e-5 -2.53056,-2.5179 -2.53059,-6.60633 -7e-5,-9.1242 2.53052,-2.51786 6.63952,-2.51783 9.17007,7e-5 2.53056,2.5179 2.53059,6.60633 7e-5,9.1242 z"
       id="path3195" />
    <path
       inkscape:connector-curvature="0"
       style="fill:none;stroke:#ff0000;stroke-width:0.08977482;stroke-linecap:butt;stroke-linejoin:miter;stroke-miterlimit:4;stroke-opacity:1;stroke-dasharray:none"
       d="m 307.96764,902.7883 c -2.53052,2.51785 -6.63958,2.51775 -9.17011,-1e-4 -2.53052,-2.51785 -2.53054,-6.6063 -2e-5,-9.12415 2.53052,-2.51785 6.6395,-2.51785 9.17003,0 2.53053,2.51785 2.53062,6.6064 1e-4,9.12425 z"
       id="path3197" />
    <g
       style="stroke:#ff0000;stroke-width:0.09;stroke-miterlimit:4;stroke-opacity:1;stroke-dasharray:none"
       transform="matrix(0.70710834,-0.70357125,0.70710834,0.70357125,-427.5855,297.42068)"
       id="g3199">
      <path
         id="path3201"
         d="m 148.21685,995.66922 c 0,3.57875 -2.90547,6.48428 -6.48416,6.48428 -3.57869,0 -6.48416,-2.90553 -6.48416,-6.48428 0,-3.57874 2.90547,-6.48425 6.48416,-6.48425 3.57869,0 6.48416,2.90551 6.48416,6.48425 z"
         style="fill:none;stroke:#ff0000;stroke-width:0.09;stroke-linecap:butt;stroke-linejoin:miter;stroke-miterlimit:4;stroke-opacity:1;stroke-dasharray:none"
         inkscape:connector-curvature="0" />
      <path
         id="path3203"
         d="m 204.90896,995.66922 c 0,3.57875 -2.90547,6.48428 -6.48416,6.48428 -3.57869,0 -6.48416,-2.90553 -6.48416,-6.48428 0,-3.57874 2.90547,-6.48425 6.48416,-6.48425 3.57869,0 6.48416,2.90551 6.48416,6.48425 z"
         style="fill:none;stroke:#ff0000;stroke-width:0.09;stroke-linecap:butt;stroke-linejoin:miter;stroke-miterlimit:4;stroke-opacity:1;stroke-dasharray:none"
         inkscape:connector-curvature="0" />
      <path
         id="path3205"
         d="m 170.07874,973.80701 c -3.57869,0 -6.48416,-2.90551 -6.48416,-6.48425 0,-3.57874 2.90547,-6.48425 6.48416,-6.48425 3.57869,0 6.48417,2.90551 6.48417,6.48425 0,3.57874 -2.90548,6.48425 -6.48417,6.48425 z"
         style="fill:none;stroke:#ff0000;stroke-width:0.09;stroke-linecap:butt;stroke-linejoin:miter;stroke-miterlimit:4;stroke-opacity:1;stroke-dasharray:none"
         inkscape:connector-curvature="0" />
      <path
         id="path3207"
         d="m 170.07874,1030.5 c -3.57869,0 -6.48416,-2.9056 -6.48416,-6.4843 0,-3.5787 2.90547,-6.4842 6.48416,-6.4842 3.57869,0 6.48417,2.9055 6.48417,6.4842 0,3.5787 -2.90548,6.4843 -6.48417,6.4843 z"
         style="fill:none;stroke:#ff0000;stroke-width:0.09;stroke-linecap:butt;stroke-linejoin:miter;stroke-miterlimit:4;stroke-opacity:1;stroke-dasharray:none"
         inkscape:connector-curvature="0" />
    </g>
    <rect
       ry="45.765224"
       height="91.530449"
       width="198.2998"
       y="945.77606"
       x="240.88333"
       id="rect3213"
       style="fill:none;stroke:#ff0000;stroke-width:0.07567839;stroke-linejoin:miter;stroke-miterlimit:4;stroke-opacity:1;stroke-dasharray:none;stroke-dashoffset:0" />
    <path
       id="path3215"
       d="m 297.45784,991.53493 c 0,7.76077 -6.31083,14.04007 -14.11073,14.04007 -7.79989,0 -14.11072,-6.2793 -14.11072,-14.04007 0,-7.76089 6.31083,-14.04016 14.11072,-14.04016 7.7999,0 14.11073,6.27927 14.11073,14.04016 z"
       style="fill:none;stroke:#ff0000;stroke-width:0.08977482;stroke-linecap:butt;stroke-linejoin:miter;stroke-miterlimit:4;stroke-opacity:1;stroke-dasharray:none"
       inkscape:connector-curvature="0" />
    <path
       id="path3218"
       d="m 261.4766,991.54325 c 0,3.56086 -2.90547,6.45178 -6.48417,6.45178 -3.5787,0 -6.48417,-2.89092 -6.48417,-6.45178 0,-3.56084 2.90547,-6.45182 6.48417,-6.45182 3.5787,0 6.48417,2.89098 6.48417,6.45182 z"
       style="fill:none;stroke:#ff0000;stroke-width:0.08977482;stroke-linecap:butt;stroke-linejoin:miter;stroke-miterlimit:4;stroke-opacity:1;stroke-dasharray:none"
       inkscape:connector-curvature="0" />
    <path
       id="path3220"
       d="m 318.16884,991.54325 c 0,3.56086 -2.90547,6.45178 -6.48417,6.45178 -3.5787,0 -6.48418,-2.89092 -6.48418,-6.45178 0,-3.56084 2.90548,-6.45182 6.48418,-6.45182 3.5787,0 6.48417,2.89098 6.48417,6.45182 z"
       style="fill:none;stroke:#ff0000;stroke-width:0.08977482;stroke-linecap:butt;stroke-linejoin:miter;stroke-miterlimit:4;stroke-opacity:1;stroke-dasharray:none"
       inkscape:connector-curvature="0" />
    <path
       id="path3222"
       d="m 283.33855,969.79036 c -3.5787,0 -6.48417,-2.89099 -6.48417,-6.45183 0,-3.56085 2.90547,-6.45183 6.48417,-6.45183 3.5787,0 6.48417,2.89098 6.48417,6.45183 0,3.56084 -2.90547,6.45183 -6.48417,6.45183 z"
       style="fill:none;stroke:#ff0000;stroke-width:0.08977482;stroke-linecap:butt;stroke-linejoin:miter;stroke-miterlimit:4;stroke-opacity:1;stroke-dasharray:none"
       inkscape:connector-curvature="0" />
    <path
       id="path3224"
       d="m 283.33855,1026.1998 c -3.5787,0 -6.48417,-2.8911 -6.48417,-6.4519 0,-3.5608 2.90547,-6.4518 6.48417,-6.4518 3.5787,0 6.48417,2.891 6.48417,6.4518 0,3.5608 -2.90547,6.4519 -6.48417,6.4519 z"
       style="fill:none;stroke:#ff0000;stroke-width:0.08977482;stroke-linecap:butt;stroke-linejoin:miter;stroke-miterlimit:4;stroke-opacity:1;stroke-dasharray:none"
       inkscape:connector-curvature="0" />
    <path
       id="path3226"
       d="m 410.84392,991.53487 c 0,7.76083 -6.31083,14.04013 -14.11073,14.04013 -7.79989,0 -14.11072,-6.2793 -14.11072,-14.04013 0,-7.76089 6.31083,-14.04016 14.11072,-14.04016 7.7999,0 14.11073,6.27927 14.11073,14.04016 z"
       style="fill:none;stroke:#ff0000;stroke-width:0.08977482;stroke-linecap:butt;stroke-linejoin:miter;stroke-miterlimit:4;stroke-opacity:1;stroke-dasharray:none"
       inkscape:connector-curvature="0" />
    <path
       id="path3228"
       d="m 374.86269,991.54319 c 0,3.56086 -2.90548,6.45184 -6.48418,6.45184 -3.5787,0 -6.48417,-2.89098 -6.48417,-6.45184 0,-3.56084 2.90547,-6.45182 6.48417,-6.45182 3.5787,0 6.48418,2.89098 6.48418,6.45182 z"
       style="fill:none;stroke:#ff0000;stroke-width:0.08977482;stroke-linecap:butt;stroke-linejoin:miter;stroke-miterlimit:4;stroke-opacity:1;stroke-dasharray:none"
       inkscape:connector-curvature="0" />
    <path
       id="path3230"
       d="m 431.55492,991.54319 c 0,3.56086 -2.90548,6.45184 -6.48417,6.45184 -3.5787,0 -6.48418,-2.89098 -6.48418,-6.45184 0,-3.56084 2.90548,-6.45182 6.48418,-6.45182 3.57869,0 6.48417,2.89098 6.48417,6.45182 z"
       style="fill:none;stroke:#ff0000;stroke-width:0.08977482;stroke-linecap:butt;stroke-linejoin:miter;stroke-miterlimit:4;stroke-opacity:1;stroke-dasharray:none"
       inkscape:connector-curvature="0" />
    <path
       id="path3232"
       d="m 396.72462,969.7903 c -3.57869,0 -6.48417,-2.89099 -6.48417,-6.45183 0,-3.56085 2.90548,-6.45183 6.48417,-6.45183 3.5787,0 6.48419,2.89098 6.48419,6.45183 0,3.56084 -2.90549,6.45183 -6.48419,6.45183 z"
       style="fill:none;stroke:#ff0000;stroke-width:0.08977482;stroke-linecap:butt;stroke-linejoin:miter;stroke-miterlimit:4;stroke-opacity:1;stroke-dasharray:none"
       inkscape:connector-curvature="0" />
    <path
       id="path3234"
       d="m 396.72462,1026.1998 c -3.57869,0 -6.48417,-2.8911 -6.48417,-6.4519 0,-3.5608 2.90548,-6.4518 6.48417,-6.4518 3.5787,0 6.48419,2.891 6.48419,6.4518 0,3.5608 -2.90549,6.4519 -6.48419,6.4519 z"
       style="fill:none;stroke:#ff0000;stroke-width:0.08977482;stroke-linecap:butt;stroke-linejoin:miter;stroke-miterlimit:4;stroke-opacity:1;stroke-dasharray:none"
       inkscape:connector-curvature="0" />
    <path
       id="path3236"
       d="m 354.14231,991.54335 c 0,7.7607 -6.31082,14.04005 -14.11072,14.04005 -7.7999,0 -14.11072,-6.27935 -14.11072,-14.04005 0,-7.7609 6.31082,-14.04024 14.11072,-14.04024 7.7999,0 14.11072,6.27934 14.11072,14.04024 z"
       style="fill:none;stroke:#ff0000;stroke-width:0.08977482;stroke-linecap:butt;stroke-linejoin:miter;stroke-miterlimit:4;stroke-opacity:1;stroke-dasharray:none"
       inkscape:connector-curvature="0" />
    <path
       inkscape:connector-curvature="0"
       style="fill:none;stroke:#ff0000;stroke-width:0.08977482;stroke-linecap:butt;stroke-linejoin:miter;stroke-miterlimit:4;stroke-opacity:1;stroke-dasharray:none"
       d="m 267.87982,1006.9247 c 2.53056,2.5178 2.53056,6.6063 4e-5,9.1241 -2.53052,2.5179 -6.63948,2.5179 -9.17005,0 -2.53056,-2.5179 -2.53058,-6.6064 -6e-5,-9.1242 2.53052,-2.5179 6.63951,-2.5179 9.17007,10e-5 z"
       id="path3238" />
    <path
       inkscape:connector-curvature="0"
       style="fill:none;stroke:#ff0000;stroke-width:0.08977482;stroke-linecap:butt;stroke-linejoin:miter;stroke-miterlimit:4;stroke-opacity:1;stroke-dasharray:none"
       d="m 307.96728,967.03771 c 2.53057,2.5179 2.53057,6.60632 5e-5,9.12418 -2.53052,2.51786 -6.63949,2.51786 -9.17005,-4e-5 -2.53056,-2.5179 -2.53059,-6.60634 -6e-5,-9.1242 2.53052,-2.51787 6.63951,-2.51784 9.17007,6e-5 z"
       id="path3240" />
    <path
       inkscape:connector-curvature="0"
       style="fill:none;stroke:#ff0000;stroke-width:0.08977482;stroke-linecap:butt;stroke-linejoin:miter;stroke-miterlimit:4;stroke-opacity:1;stroke-dasharray:none"
       d="m 267.8796,976.16163 c -2.53052,2.51786 -6.63952,2.51784 -9.17007,-7e-5 -2.53056,-2.5179 -2.53059,-6.60633 -7e-5,-9.1242 2.53052,-2.51786 6.63952,-2.51783 9.17007,7e-5 2.53056,2.5179 2.53059,6.60633 7e-5,9.1242 z"
       id="path3242" />
    <path
       inkscape:connector-curvature="0"
       style="fill:none;stroke:#ff0000;stroke-width:0.08977482;stroke-linecap:butt;stroke-linejoin:miter;stroke-miterlimit:4;stroke-opacity:1;stroke-dasharray:none"
       d="m 307.96764,1016.0491 c -2.53052,2.5179 -6.63958,2.5178 -9.17011,-10e-5 -2.53052,-2.5178 -2.53054,-6.6063 -2e-5,-9.1241 2.53052,-2.5179 6.6395,-2.5179 9.17003,0 2.53053,2.5178 2.53062,6.6064 1e-4,9.1242 z"
       id="path3244" />
    <g
       style="stroke:#ff0000;stroke-width:0.09;stroke-miterlimit:4;stroke-opacity:1;stroke-dasharray:none"
       transform="matrix(0.70710834,-0.70357125,0.70710834,0.70357125,-427.5855,410.68149)"
       id="g3246">
      <path
         id="path3248"
         d="m 148.21685,995.66922 c 0,3.57875 -2.90547,6.48428 -6.48416,6.48428 -3.57869,0 -6.48416,-2.90553 -6.48416,-6.48428 0,-3.57874 2.90547,-6.48425 6.48416,-6.48425 3.57869,0 6.48416,2.90551 6.48416,6.48425 z"
         style="fill:none;stroke:#ff0000;stroke-width:0.09;stroke-linecap:butt;stroke-linejoin:miter;stroke-miterlimit:4;stroke-opacity:1;stroke-dasharray:none"
         inkscape:connector-curvature="0" />
      <path
         id="path3250"
         d="m 204.90896,995.66922 c 0,3.57875 -2.90547,6.48428 -6.48416,6.48428 -3.57869,0 -6.48416,-2.90553 -6.48416,-6.48428 0,-3.57874 2.90547,-6.48425 6.48416,-6.48425 3.57869,0 6.48416,2.90551 6.48416,6.48425 z"
         style="fill:none;stroke:#ff0000;stroke-width:0.09;stroke-linecap:butt;stroke-linejoin:miter;stroke-miterlimit:4;stroke-opacity:1;stroke-dasharray:none"
         inkscape:connector-curvature="0" />
      <path
         id="path3252"
         d="m 170.07874,973.80701 c -3.57869,0 -6.48416,-2.90551 -6.48416,-6.48425 0,-3.57874 2.90547,-6.48425 6.48416,-6.48425 3.57869,0 6.48417,2.90551 6.48417,6.48425 0,3.57874 -2.90548,6.48425 -6.48417,6.48425 z"
         style="fill:none;stroke:#ff0000;stroke-width:0.09;stroke-linecap:butt;stroke-linejoin:miter;stroke-miterlimit:4;stroke-opacity:1;stroke-dasharray:none"
         inkscape:connector-curvature="0" />
      <path
         id="path3254"
         d="m 170.07874,1030.5 c -3.57869,0 -6.48416,-2.9056 -6.48416,-6.4843 0,-3.5787 2.90547,-6.4842 6.48416,-6.4842 3.57869,0 6.48417,2.9055 6.48417,6.4842 0,3.5787 -2.90548,6.4843 -6.48417,6.4843 z"
         style="fill:none;stroke:#ff0000;stroke-width:0.09;stroke-linecap:butt;stroke-linejoin:miter;stroke-miterlimit:4;stroke-opacity:1;stroke-dasharray:none"
         inkscape:connector-curvature="0" />
    </g>
  </g>
</svg>
