<?xml version="1.0" encoding="UTF-8" standalone="no"?>
<!-- Created with Inkscape (http://www.inkscape.org/) -->

<svg
   xmlns:dc="http://purl.org/dc/elements/1.1/"
   xmlns:cc="http://creativecommons.org/ns#"
   xmlns:rdf="http://www.w3.org/1999/02/22-rdf-syntax-ns#"
   xmlns:svg="http://www.w3.org/2000/svg"
   xmlns="http://www.w3.org/2000/svg"
   xmlns:sodipodi="http://sodipodi.sourceforge.net/DTD/sodipodi-0.dtd"
   xmlns:inkscape="http://www.inkscape.org/namespaces/inkscape"
   width="226.77165"
   height="113.38583"
   id="svg2"
   version="1.1"
   inkscape:version="0.48.4 r9939"
   sodipodi:docname="Two Long Flat.svg">
  <defs
     id="defs4" />
  <sodipodi:namedview
     id="base"
     pagecolor="#ffffff"
     bordercolor="#666666"
     borderopacity="1.0"
     inkscape:pageopacity="0.0"
     inkscape:pageshadow="2"
     inkscape:zoom="1.6207619"
     inkscape:cx="38.227174"
     inkscape:cy="155.10668"
     inkscape:document-units="mm"
     inkscape:current-layer="layer1"
     showgrid="false"
     units="mm"
     inkscape:window-width="1366"
     inkscape:window-height="705"
     inkscape:window-x="-8"
     inkscape:window-y="-8"
     inkscape:window-maximized="1" />
  <metadata
     id="metadata7">
    <rdf:RDF>
      <cc:Work
         rdf:about="">
        <dc:format>image/svg+xml</dc:format>
        <dc:type
           rdf:resource="http://purl.org/dc/dcmitype/StillImage" />
      </cc:Work>
    </rdf:RDF>
  </metadata>
  <g
     inkscape:label="Layer 1"
     inkscape:groupmode="layer"
     id="layer1"
     transform="translate(0,-938.97631)">
    <rect
       style="fill:none;stroke:#ff0000;stroke-width:0.07586822;stroke-linejoin:miter;stroke-miterlimit:4;stroke-opacity:1;stroke-dasharray:none;stroke-dashoffset:0"
       id="rect2985"
       x="14.236145"
       y="949.67401"
       width="198.29936"
       height="91.990402"
       ry="45.995201" />
    <path
       inkscape:connector-curvature="0"
       style="fill:none;stroke:#ff0000;stroke-width:0.09;stroke-linecap:butt;stroke-linejoin:miter;stroke-miterlimit:4;stroke-opacity:1;stroke-dasharray:none"
       d="m 70.810531,995.66283 c 0,7.79977 -6.310811,14.11067 -14.110691,14.11067 -7.79988,0 -14.110691,-6.3109 -14.110691,-14.11067 0,-7.79989 6.310811,-14.11071 14.110691,-14.11071 7.79988,0 14.110691,6.31082 14.110691,14.11071 z"
       id="path3811-8" />
    <path
       inkscape:connector-curvature="0"
       style="fill:none;stroke:#ff0000;stroke-width:0.09;stroke-linecap:butt;stroke-linejoin:miter;stroke-miterlimit:4;stroke-opacity:1;stroke-dasharray:none"
       d="m 34.829378,995.6712 c 0,3.57875 -2.90547,6.4842 -6.48416,6.4842 -3.578689,0 -6.484161,-2.90545 -6.484161,-6.4842 0,-3.57874 2.905471,-6.48425 6.484161,-6.48425 3.57869,0 6.48416,2.90551 6.48416,6.48425 z"
       id="path3813-3" />
    <path
       inkscape:connector-curvature="0"
       style="fill:none;stroke:#ff0000;stroke-width:0.09;stroke-linecap:butt;stroke-linejoin:miter;stroke-miterlimit:4;stroke-opacity:1;stroke-dasharray:none"
       d="m 91.521492,995.6712 c 0,3.57875 -2.90547,6.4842 -6.48416,6.4842 -3.578689,0 -6.484161,-2.90545 -6.484161,-6.4842 0,-3.57874 2.905472,-6.48425 6.484161,-6.48425 3.57869,0 6.48416,2.90551 6.48416,6.48425 z"
       id="path3815-6" />
    <path
       inkscape:connector-curvature="0"
       style="fill:none;stroke:#ff0000;stroke-width:0.09;stroke-linecap:butt;stroke-linejoin:miter;stroke-miterlimit:4;stroke-opacity:1;stroke-dasharray:none"
       d="m 56.691275,973.80899 c -3.57869,0 -6.48416,-2.90551 -6.48416,-6.48425 0,-3.57874 2.90547,-6.48425 6.48416,-6.48425 3.578689,0 6.484161,2.90551 6.484161,6.48425 0,3.57874 -2.905472,6.48425 -6.484161,6.48425 z"
       id="path3817-4" />
    <path
       inkscape:connector-curvature="0"
       style="fill:none;stroke:#ff0000;stroke-width:0.09;stroke-linecap:butt;stroke-linejoin:miter;stroke-miterlimit:4;stroke-opacity:1;stroke-dasharray:none"
       d="m 56.691275,1030.5019 c -3.57869,0 -6.48416,-2.9056 -6.48416,-6.4843 0,-3.5787 2.90547,-6.4842 6.48416,-6.4842 3.578689,0 6.484161,2.9055 6.484161,6.4842 0,3.5787 -2.905472,6.4843 -6.484161,6.4843 z"
       id="path3819-54" />
    <path
       inkscape:connector-curvature="0"
       style="fill:none;stroke:#ff0000;stroke-width:0.09;stroke-linecap:butt;stroke-linejoin:miter;stroke-miterlimit:4;stroke-opacity:1;stroke-dasharray:none"
       d="m 184.19636,995.66277 c 0,7.79983 -6.31081,14.11073 -14.11069,14.11073 -7.79988,0 -14.11069,-6.3109 -14.11069,-14.11073 0,-7.79989 6.31081,-14.11071 14.11069,-14.11071 7.79988,0 14.11069,6.31082 14.11069,14.11071 z"
       id="path3811-8-0" />
    <path
       inkscape:connector-curvature="0"
       style="fill:none;stroke:#ff0000;stroke-width:0.09;stroke-linecap:butt;stroke-linejoin:miter;stroke-miterlimit:4;stroke-opacity:1;stroke-dasharray:none"
       d="m 148.21521,995.67114 c 0,3.57875 -2.90547,6.48426 -6.48416,6.48426 -3.57869,0 -6.48416,-2.90551 -6.48416,-6.48426 0,-3.57874 2.90547,-6.48425 6.48416,-6.48425 3.57869,0 6.48416,2.90551 6.48416,6.48425 z"
       id="path3813-3-9" />
    <path
       inkscape:connector-curvature="0"
       style="fill:none;stroke:#ff0000;stroke-width:0.09;stroke-linecap:butt;stroke-linejoin:miter;stroke-miterlimit:4;stroke-opacity:1;stroke-dasharray:none"
       d="m 204.90732,995.67114 c 0,3.57875 -2.90547,6.48426 -6.48416,6.48426 -3.57869,0 -6.48416,-2.90551 -6.48416,-6.48426 0,-3.57874 2.90547,-6.48425 6.48416,-6.48425 3.57869,0 6.48416,2.90551 6.48416,6.48425 z"
       id="path3815-6-4" />
    <path
       inkscape:connector-curvature="0"
       style="fill:none;stroke:#ff0000;stroke-width:0.09;stroke-linecap:butt;stroke-linejoin:miter;stroke-miterlimit:4;stroke-opacity:1;stroke-dasharray:none"
       d="m 170.0771,973.80893 c -3.57869,0 -6.48416,-2.90551 -6.48416,-6.48425 0,-3.57874 2.90547,-6.48425 6.48416,-6.48425 3.57869,0 6.48417,2.90551 6.48417,6.48425 0,3.57874 -2.90548,6.48425 -6.48417,6.48425 z"
       id="path3817-4-8" />
    <path
       inkscape:connector-curvature="0"
       style="fill:none;stroke:#ff0000;stroke-width:0.09;stroke-linecap:butt;stroke-linejoin:miter;stroke-miterlimit:4;stroke-opacity:1;stroke-dasharray:none"
       d="m 170.0771,1030.5019 c -3.57869,0 -6.48416,-2.9056 -6.48416,-6.4843 0,-3.5787 2.90547,-6.4842 6.48416,-6.4842 3.57869,0 6.48417,2.9055 6.48417,6.4842 0,3.5787 -2.90548,6.4843 -6.48417,6.4843 z"
       id="path3819-54-8" />
    <path
       inkscape:connector-curvature="0"
       style="fill:none;stroke:#ff0000;stroke-width:0.09;stroke-linecap:butt;stroke-linejoin:miter;stroke-miterlimit:4;stroke-opacity:1;stroke-dasharray:none"
       d="m 127.49488,995.6713 c 0,7.7997 -6.31081,14.1106 -14.11069,14.1106 -7.79988,0 -14.110689,-6.3109 -14.110689,-14.1106 0,-7.7999 6.310809,-14.1108 14.110689,-14.1108 7.79988,0 14.11069,6.3109 14.11069,14.1108 z"
       id="path3811-8-4" />
    <path
       id="path3217"
       d="m 41.232579,1011.1299 c 2.530558,2.5305 2.530558,6.6395 4.3e-5,9.17 -2.530516,2.5305 -6.639472,2.5305 -9.170031,0 -2.530552,-2.5306 -2.53058,-6.6396 -6.3e-5,-9.1701 2.530516,-2.5305 6.6395,-2.5305 9.170051,10e-5 z"
       style="fill:none;stroke:#ff0000;stroke-width:0.09;stroke-linecap:butt;stroke-linejoin:miter;stroke-miterlimit:4;stroke-opacity:1;stroke-dasharray:none"
       inkscape:connector-curvature="0" />
    <path
       id="path3219"
       d="m 81.319956,971.04251 c 2.530559,2.53056 2.530559,6.63952 4.4e-5,9.17003 -2.530517,2.53052 -6.639472,2.53052 -9.17003,-4e-5 -2.530552,-2.53055 -2.530579,-6.63954 -6.3e-5,-9.17005 2.530516,-2.53052 6.639499,-2.53049 9.17005,6e-5 z"
       style="fill:none;stroke:#ff0000;stroke-width:0.09;stroke-linecap:butt;stroke-linejoin:miter;stroke-miterlimit:4;stroke-opacity:1;stroke-dasharray:none"
       inkscape:connector-curvature="0" />
    <path
       id="path3221"
       d="m 41.232358,980.21228 c -2.530516,2.53051 -6.6395,2.53049 -9.170052,-7e-5 -2.530551,-2.53055 -2.530579,-6.63953 -6.4e-5,-9.17005 2.530516,-2.53051 6.639502,-2.53048 9.170052,7e-5 2.530551,2.53055 2.530578,6.63953 6.3e-5,9.17005 z"
       style="fill:none;stroke:#ff0000;stroke-width:0.09;stroke-linecap:butt;stroke-linejoin:miter;stroke-miterlimit:4;stroke-opacity:1;stroke-dasharray:none"
       inkscape:connector-curvature="0" />
    <path
       id="path3223"
       d="m 81.320312,1020.3002 c -2.530516,2.5305 -6.639563,2.5304 -9.170086,-10e-5 -2.530523,-2.5305 -2.530544,-6.6395 -2.8e-5,-9.17 2.530515,-2.5305 6.639493,-2.5305 9.170016,0 2.530524,2.5305 2.530614,6.6396 9.8e-5,9.1701 z"
       style="fill:none;stroke:#ff0000;stroke-width:0.09;stroke-linecap:butt;stroke-linejoin:miter;stroke-miterlimit:4;stroke-opacity:1;stroke-dasharray:none"
       inkscape:connector-curvature="0" />
    <g
       id="g3957"
       transform="matrix(0.70710678,-0.70710678,0.70710678,0.70710678,-654.23121,411.89053)"
       style="stroke:#ff0000;stroke-width:0.09;stroke-miterlimit:4;stroke-opacity:1;stroke-dasharray:none">
      <path
         inkscape:connector-curvature="0"
         style="fill:none;stroke:#ff0000;stroke-width:0.09;stroke-linecap:butt;stroke-linejoin:miter;stroke-miterlimit:4;stroke-opacity:1;stroke-dasharray:none"
         d="m 148.21685,995.66922 c 0,3.57875 -2.90547,6.48428 -6.48416,6.48428 -3.57869,0 -6.48416,-2.90553 -6.48416,-6.48428 0,-3.57874 2.90547,-6.48425 6.48416,-6.48425 3.57869,0 6.48416,2.90551 6.48416,6.48425 z"
         id="path3959" />
      <path
         inkscape:connector-curvature="0"
         style="fill:none;stroke:#ff0000;stroke-width:0.09;stroke-linecap:butt;stroke-linejoin:miter;stroke-miterlimit:4;stroke-opacity:1;stroke-dasharray:none"
         d="m 204.90896,995.66922 c 0,3.57875 -2.90547,6.48428 -6.48416,6.48428 -3.57869,0 -6.48416,-2.90553 -6.48416,-6.48428 0,-3.57874 2.90547,-6.48425 6.48416,-6.48425 3.57869,0 6.48416,2.90551 6.48416,6.48425 z"
         id="path3961" />
      <path
         inkscape:connector-curvature="0"
         style="fill:none;stroke:#ff0000;stroke-width:0.09;stroke-linecap:butt;stroke-linejoin:miter;stroke-miterlimit:4;stroke-opacity:1;stroke-dasharray:none"
         d="m 170.07874,973.80701 c -3.57869,0 -6.48416,-2.90551 -6.48416,-6.48425 0,-3.57874 2.90547,-6.48425 6.48416,-6.48425 3.57869,0 6.48417,2.90551 6.48417,6.48425 0,3.57874 -2.90548,6.48425 -6.48417,6.48425 z"
         id="path3963" />
      <path
         inkscape:connector-curvature="0"
         style="fill:none;stroke:#ff0000;stroke-width:0.09;stroke-linecap:butt;stroke-linejoin:miter;stroke-miterlimit:4;stroke-opacity:1;stroke-dasharray:none"
         d="m 170.07874,1030.5 c -3.57869,0 -6.48416,-2.9056 -6.48416,-6.4843 0,-3.5787 2.90547,-6.4842 6.48416,-6.4842 3.57869,0 6.48417,2.9055 6.48417,6.4842 0,3.5787 -2.90548,6.4843 -6.48417,6.4843 z"
         id="path3965" />
    </g>
  </g>
</svg>
