<?xml version="1.0" encoding="UTF-8" standalone="no"?>
<!-- Created with Inkscape (http://www.inkscape.org/) -->

<svg
   xmlns:dc="http://purl.org/dc/elements/1.1/"
   xmlns:cc="http://creativecommons.org/ns#"
   xmlns:rdf="http://www.w3.org/1999/02/22-rdf-syntax-ns#"
   xmlns:svg="http://www.w3.org/2000/svg"
   xmlns="http://www.w3.org/2000/svg"
   xmlns:sodipodi="http://sodipodi.sourceforge.net/DTD/sodipodi-0.dtd"
   xmlns:inkscape="http://www.inkscape.org/namespaces/inkscape"
   width="1080"
   height="495"
   id="svg2"
   version="1.1"
   inkscape:version="0.48.4 r9939"
   sodipodi:docname="X Lift Piece Wide.svg">
  <defs
     id="defs4" />
  <sodipodi:namedview
     id="base"
     pagecolor="#ffffff"
     bordercolor="#666666"
     borderopacity="1.0"
     inkscape:pageopacity="0.0"
     inkscape:pageshadow="2"
     inkscape:zoom="0.98994949"
     inkscape:cx="481.34544"
     inkscape:cy="305.4077"
     inkscape:document-units="px"
     inkscape:current-layer="layer1"
     showgrid="false"
     units="in"
     inkscape:snap-bbox="false"
     inkscape:bbox-nodes="false"
     inkscape:snap-bbox-edge-midpoints="true"
     showguides="true"
     inkscape:guide-bbox="true"
     inkscape:window-width="1366"
     inkscape:window-height="705"
     inkscape:window-x="-8"
     inkscape:window-y="-8"
     inkscape:window-maximized="1" />
  <metadata
     id="metadata7">
    <rdf:RDF>
      <cc:Work
         rdf:about="">
        <dc:format>image/svg+xml</dc:format>
        <dc:type
           rdf:resource="http://purl.org/dc/dcmitype/StillImage" />
        <dc:title />
      </cc:Work>
    </rdf:RDF>
  </metadata>
  <g
     inkscape:label="Layer 1"
     inkscape:groupmode="layer"
     id="layer1"
     transform="translate(0,-557.35975)">
    <g
       id="g3118"
       transform="translate(11.25,0)">
      <rect
         ry="44.934471"
         y="567.09528"
         x="0.065528758"
         height="89.868942"
         width="809.87793"
         id="rect3192-5"
         style="fill:none;stroke:#000000;stroke-width:0.13105752;stroke-miterlimit:4;stroke-opacity:1;stroke-dasharray:none;stroke-dashoffset:0" />
      <path
         transform="matrix(0.81857489,0,0,1.0551225,12.757819,-82.32294)"
         d="m 49.497476,658.07996 c 0,4.32366 -4.522607,7.82868 -10.101526,7.82868 -5.578918,0 -10.101525,-3.50502 -10.101525,-7.82868 0,-4.32367 4.522607,-7.82869 10.101525,-7.82869 5.578919,0 10.101526,3.50502 10.101526,7.82869 z"
         sodipodi:ry="7.8286824"
         sodipodi:rx="10.101525"
         sodipodi:cy="658.07996"
         sodipodi:cx="39.39595"
         id="path3962-1"
         style="fill:none;stroke:#000000;stroke-width:0.09684158;stroke-miterlimit:4;stroke-opacity:1;stroke-dasharray:none;stroke-dashoffset:0"
         sodipodi:type="arc" />
      <path
         transform="matrix(0.8179488,0,0,1.0551247,372.77613,-82.36938)"
         d="m 49.497476,658.07996 c 0,4.32366 -4.522607,7.82868 -10.101526,7.82868 -5.578918,0 -10.101525,-3.50502 -10.101525,-7.82868 0,-4.32367 4.522607,-7.82869 10.101525,-7.82869 5.578919,0 10.101526,3.50502 10.101526,7.82869 z"
         sodipodi:ry="7.8286824"
         sodipodi:rx="10.101525"
         sodipodi:cy="658.07996"
         sodipodi:cx="39.39595"
         id="path3962-4-7"
         style="fill:none;stroke:#000000;stroke-width:0.09684158;stroke-miterlimit:4;stroke-opacity:1;stroke-dasharray:none;stroke-dashoffset:0"
         sodipodi:type="arc" />
      <path
         transform="matrix(0.81857489,0,0,1.0551225,732.75782,-82.36794)"
         d="m 49.497476,658.07996 c 0,4.32366 -4.522607,7.82868 -10.101526,7.82868 -5.578918,0 -10.101525,-3.50502 -10.101525,-7.82868 0,-4.32367 4.522607,-7.82869 10.101525,-7.82869 5.578919,0 10.101526,3.50502 10.101526,7.82869 z"
         sodipodi:ry="7.8286824"
         sodipodi:rx="10.101525"
         sodipodi:cy="658.07996"
         sodipodi:cx="39.39595"
         id="path3962-5-1"
         style="fill:none;stroke:#000000;stroke-width:0.09684158;stroke-miterlimit:4;stroke-opacity:1;stroke-dasharray:none;stroke-dashoffset:0"
         sodipodi:type="arc" />
    </g>
  </g>
</svg>
