<?xml version="1.0" encoding="UTF-8" standalone="no"?>
<!-- Created with Inkscape (http://www.inkscape.org/) -->

<svg
   xmlns:dc="http://purl.org/dc/elements/1.1/"
   xmlns:cc="http://creativecommons.org/ns#"
   xmlns:rdf="http://www.w3.org/1999/02/22-rdf-syntax-ns#"
   xmlns:svg="http://www.w3.org/2000/svg"
   xmlns="http://www.w3.org/2000/svg"
   xmlns:sodipodi="http://sodipodi.sourceforge.net/DTD/sodipodi-0.dtd"
   xmlns:inkscape="http://www.inkscape.org/namespaces/inkscape"
   width="3.75in"
   height="3.75in"
   viewBox="0 0 337.50001 337.50001"
   id="svg2"
   version="1.1"
   inkscape:version="0.91 r13725"
   sodipodi:docname="Ball Holder.svg">
  <defs
     id="defs4" />
  <sodipodi:namedview
     id="base"
     pagecolor="#ffffff"
     bordercolor="#666666"
     borderopacity="1.0"
     inkscape:pageopacity="0.0"
     inkscape:pageshadow="2"
     inkscape:zoom="1.4"
     inkscape:cx="129.46911"
     inkscape:cy="292.86436"
     inkscape:document-units="mm"
     inkscape:current-layer="layer1"
     showgrid="false"
     units="in"
     inkscape:window-width="1536"
     inkscape:window-height="801"
     inkscape:window-x="-8"
     inkscape:window-y="-8"
     inkscape:window-maximized="1" />
  <metadata
     id="metadata7">
    <rdf:RDF>
      <cc:Work
         rdf:about="">
        <dc:format>image/svg+xml</dc:format>
        <dc:type
           rdf:resource="http://purl.org/dc/dcmitype/StillImage" />
        <dc:title></dc:title>
      </cc:Work>
    </rdf:RDF>
  </metadata>
  <g
     inkscape:label="Layer 1"
     inkscape:groupmode="layer"
     id="layer1"
     transform="translate(0,-714.86215)">
    <path
       style="opacity:1;fill:none;stroke:#ff0000;stroke-width:0.09057469;stroke-miterlimit:4;stroke-dasharray:none;stroke-opacity:1"
       d="M 163.13281 0.32617188 A 168.70471 168.70471 0 0 0 25.853516 79.761719 L 31.322266 82.919922 L 25.705078 92.650391 L 20.222656 89.484375 A 168.70471 168.70471 0 0 0 17.517578 94.472656 L 42.396484 108.83789 L 45.255859 103.88477 L 30.658203 95.455078 L 41.855469 76.0625 L 56.453125 84.490234 L 56.462891 84.474609 L 61.273438 87.251953 L 44.433594 116.41992 L 39.623047 113.64258 L 39.625 113.63867 L 15.109375 99.482422 A 168.70471 168.70471 0 0 0 0.044921875 168.75 A 168.70471 168.70471 0 0 0 15.130859 238.00391 L 39.625 223.86133 L 39.623047 223.85742 L 44.433594 221.08008 L 61.273438 250.24609 L 56.462891 253.02344 L 56.453125 253.00977 L 41.855469 261.4375 L 30.658203 242.04297 L 45.255859 233.61523 L 42.396484 228.66211 L 17.529297 243.01953 A 168.70471 168.70471 0 0 0 19.982422 248.15234 L 25.705078 244.84961 L 31.322266 254.58008 L 25.716797 257.81641 A 168.70471 168.70471 0 0 0 163.13281 337.2168 L 163.13281 330.67969 L 174.36719 330.67969 L 174.36719 337.17383 A 168.70471 168.70471 0 0 0 180.04102 336.88867 L 180.04102 308.13086 L 174.32227 308.13086 L 174.32227 324.98828 L 151.92773 324.98828 L 151.92773 308.13086 L 151.91016 308.13086 L 151.91016 302.57617 L 185.58984 302.57617 L 185.58984 308.13086 L 185.58398 308.13086 L 185.58398 336.61133 A 168.70471 168.70471 0 0 0 305.52344 267.1543 L 281.04102 253.01953 L 281.03711 253.02344 L 276.22656 250.24609 L 293.06641 221.07812 L 297.87695 223.85547 L 297.86914 223.87109 L 312.4668 232.30078 L 301.26953 251.69531 L 286.67188 243.26562 L 283.8125 248.21875 L 308.76367 262.62305 A 168.70471 168.70471 0 0 0 311.68945 257.76172 L 306.17773 254.58008 L 311.79492 244.84961 L 317.48047 248.13281 A 168.70471 168.70471 0 0 0 337.45508 168.75 A 168.70471 168.70471 0 0 0 317.46289 89.376953 L 311.79492 92.650391 L 306.17773 82.919922 L 311.76367 79.695312 A 168.70471 168.70471 0 0 0 308.81641 74.84375 L 283.8125 89.28125 L 286.67188 94.234375 L 301.26953 85.804688 L 312.4668 105.19922 L 297.86914 113.62891 L 297.87695 113.64258 L 293.06641 116.41992 L 276.22656 87.253906 L 281.03711 84.476562 L 281.04102 84.480469 L 305.57422 70.316406 A 168.70471 168.70471 0 0 0 185.58398 0.88867188 L 185.58398 29.369141 L 185.58984 29.369141 L 185.58984 34.923828 L 151.91016 34.923828 L 151.91016 29.369141 L 151.92773 29.369141 L 151.92773 12.511719 L 174.32227 12.511719 L 174.32227 29.369141 L 180.04102 29.369141 L 180.04102 0.61132812 A 168.70471 168.70471 0 0 0 174.36719 0.32617188 L 174.36719 6.8203125 L 163.13281 6.8203125 L 163.13281 0.32617188 z "
       transform="translate(0,714.86215)"
       id="path4136" />
    <circle
       style="opacity:1;fill:none;stroke:#ff0000;stroke-width:0.09152865;stroke-miterlimit:4;stroke-dasharray:none;stroke-opacity:1"
       id="path4138"
       cx="168.75"
       cy="883.61212"
       r="91.079239" />
  </g>
</svg>
