<?xml version="1.0" encoding="UTF-8" standalone="no"?>
<!-- Created with Inkscape (http://www.inkscape.org/) -->

<svg
   xmlns:dc="http://purl.org/dc/elements/1.1/"
   xmlns:cc="http://creativecommons.org/ns#"
   xmlns:rdf="http://www.w3.org/1999/02/22-rdf-syntax-ns#"
   xmlns:svg="http://www.w3.org/2000/svg"
   xmlns="http://www.w3.org/2000/svg"
   xmlns:sodipodi="http://sodipodi.sourceforge.net/DTD/sodipodi-0.dtd"
   xmlns:inkscape="http://www.inkscape.org/namespaces/inkscape"
   width="40mm"
   height="140mm"
   viewBox="0 0 141.73229 496.063"
   id="svg4803"
   version="1.1"
   inkscape:version="0.91 r13725"
   sodipodi:docname="Motor slides long V2.svg">
  <defs
     id="defs4805" />
  <sodipodi:namedview
     id="base"
     pagecolor="#ffffff"
     bordercolor="#666666"
     borderopacity="1.0"
     inkscape:pageopacity="0.0"
     inkscape:pageshadow="2"
     inkscape:zoom="1.979899"
     inkscape:cx="104.24341"
     inkscape:cy="102.17471"
     inkscape:document-units="mm"
     inkscape:current-layer="layer1"
     showgrid="false"
     inkscape:window-width="1536"
     inkscape:window-height="801"
     inkscape:window-x="-8"
     inkscape:window-y="-8"
     inkscape:window-maximized="1" />
  <metadata
     id="metadata4808">
    <rdf:RDF>
      <cc:Work
         rdf:about="">
        <dc:format>image/svg+xml</dc:format>
        <dc:type
           rdf:resource="http://purl.org/dc/dcmitype/StillImage" />
        <dc:title></dc:title>
      </cc:Work>
    </rdf:RDF>
  </metadata>
  <g
     inkscape:label="Layer 1"
     inkscape:groupmode="layer"
     id="layer1"
     transform="translate(0,-556.29927)">
    <path
       style="opacity:1;fill:none;stroke:#ff0000;stroke-width:0.09;stroke-miterlimit:4;stroke-dasharray:none;stroke-opacity:1"
       d="m 70.88847,586.23778 a 39.804192,39.804192 0 0 0 -39.802734,39.80273 39.804192,39.804192 0 0 0 0.002,0.0527 l -0.0098,0 0,141.73242 0,35.33009 0,141.73241 0.0098,0 a 39.804192,39.804192 0 0 0 -0.002,0.0508 39.804192,39.804192 0 0 0 39.802734,39.80465 39.804192,39.804192 0 0 0 39.80469,-39.80465 39.804192,39.804192 0 0 0 -0.002,-0.0508 l 0.01,0 0,-141.73241 0,-35.33009 0,-141.73242 -0.01,0 a 39.804192,39.804192 0 0 0 0.002,-0.0527 39.804192,39.804192 0 0 0 -39.80469,-39.80273 z"
       id="path4136"
       inkscape:connector-curvature="0" />
    <circle
       style="fill:none;stroke:#ff0000;stroke-width:0.09;stroke-linejoin:miter;stroke-miterlimit:4;stroke-dasharray:none;stroke-dashoffset:0;stroke-opacity:1"
       id="path2985-0-4"
       transform="matrix(0,1,-1,0,0,0)"
       cx="1002.4178"
       cy="-71.874626"
       r="6.4840088" />
    <path
       style="opacity:1;fill:none;stroke:#ff0000;stroke-width:0.09;stroke-miterlimit:4;stroke-dasharray:none;stroke-opacity:1"
       d="M 17.742188 0.056640625 C 7.9468864 0.056640625 0.060546875 26.552734 0.060546875 26.552734 L 17.835938 26.552734 L 17.835938 119.47461 L 17.855469 119.47461 L 17.855469 289.80664 C 17.855469 290.79185 17.927879 291.7585 18.0625 292.70508 L 18.0625 408.5332 C 17.885366 409.55545 17.775391 410.60137 17.775391 411.67578 L 17.775391 477.83008 C 17.775391 487.89868 25.88056 496.00391 35.949219 496.00391 L 105.7832 496.00391 C 115.85186 496.00391 123.95703 487.89868 123.95703 477.83008 L 123.95703 411.67578 C 123.95703 411.59728 123.94629 411.52161 123.94531 411.44336 L 123.94531 284.5625 C 123.94531 284.07312 123.9292 283.58754 123.9082 283.10352 L 123.9082 119.47461 L 123.92773 119.47461 L 123.92773 26.552734 L 141.70312 26.552734 C 141.70312 26.552734 133.81678 0.056640625 124.02148 0.056640625 L 17.742188 0.056640625 z "
       transform="translate(0,556.29927)"
       id="rect4182" />
  </g>
</svg>
