<?xml version="1.0" encoding="UTF-8" standalone="no"?>
<!-- Created with Inkscape (http://www.inkscape.org/) -->

<svg
   xmlns:dc="http://purl.org/dc/elements/1.1/"
   xmlns:cc="http://creativecommons.org/ns#"
   xmlns:rdf="http://www.w3.org/1999/02/22-rdf-syntax-ns#"
   xmlns:svg="http://www.w3.org/2000/svg"
   xmlns="http://www.w3.org/2000/svg"
   xmlns:sodipodi="http://sodipodi.sourceforge.net/DTD/sodipodi-0.dtd"
   xmlns:inkscape="http://www.inkscape.org/namespaces/inkscape"
   width="25mm"
   height="45mm"
   viewBox="0 0 88.582678 159.44882"
   id="svg3336"
   version="1.1"
   inkscape:version="0.91 r13725"
   sodipodi:docname="Motor slide channel middle.svg">
  <defs
     id="defs3338" />
  <sodipodi:namedview
     id="base"
     pagecolor="#ffffff"
     bordercolor="#666666"
     borderopacity="1.0"
     inkscape:pageopacity="0.0"
     inkscape:pageshadow="2"
     inkscape:zoom="2.8"
     inkscape:cx="92.584383"
     inkscape:cy="77.983921"
     inkscape:document-units="px"
     inkscape:current-layer="layer1"
     showgrid="false"
     inkscape:window-width="1536"
     inkscape:window-height="801"
     inkscape:window-x="-8"
     inkscape:window-y="-8"
     inkscape:window-maximized="1" />
  <metadata
     id="metadata3341">
    <rdf:RDF>
      <cc:Work
         rdf:about="">
        <dc:format>image/svg+xml</dc:format>
        <dc:type
           rdf:resource="http://purl.org/dc/dcmitype/StillImage" />
        <dc:title></dc:title>
      </cc:Work>
    </rdf:RDF>
  </metadata>
  <g
     inkscape:label="Layer 1"
     inkscape:groupmode="layer"
     id="layer1"
     transform="translate(0,-892.91339)">
    <g
       id="g4593"
       transform="translate(-194.8819,0)">
      <path
         style="fill:none;stroke:#ff0000;stroke-width:0.09;stroke-linejoin:miter;stroke-miterlimit:4;stroke-dasharray:none;stroke-dashoffset:0;stroke-opacity:1"
         d="m 240.89084,995.66201 a 14.110987,14.110861 0 0 1 -14.11099,14.11089 14.110987,14.110861 0 0 1 -14.11099,-14.11089 14.110987,14.110861 0 0 1 14.11099,-14.11086 14.110987,14.110861 0 0 1 14.11099,14.11086 z"
         id="path2985-8-4-2"
         inkscape:connector-curvature="0" />
      <path
         style="fill:none;stroke:#ff0000;stroke-width:0.09;stroke-linejoin:miter;stroke-miterlimit:4;stroke-dasharray:none;stroke-dashoffset:0;stroke-opacity:1"
         d="m 261.61054,995.66214 a 6.4840736,6.484009 0 0 1 -6.48408,6.48406 6.4840736,6.484009 0 0 1 -6.48407,-6.48406 6.4840736,6.484009 0 0 1 6.48407,-6.48401 6.4840736,6.484009 0 0 1 6.48408,6.48401 z"
         id="path2985-4-3-2-3"
         inkscape:connector-curvature="0" />
      <path
         style="fill:none;stroke:#ff0000;stroke-width:0.09;stroke-linejoin:miter;stroke-miterlimit:4;stroke-dasharray:none;stroke-dashoffset:0;stroke-opacity:1"
         d="m 226.77979,973.79969 a 6.4840736,6.4840086 0 0 1 -6.48407,-6.48401 6.4840736,6.4840086 0 0 1 6.48407,-6.48401 6.4840736,6.4840086 0 0 1 6.48408,6.48401 6.4840736,6.4840086 0 0 1 -6.48408,6.48401 z"
         id="path2985-0-4-9-3-2"
         inkscape:connector-curvature="0" />
      <path
         style="fill:none;stroke:#ff0000;stroke-width:0.09;stroke-linejoin:miter;stroke-miterlimit:4;stroke-dasharray:none;stroke-dashoffset:0;stroke-opacity:1"
         d="m 226.77979,1030.4926 a 6.4840736,6.4840086 0 0 1 -6.48407,-6.484 6.4840736,6.4840086 0 0 1 6.48407,-6.484 6.4840736,6.4840086 0 0 1 6.48408,6.484 6.4840736,6.4840086 0 0 1 -6.48408,6.484 z"
         id="path2985-4-8-10-8-8"
         inkscape:connector-curvature="0" />
      <path
         style="fill:none;stroke:#ff0000;stroke-width:0.09;stroke-linejoin:miter;stroke-miterlimit:4;stroke-dasharray:none;stroke-dashoffset:0;stroke-opacity:1"
         d="m 211.32048,980.20305 a 6.4840086,6.4840736 89.795498 0 1 -9.16986,0 6.4840086,6.4840736 89.795498 0 1 0,-9.16977 6.4840086,6.4840736 89.795498 0 1 9.16986,0 6.4840086,6.4840736 89.795498 0 1 0,9.16977 z"
         id="path2985-0-45-8-3-4"
         inkscape:connector-curvature="0" />
      <path
         style="fill:none;stroke:#ff0000;stroke-width:0.09;stroke-linejoin:miter;stroke-miterlimit:4;stroke-dasharray:none;stroke-dashoffset:0;stroke-opacity:1"
         d="m 251.40883,1020.291 a 6.4840086,6.4840736 89.795498 0 1 -9.16986,0 6.4840086,6.4840736 89.795498 0 1 0,-9.1698 6.4840086,6.4840736 89.795498 0 1 9.16986,0 6.4840086,6.4840736 89.795498 0 1 0,9.1698 z"
         id="path2985-4-5-0-8-1"
         inkscape:connector-curvature="0" />
      <path
         style="fill:none;stroke:#ff0000;stroke-width:0.09;stroke-linejoin:miter;stroke-miterlimit:4;stroke-dasharray:none;stroke-dashoffset:0;stroke-opacity:1"
         d="m 242.23899,980.20308 a 6.4840736,6.4840086 0.20450204 0 1 -1e-5,-9.16978 6.4840736,6.4840086 0.20450204 0 1 9.16987,0 6.4840736,6.4840086 0.20450204 0 1 0,9.16978 6.4840736,6.4840086 0.20450204 0 1 -9.16986,0 z"
         id="path2985-0-4-7-8-9-1"
         inkscape:connector-curvature="0" />
      <path
         style="fill:none;stroke:#ff0000;stroke-width:0.09;stroke-linejoin:miter;stroke-miterlimit:4;stroke-dasharray:none;stroke-dashoffset:0;stroke-opacity:1"
         d="m 202.15065,1020.291 a 6.4840736,6.4840086 0.20450204 0 1 -1e-5,-9.1698 6.4840736,6.4840086 0.20450204 0 1 9.16987,0 6.4840736,6.4840086 0.20450204 0 1 0,9.1698 6.4840736,6.4840086 0.20450204 0 1 -9.16986,0 z"
         id="path2985-4-8-1-2-9-6"
         inkscape:connector-curvature="0" />
      <rect
         y="892.9585"
         x="194.927"
         height="159.35861"
         width="88.492462"
         id="rect3767"
         style="opacity:1;fill:none;stroke:#ff0000;stroke-width:0.09021154;stroke-miterlimit:4;stroke-dasharray:none;stroke-opacity:1" />
    </g>
  </g>
</svg>
