<?xml version="1.0" encoding="UTF-8" standalone="no"?>
<!-- Created with Inkscape (http://www.inkscape.org/) -->

<svg
   xmlns:dc="http://purl.org/dc/elements/1.1/"
   xmlns:cc="http://creativecommons.org/ns#"
   xmlns:rdf="http://www.w3.org/1999/02/22-rdf-syntax-ns#"
   xmlns:svg="http://www.w3.org/2000/svg"
   xmlns="http://www.w3.org/2000/svg"
   xmlns:sodipodi="http://sodipodi.sourceforge.net/DTD/sodipodi-0.dtd"
   xmlns:inkscape="http://www.inkscape.org/namespaces/inkscape"
   width="57.757999mm"
   height="85.838997mm"
   viewBox="0 0 204.65432 304.15392"
   id="svg2"
   version="1.1"
   inkscape:version="0.91 r13725"
   sodipodi:docname="Puncher gear V2 top.svg">
  <defs
     id="defs4" />
  <sodipodi:namedview
     id="base"
     pagecolor="#ffffff"
     bordercolor="#666666"
     borderopacity="1.0"
     inkscape:pageopacity="0.0"
     inkscape:pageshadow="2"
     inkscape:zoom="2.8"
     inkscape:cx="72.140463"
     inkscape:cy="140.05715"
     inkscape:document-units="px"
     inkscape:current-layer="layer1"
     showgrid="false"
     inkscape:window-width="1536"
     inkscape:window-height="801"
     inkscape:window-x="-8"
     inkscape:window-y="-8"
     inkscape:window-maximized="1" />
  <metadata
     id="metadata7">
    <rdf:RDF>
      <cc:Work
         rdf:about="">
        <dc:format>image/svg+xml</dc:format>
        <dc:type
           rdf:resource="http://purl.org/dc/dcmitype/StillImage" />
        <dc:title></dc:title>
      </cc:Work>
    </rdf:RDF>
  </metadata>
  <g
     inkscape:label="Layer 1"
     inkscape:groupmode="layer"
     id="layer1"
     transform="translate(0,-748.20825)">
    <g
       id="g5983">
      <path
         style="fill:none;stroke:#ff0000;stroke-width:0.09;stroke-linejoin:miter;stroke-miterlimit:4;stroke-dasharray:none;stroke-dashoffset:0;stroke-opacity:1"
         d="m 148.48304,949.91967 a 14.110844,14.110859 0 0 1 -14.11084,14.11086 14.110844,14.110859 0 0 1 -14.11084,-14.11086 14.110844,14.110859 0 0 1 14.11084,-14.11086 14.110844,14.110859 0 0 1 14.11084,14.11086 z"
         id="path2985"
         inkscape:connector-curvature="0" />
      <path
         style="fill:none;stroke:#ff0000;stroke-width:0.08999999;stroke-linejoin:miter;stroke-miterlimit:4;stroke-dasharray:none;stroke-dashoffset:0;stroke-opacity:1"
         d="m 112.50964,949.9199 a 6.4840086,6.484009 0 0 1 -6.48401,6.48401 6.4840086,6.484009 0 0 1 -6.484004,-6.48401 6.4840086,6.484009 0 0 1 6.484004,-6.48401 6.4840086,6.484009 0 0 1 6.48401,6.48401 z"
         id="path2985-0"
         inkscape:connector-curvature="0" />
      <path
         style="fill:none;stroke:#ff0000;stroke-width:0.08999999;stroke-linejoin:miter;stroke-miterlimit:4;stroke-dasharray:none;stroke-dashoffset:0;stroke-opacity:1"
         d="m 169.20255,949.9199 a 6.4840086,6.484009 0 0 1 -6.48401,6.48401 6.4840086,6.484009 0 0 1 -6.48401,-6.48401 6.4840086,6.484009 0 0 1 6.48401,-6.48401 6.4840086,6.484009 0 0 1 6.48401,6.48401 z"
         id="path2985-4"
         inkscape:connector-curvature="0" />
      <path
         style="fill:none;stroke:#ff0000;stroke-width:0.08999999;stroke-linejoin:miter;stroke-miterlimit:4;stroke-dasharray:none;stroke-dashoffset:0;stroke-opacity:1"
         d="m 134.37215,928.05745 a 6.484009,6.4840086 0 0 1 -6.48401,-6.48401 6.484009,6.4840086 0 0 1 6.48401,-6.48401 6.484009,6.4840086 0 0 1 6.48401,6.48401 6.484009,6.4840086 0 0 1 -6.48401,6.48401 z"
         id="path2985-0-4"
         inkscape:connector-curvature="0" />
      <path
         style="fill:none;stroke:#ff0000;stroke-width:0.08999999;stroke-linejoin:miter;stroke-miterlimit:4;stroke-dasharray:none;stroke-dashoffset:0;stroke-opacity:1"
         d="m 134.37215,984.75036 a 6.484009,6.4840086 0 0 1 -6.48401,-6.48401 6.484009,6.4840086 0 0 1 6.48401,-6.48401 6.484009,6.4840086 0 0 1 6.48401,6.48401 6.484009,6.4840086 0 0 1 -6.48401,6.48401 z"
         id="path2985-4-8"
         inkscape:connector-curvature="0" />
      <path
         id="path4238"
         d="m 135.93453,748.26112 -0.19922,0.0352 C 53.055885,762.44887 -13.954671,848.22826 2.5653878,942.49745 14.598628,1011.1633 75.600388,1067.3416 140.42477,1048.7045 c 41.79978,-12.0175 77.40935,-61.60711 59.38671,-109.95509 -8.40732,-22.55371 -38.55976,-46.59958 -59.07031,-27.33399 a 39.080036,39.080036 0 0 0 -2.46289,-0.37304 l -2.34375,-162.78126 z"
         style="opacity:1;fill:none;fill-opacity:1;stroke:#ff0000;stroke-width:0.09;stroke-miterlimit:4;stroke-dasharray:none;stroke-opacity:1"
         inkscape:connector-curvature="0" />
      <circle
         r="10.218844"
         style="fill:none;stroke:#ff0000;stroke-width:0.14184061;stroke-linejoin:miter;stroke-miterlimit:4;stroke-dasharray:none;stroke-dashoffset:0;stroke-opacity:1"
         id="ellipse3401"
         transform="matrix(0,1,-1,0,0,0)"
         cx="929.87579"
         cy="-114.32811" />
      <circle
         cy="-154.41608"
         cx="929.87579"
         transform="matrix(0,1,-1,0,0,0)"
         id="circle5977"
         style="fill:none;stroke:#ff0000;stroke-width:0.14184061;stroke-linejoin:miter;stroke-miterlimit:4;stroke-dasharray:none;stroke-dashoffset:0;stroke-opacity:1"
         r="10.218844" />
      <circle
         r="10.218844"
         style="fill:none;stroke:#ff0000;stroke-width:0.14184061;stroke-linejoin:miter;stroke-miterlimit:4;stroke-dasharray:none;stroke-dashoffset:0;stroke-opacity:1"
         id="circle5979"
         transform="matrix(0,1,-1,0,0,0)"
         cx="969.96375"
         cy="-154.41605" />
      <circle
         cy="-114.32814"
         cx="969.96375"
         transform="matrix(0,1,-1,0,0,0)"
         id="circle5981"
         style="fill:none;stroke:#ff0000;stroke-width:0.14184061;stroke-linejoin:miter;stroke-miterlimit:4;stroke-dasharray:none;stroke-dashoffset:0;stroke-opacity:1"
         r="10.218844" />
    </g>
  </g>
</svg>
