<?xml version="1.0" encoding="UTF-8" standalone="no"?>
<!-- Created with Inkscape (http://www.inkscape.org/) -->

<svg
   xmlns:dc="http://purl.org/dc/elements/1.1/"
   xmlns:cc="http://creativecommons.org/ns#"
   xmlns:rdf="http://www.w3.org/1999/02/22-rdf-syntax-ns#"
   xmlns:svg="http://www.w3.org/2000/svg"
   xmlns="http://www.w3.org/2000/svg"
   xmlns:sodipodi="http://sodipodi.sourceforge.net/DTD/sodipodi-0.dtd"
   xmlns:inkscape="http://www.inkscape.org/namespaces/inkscape"
   width="744.09448819"
   height="1052.3622047"
   id="svg3070"
   version="1.1"
   inkscape:version="0.48.4 r9939"
   sodipodi:docname="Servo Holder Piece.svg">
  <defs
     id="defs3072" />
  <sodipodi:namedview
     id="base"
     pagecolor="#ffffff"
     bordercolor="#666666"
     borderopacity="1.0"
     inkscape:pageopacity="0.0"
     inkscape:pageshadow="2"
     inkscape:zoom="1.3239335"
     inkscape:cx="-56.470003"
     inkscape:cy="955.24187"
     inkscape:document-units="px"
     inkscape:current-layer="layer1"
     showgrid="false"
     inkscape:window-width="1366"
     inkscape:window-height="705"
     inkscape:window-x="-8"
     inkscape:window-y="-8"
     inkscape:window-maximized="1" />
  <metadata
     id="metadata3075">
    <rdf:RDF>
      <cc:Work
         rdf:about="">
        <dc:format>image/svg+xml</dc:format>
        <dc:type
           rdf:resource="http://purl.org/dc/dcmitype/StillImage" />
        <dc:title />
      </cc:Work>
    </rdf:RDF>
  </metadata>
  <g
     inkscape:label="Layer 1"
     inkscape:groupmode="layer"
     id="layer1">
    <g
       id="g3898"
       transform="matrix(1,0,0,-1,21.614657,230.85493)">
      <path
         transform="matrix(-0.11213583,0,0,0.0972962,54.135014,22.18279)"
         d="m 234.35539,504.8595 c 0,37.93664 -26.68338,68.69037 -59.599,68.69037 -32.91561,0 -59.599,-30.75373 -59.599,-68.69037 0,-37.93665 26.68339,-68.69038 59.599,-68.69038 32.91562,0 59.599,30.75373 59.599,68.69038 z"
         sodipodi:ry="68.690376"
         sodipodi:rx="59.598999"
         sodipodi:cy="504.8595"
         sodipodi:cx="174.75639"
         id="path2985"
         style="fill:none;stroke:#000000;stroke-width:0.9809497;stroke-miterlimit:4;stroke-opacity:1;stroke-dasharray:none;stroke-dashoffset:0"
         sodipodi:type="arc" />
      <path
         transform="matrix(-0.1121359,0,0,0.09728107,81.90901,-5.51971)"
         d="m 234.35539,504.8595 c 0,37.93664 -26.68338,68.69037 -59.599,68.69037 -32.91561,0 -59.599,-30.75373 -59.599,-68.69037 0,-37.93665 26.68339,-68.69038 59.599,-68.69038 32.91562,0 59.599,30.75373 59.599,68.69038 z"
         sodipodi:ry="68.690376"
         sodipodi:rx="59.598999"
         sodipodi:cy="504.8595"
         sodipodi:cx="174.75639"
         id="path2985-1"
         style="fill:none;stroke:#000000;stroke-width:0.9809497;stroke-miterlimit:4;stroke-opacity:1;stroke-dasharray:none;stroke-dashoffset:0"
         sodipodi:type="arc" />
      <path
         transform="matrix(-0.1121359,0,0,0.09728107,26.495821,-5.55649)"
         d="m 234.35539,504.8595 c 0,37.93664 -26.68338,68.69037 -59.599,68.69037 -32.91561,0 -59.599,-30.75373 -59.599,-68.69037 0,-37.93665 26.68339,-68.69038 59.599,-68.69038 32.91562,0 59.599,30.75373 59.599,68.69038 z"
         sodipodi:ry="68.690376"
         sodipodi:rx="59.598999"
         sodipodi:cy="504.8595"
         sodipodi:cx="174.75639"
         id="path2985-1-7"
         style="fill:none;stroke:#000000;stroke-width:0.9809497;stroke-miterlimit:4;stroke-opacity:1;stroke-dasharray:none;stroke-dashoffset:0"
         sodipodi:type="arc" />
      <path
         transform="matrix(-0.1121359,0,0,0.09728107,54.143656,-33.18649)"
         d="m 234.35539,504.8595 c 0,37.93664 -26.68338,68.69037 -59.599,68.69037 -32.91561,0 -59.599,-30.75373 -59.599,-68.69037 0,-37.93665 26.68339,-68.69038 59.599,-68.69038 32.91562,0 59.599,30.75373 59.599,68.69038 z"
         sodipodi:ry="68.690376"
         sodipodi:rx="59.598999"
         sodipodi:cy="504.8595"
         sodipodi:cx="174.75639"
         id="path2985-4"
         style="fill:none;stroke:#000000;stroke-width:0.9809497;stroke-miterlimit:4;stroke-opacity:1;stroke-dasharray:none;stroke-dashoffset:0"
         sodipodi:type="arc" />
    </g>
    <rect
       style="fill:none;stroke:#000000;stroke-width:0.10124797;stroke-miterlimit:4;stroke-opacity:1;stroke-dasharray:none;stroke-dashoffset:0"
       id="rect3095"
       width="89.851654"
       height="224.86559"
       x="11.3125"
       y="-232.29968"
       ry="0"
       transform="scale(1,-1)" />
    <rect
       style="fill:none;stroke:#000000;stroke-width:0.11018153;stroke-miterlimit:4;stroke-opacity:1;stroke-dasharray:none;stroke-dashoffset:0"
       id="rect3015"
       width="22.366112"
       height="134.83731"
       x="78.810905"
       y="-142.28366"
       transform="scale(1,-1)" />
  </g>
</svg>
